<?xml version="1.0" standalone="no"?><!DOCTYPE svg PUBLIC "-//W3C//DTD SVG 1.1//EN" "http://www.w3.org/Graphics/SVG/1.1/DTD/svg11.dtd"><svg class="icon" width="200px" height="200.00px" viewBox="0 0 1024 1024" version="1.1" xmlns="http://www.w3.org/2000/svg"><path d="M992.256 960H960V576.192c0-36.16-28.928-64.192-64.576-64.192H768.64c-36.288 0-64.64 28.736-64.64 64.192V960h-64V64.448C640 28.736 611.072 0 575.424 0H448.576C412.352 0 384 28.864 384 64.448V960h-64V319.744C320 284.48 291.072 256 255.424 256H128.576C92.352 256 64 284.544 64 319.744V960H31.744C14.464 960 0 974.336 0 992c0 17.152 14.208 32 31.744 32h960.448c17.344 0 31.808-14.336 31.808-32 0-17.152-14.208-32-31.744-32z" /></svg>