<svg xmlns="http://www.w3.org/2000/svg" xmlns:xlink="http://www.w3.org/1999/xlink" fill="none" version="1.1" width="16" height="16" viewBox="0 0 16 16"><defs><clipPath id="master_svg0_2_0306"><rect x="-0.6650000214576721" y="-0.6650000214576721" width="17.330000042915344" height="17.330000042915344" rx="0"/></clipPath></defs><g clip-path="url(#master_svg0_2_0306)"><path d="M13.335133,8Q13.335133,7.934516311,13.347907,7.87029088Q13.360682,7.80606544,13.385741,7.7455664Q13.410801,7.68506736,13.447182,7.63061965Q13.483562,7.57617199,13.529867,7.52986801Q13.57617,7.48356402,13.630617,7.44718325Q13.685065,7.41080248,13.745564,7.38574296Q13.806064,7.36068344,13.87029,7.3479082Q13.934515,7.33513296,14,7.33513296Q14.065483,7.33513296,14.129708,7.3479082Q14.193933,7.36068344,14.254433,7.38574296Q14.314932,7.41080248,14.369379,7.44718325Q14.423827,7.48356402,14.470132,7.52986801Q14.516436,7.57617199,14.552816,7.63061967Q14.589197,7.68506736,14.614257,7.7455664Q14.639317,7.80606544,14.652091,7.87029088Q14.664867,7.934516311,14.664867,8L14.665001,8L14.665001,14Q14.665001,14.0654964,14.652224,14.129735Q14.639444,14.193973100000001,14.61438,14.2544842Q14.589315,14.314994800000001,14.552927,14.369453400000001Q14.51654,14.423912,14.470226,14.4702253Q14.423912,14.5165386,14.369453,14.5529261Q14.314995,14.5893145,14.254484,14.6143789Q14.193974,14.639443400000001,14.129735,14.6522217Q14.065496,14.6649995,14,14.665L2,14.665Q1.93450322,14.6649995,1.87026495,14.6522217Q1.80602667,14.639443400000001,1.74551553,14.6143789Q1.68500441,14.5893145,1.63054579,14.5529261Q1.5760872400000001,14.5165386,1.5297740100000001,14.4702253Q1.48346084,14.423912,1.4470727399999999,14.369453400000001Q1.4106847,14.314994800000001,1.38562018,14.2544837Q1.36055565,14.1939726,1.34777784,14.1297345Q1.3350000400000002,14.0654964,1.33499998,14L1.33499998,8.0027669272L1.3351329600000001,8.0027669272Q1.3351329600000001,7.937283248,1.3479082,7.87305781Q1.3606834399999999,7.80883238,1.38574296,7.74833333Q1.41080248,7.68783432,1.4471832500000001,7.63338661Q1.48356402,7.57893893,1.52986801,7.53263494Q1.57617199,7.48633099,1.63061967,7.44995022Q1.6850673600000001,7.41356945,1.7455664,7.38850993Q1.80606544,7.3634504100000004,1.87029088,7.35067511Q1.934516311,7.33789992,2,7.33789986Q2.065483689,7.33789992,2.1297091200000002,7.35067511Q2.19393456,7.3634504100000004,2.2544336,7.38850993Q2.31493264,7.41356945,2.36938035,7.44995022Q2.42382801,7.48633099,2.47013199,7.53263494Q2.51643598,7.57893893,2.55281675,7.63338661Q2.58919752,7.68783432,2.61425704,7.74833336Q2.63931656,7.80883239,2.6520918,7.8730578Q2.66486704,7.937283225,2.66486704,8.0027669072L2.66500002,8.0027669272L2.66500002,13.335L13.335,13.335L13.335,8L13.335133,8Z" fill-rule="evenodd" fill="#666666" fill-opacity="1"/><path d="M4.52986801,8.136799928232422Q4.43635291,8.043284888232423,4.38574296,7.9211015382324215Q4.33513296,7.798918218232422,4.33513296,7.666667938232422Q4.33513296,7.601184249232422,4.3479082,7.536958818232422Q4.36068344,7.472733378232422,4.38574296,7.412234338232422Q4.41080248,7.351735298232422,4.44718325,7.297287588232422Q4.48356402,7.242839928232422,4.52986801,7.196535948232422Q4.57617199,7.150231958232422,4.63061967,7.113851188232422Q4.68506736,7.077470418232422,4.7455664,7.052410898232422Q4.80606544,7.027351378232422,4.87029088,7.014576138232422Q4.934516311,7.001800898232422,5,7.001800898232422Q5.13225028,7.001800898232422,5.2544336,7.052410898232422Q5.37661695,7.103020848232422,5.47013199,7.196535948232422L5.47022602,7.196441918232422L8,9.726216338232422L10.5297742,7.196441918232422L10.5298681,7.196535888232422Q10.6233826,7.103020848232422,10.745566400000001,7.052410898232422Q10.8677492,7.001800898232422,11,7.001800898232422Q11.0654836,7.001800898232422,11.1297092,7.014576138232422Q11.1939344,7.027351378232422,11.254433200000001,7.052410898232422Q11.314931900000001,7.077470418232422,11.369379,7.113851188232422Q11.4238272,7.150231958232422,11.4701314,7.196535948232422Q11.516435099999999,7.242839928232422,11.5528154,7.297287608232422Q11.589196699999999,7.351735298232422,11.6142564,7.412234338232422Q11.6393156,7.472733378232422,11.652091,7.536958818232422Q11.664866400000001,7.601184249232422,11.6648669,7.666667938232422Q11.664866400000001,7.7989181382324215,11.6142569,7.921101418232422Q11.5636468,8.043284688232422,11.4701319,8.136799748232422L11.4702263,8.136893958232422L8.4702258,11.136893738232422Q8.3766921,11.230427538232423,8.2544842,11.281047538232421Q8.1322765,11.331667638232421,7.999999799999999,11.331667638232421Q7.867723,11.331667638232421,7.7455153,11.281047538232421Q7.6233077,11.230427538232423,7.5297742,11.136893738232422L4.52977398,8.136893958232422L4.52986801,8.136799928232422Z" fill-rule="evenodd" fill="#666666" fill-opacity="1"/><path d="M7.3323253428125,2Q7.3323253428125,1.934516311,7.3451005828125,1.87029088Q7.3578758228125,1.80606544,7.3829353428125,1.7455664Q7.4079948628125,1.6850673600000001,7.4443756328125,1.6306196499999999Q7.4807564028125,1.57617199,7.5270603928125,1.52986801Q7.5733643728125,1.48356402,7.6278120528125,1.4471832500000001Q7.6822597428125,1.41080248,7.7427587828125,1.38574296Q7.8032578228125,1.3606834399999999,7.8674832628125,1.3479082Q7.9317086938125,1.3351329600000001,7.9971923828125,1.3351329600000001Q8.0626760718125,1.3351329600000001,8.1269015028125,1.3479082Q8.1911269428125,1.3606834399999999,8.2516259828125,1.38574296Q8.3121250228125,1.41080248,8.3665727328125,1.4471832500000001Q8.4210203928125,1.48356402,8.4673243728125,1.52986801Q8.5136283628125,1.57617199,8.5500091328125,1.63061967Q8.5863899028125,1.6850673600000001,8.6114494228125,1.7455664Q8.6365089428125,1.80606544,8.6492841828125,1.87029088Q8.6620594228125,1.934516311,8.6620594228125,2L8.6621924028125,2L8.6621924028125,10.666667L8.6620594228125,10.666667Q8.6620594228125,10.732151,8.6492841828125,10.7963762Q8.6365089428125,10.8606014,8.6114494228125,10.9211006Q8.5863899028125,10.9815998,8.5500091328125,11.036047Q8.5136283628125,11.0904942,8.4673243728125,11.1367989Q8.4210203928125,11.1831036,8.3665727128125,11.2194834Q8.3121250228125,11.2558651,8.2516259828125,11.2809238Q8.1911269428125,11.3059826,8.1269015028125,11.318758Q8.0626760718125,11.3315334,7.9971923828125,11.3315344Q7.9317086938125,11.3315334,7.8674832628125,11.318758Q7.8032578228125,11.3059826,7.7427587828125,11.2809238Q7.6822597428125,11.2558651,7.6278120328125,11.2194834Q7.5733643728125,11.1831036,7.5270603928125,11.1367989Q7.4807564028125,11.0904942,7.4443756328125,11.036047Q7.4079948628125,10.9815998,7.3829353428125,10.9211006Q7.3578758228125,10.8606014,7.3451005828125,10.7963753Q7.3323253428125,10.732151,7.3323253428125,10.666667L7.3321923628125,10.666667L7.3321923628125,2L7.3323253428125,2Z" fill-rule="evenodd" fill="#666666" fill-opacity="1"/></g></svg>