<?xml version="1.0" standalone="no"?><!DOCTYPE svg PUBLIC "-//W3C//DTD SVG 1.1//EN" "http://www.w3.org/Graphics/SVG/1.1/DTD/svg11.dtd"><svg class="icon" width="200px" height="166.64px" viewBox="0 0 1229 1024" version="1.1" xmlns="http://www.w3.org/2000/svg"><path d="M598.37736438 536.71577913a112.18633175 112.18633175 0 0 0-17.39322929-3.95300634c0-0.79060158 0-0.79060158-0.79060159-0.79060158a21.42529627 21.42529627 0 0 1 0-26.88044592 2.45086381 2.45086381 0 0 1 1.58120316-0.79060158 15.81202692 15.81202692 0 0 1 7.11541188-3.95300633 202.78924599 202.78924599 0 1 0-182.62891193 0 23.71804038 23.71804038 0 0 1 6.32481107 3.16240553 3.00428506 3.00428506 0 0 0 1.58120239 1.58120238 19.0534923 19.0534923 0 0 1 0 26.88044592l-0.79060157 0.79060158a177.88530401 177.88530401 0 0 0-17.39322931 3.95300634A385.57627839 385.57627839 0 0 0 116.90114258 854.53752224a46.80359964 46.80359964 0 0 0 45.85487838 52.97029026h668.84874166a46.40829886 46.40829886 0 0 0 45.85487837-52.97029026 384.46943664 384.46943664 0 0 0-279.08227661-317.82174311zM1065.62276243 811.8450494a337.03335513 337.03335513 0 0 0-244.29581725-278.29167503 105.3081002 105.3081002 0 0 1-15.02142532-3.95300712h-0.79060159a17.23510961 17.23510961 0 0 1 0-23.71804038c0.79060158 0 0.79060158-0.79060158 1.58120239-0.79060158a15.81202692 15.81202692 0 0 1 6.32481108-3.16240554A177.09470243 177.09470243 0 0 0 732.77959399 166.71434734a212.90894371 212.90894371 0 0 0-31.62405385 2.37180473 250.30438737 250.30438737 0 0 1 51.38908788 151.00485732 246.74668103 246.74668103 0 0 1-87.75674965 188.95372302 429.53371344 429.53371344 0 0 1 264.85145209 339.16797875v9.48721662h95.66276309a40.47878934 40.47878934 0 0 0 40.32066889-45.85487838z" /></svg>