<svg xmlns="http://www.w3.org/2000/svg" xmlns:xlink="http://www.w3.org/1999/xlink" fill="none" version="1.1" width="16" height="16" viewBox="0 0 16 16"><defs><clipPath id="master_svg0_2_0296"><rect x="-0.6650000214576721" y="-0.6650000214576721" width="17.330000042915344" height="17.330000042915344" rx="0"/></clipPath></defs><g clip-path="url(#master_svg0_2_0296)"><path d="M3.33335370171875,15.331666492279053L7.33335401171875,15.331666492279053L7.33335401171875,15.331534492279053Q7.39883711171875,15.331533492279053,7.46306281171875,15.318758492279052Q7.52728791171875,15.305982492279053,7.58778711171875,15.280923492279053Q7.64828591171875,15.255862492279054,7.70273401171875,15.219482492279052Q7.75718161171875,15.183101492279052,7.80348591171875,15.136798492279052Q7.84978961171875,15.090493492279053,7.88616991171875,15.036046492279052Q7.92255021171875,14.981598492279053,7.94760991171875,14.921099492279053Q7.97266961171875,14.860600492279053,7.98544501171875,14.796374492279053Q7.99822041171875,14.732150492279052,7.99822091171875,14.666667492279053Q7.99822041171875,14.601182492279053,7.98544551171875,14.536956492279053Q7.97266961171875,14.472731492279053,7.94761041171875,14.412231492279053Q7.92255071171875,14.351732492279053,7.88616991171875,14.297285492279054Q7.84978961171875,14.242837492279053,7.80348591171875,14.196533492279054Q7.75718161171875,14.150229492279053,7.70273401171875,14.113848492279052Q7.64828591171875,14.077468492279053,7.58778711171875,14.052408492279053Q7.52728791171875,14.027349492279052,7.46306231171875,14.014575492279052Q7.39883711171875,14.001800492279052,7.33335401171875,14.001800492279052L7.33335401171875,14.001667492279052L3.33335370171875,14.001667492279052Q3.33168709171875,14.001667492279052,3.33168709171875,14.000000492279053L3.33168709171875,2.0000001822790527Q3.33168709171875,1.9983335722790527,3.33335370171875,1.9983335722790527L10.03718801171875,1.9983335722790527L12.66835401171875,4.921851392279052L12.66835401171875,7.666666992279053L12.66848701171875,7.666666992279053Q12.66848601171875,7.732150592279052,12.68126101171875,7.796375792279052Q12.69403601171875,7.8606009922790525,12.71909501171875,7.921100092279053Q12.74415501171875,7.981598892279052,12.78053701171875,8.036046492279052Q12.81691701171875,8.090494192279053,12.86322101171875,8.136798392279053Q12.90952501171875,8.183102092279054,12.96397301171875,8.219482392279053Q13.01842101171875,8.255863192279053,13.07892001171875,8.280922892279053Q13.13942001171875,8.305982592279053,13.20364601171875,8.318758492279052Q13.26787001171875,8.331533892279053,13.33335401171875,8.331533892279053Q13.39883701171875,8.331533892279053,13.46306201171875,8.318758492279052Q13.52728701171875,8.305983092279053,13.58778701171875,8.280923392279053Q13.64828601171875,8.255863692279053,13.70273301171875,8.219483392279052Q13.75718101171875,8.183102092279054,13.80348601171875,8.136798892279053Q13.84979001171875,8.090494592279054,13.88617001171875,8.036046492279052Q13.92255101171875,7.981598892279052,13.94761101171875,7.921100092279053Q13.97267001171875,7.8606009922790525,13.98544501171875,7.796375292279053Q13.99822001171875,7.732150592279052,13.99822101171875,7.666666992279053L13.99835401171875,7.666666992279053L13.99835401171875,4.666666992279053Q13.99835401171875,4.543454892279053,13.95421201171875,4.428421492279053Q13.91006901171875,4.313387892279053,13.82764401171875,4.221805092279053L10.82764431171875,0.8884719022790528Q10.73306081171875,0.7833783622790528,10.60390191171875,0.7258558822790527Q10.47474341171875,0.6683334122790527,10.33335401171875,0.6683334122790527L3.33335370171875,0.6683334122790527Q2.78175907171875,0.6683334122790527,2.39172295171875,1.0583695722790527Q2.00168693171875,1.4484056222790527,2.00168693171875,2.0000001822790527L2.00168693171875,14.000000492279053Q2.00168693171875,14.551601492279053,2.39172533171875,14.941636492279052Q2.78175914171875,15.331666492279053,3.33335370171875,15.331666492279053Z" fill-rule="evenodd" fill="#666666" fill-opacity="1"/><path d="M8.66831296828125,14.666667Q8.66831302828125,14.732163400000001,8.68109082828125,14.796402Q8.69386863828125,14.86064,8.71893316828125,14.9211512Q8.743997688281251,14.981661800000001,8.78038578828125,15.0361209Q8.81677382828125,15.0905795,8.86308699828125,15.1368933Q8.90940022828125,15.1832066,8.96385880828125,15.219594Q9.01831739828125,15.2559824,9.07882851828125,15.281046400000001Q9.13933965828125,15.306111300000001,9.20357793828125,15.3188891Q9.26781620828125,15.3316669,9.33331298828125,15.3316674L10.66664638828125,15.3316674Q10.79892298828125,15.3316669,10.92113068828125,15.2810469Q11.04333848828125,15.2304268,11.13687238828125,15.1368933L14.47020628828125,11.8035594Q14.51651958828125,11.7572461,14.55290698828125,11.7027875Q14.58929538828125,11.6483288,14.614359388281251,11.5878177Q14.63942338828125,11.5273066,14.652201688281249,11.4630682Q14.66497898828125,11.398829899999999,14.66497948828125,11.3333333Q14.66497898828125,11.2678365,14.652201688281249,11.2035983Q14.63942338828125,11.13936,14.614359388281251,11.0788488Q14.58929538828125,11.0183377,14.55290698828125,10.96387911Q14.51651958828125,10.90942049,14.47020628828125,10.86310732L13.13687278828125,9.52977398Q13.09055948828125,9.48346078,13.03610058828125,9.44707274Q12.98164198828125,9.410684700000001,12.92113068828125,9.38562018Q12.86061958828125,9.36055565,12.79638118828125,9.34777784Q12.732142888281249,9.33500004,12.66664628828125,9.33499998Q12.601149588281249,9.33500004,12.53691098828125,9.34777784Q12.47267298828125,9.36055565,12.41216158828125,9.38562018Q12.35165048828125,9.410684700000001,12.29719208828125,9.44707274Q12.24273348828125,9.48346078,12.19642038828125,9.52977398L8.86308696828125,12.8631074Q8.76955324828125,12.9566412,8.71893316828125,13.0788491Q8.66831308828125,13.201057,8.66831302828125,13.3333337L8.66831296828125,14.666667ZM9.99831300828125,14.001667000000001L10.39119398828125,14.001667000000001L13.05952758828125,11.3333334L12.66664648828125,10.94045222L9.99831300828125,13.6087859L9.99831300828125,14.001667000000001Z" fill-rule="evenodd" fill="#666666" fill-opacity="1"/><path d="M9.33513296,1.3333334922790527Q9.33513296,1.2678498032790528,9.3479082,1.2036243722790527Q9.36068344,1.1393989322790528,9.38574296,1.0788998922790527Q9.41080248,1.0184008522790529,9.44718325,0.9639531422790527Q9.48356402,0.9095054822790527,9.52986801,0.8632015022790527Q9.57617199,0.8168975122790527,9.63061967,0.7805167422790528Q9.68506736,0.7441359722790527,9.7455664,0.7190764522790527Q9.80606544,0.6940169322790527,9.87029088,0.6812416922790527Q9.934516311,0.6684664522790528,10,0.6684664522790528Q10.065483689,0.6684664522790528,10.12970912,0.6812416922790527Q10.19393456,0.6940169322790527,10.2544336,0.7190764522790527Q10.31493264,0.7441359722790527,10.36938035,0.7805167422790528Q10.42382801,0.8168975122790527,10.47013199,0.8632015022790527Q10.51643598,0.9095054822790527,10.55281675,0.9639531622790527Q10.58919752,1.0184008522790529,10.61425704,1.0788998922790527Q10.63931656,1.1393989322790528,10.6520918,1.2036243722790527Q10.66486704,1.2678498032790528,10.66486704,1.3333334922790527L10.66500002,1.3333334922790527L10.66500002,4.001666992279053L13.3333335,4.001666992279053L13.3333335,4.001800092279053Q13.3988171,4.001800092279053,13.4630423,4.014575292279053Q13.5272677,4.027350392279052,13.5877669,4.052409892279053Q13.6482658,4.077469392279053,13.7027135,4.113850092279053Q13.7571611,4.150230892279053,13.8034654,4.196534892279052Q13.8497691,4.242838892279053,13.8861499,4.297286492279053Q13.9225307,4.351734192279053,13.9475899,4.4122330922790525Q13.9726496,4.4727320922790526,13.985425,4.536957492279052Q13.9981999,4.601183192279053,13.9982004,4.666666992279053Q13.9981999,4.732150592279053,13.9854248,4.796375792279052Q13.9726496,4.860601192279052,13.9475899,4.921100392279053Q13.9225304,4.981599292279053,13.8861496,5.0360469922790525Q13.8497691,5.090494592279052,13.8034651,5.136798892279053Q13.7571611,5.183102592279052,13.7027135,5.219483392279052Q13.6482658,5.255864192279052,13.5877669,5.280923392279053Q13.5272677,5.305983092279053,13.4630423,5.318758492279053Q13.3988171,5.331533392279052,13.3333335,5.331533892279053L13.3333335,5.331666992279053L10,5.331666992279053Q9.93450322,5.331666692279052,9.87026495,5.318888692279053Q9.80602667,5.306110892279053,9.74551553,5.281046392279053Q9.68500441,5.255981892279053,9.63054579,5.219593992279053Q9.57608724,5.183205892279053,9.52977401,5.136892792279053Q9.48346084,5.090579492279053,9.44707274,5.036120892279053Q9.410684700000001,4.9816622922790526,9.38562018,4.921150892279053Q9.36055565,4.860640092279053,9.34777784,4.796401692279053Q9.33500004,4.732163392279053,9.33499998,4.666666992279053L9.33499998,1.3333334922790527L9.33513296,1.3333334922790527Z" fill-rule="evenodd" fill="#666666" fill-opacity="1"/></g></svg>