<svg xmlns="http://www.w3.org/2000/svg" xmlns:xlink="http://www.w3.org/1999/xlink" fill="none" version="1.1" width="20" height="20" viewBox="0 0 20 20"><defs><clipPath id="master_svg0_11_0554"><rect x="-0.8333333134651184" y="-0.8333333134651184" width="21.666666626930237" height="21.666666626930237" rx="0"/></clipPath></defs><g clip-path="url(#master_svg0_11_0554)"><path d="M4.16682940375,4.95000271171875Q4.16832912375,4.97498891171875,4.16832912375,5.00002031171875Q4.16832912375,5.08224391171875,4.15228796375,5.16288781171875Q4.13624692375,5.2435317117187505,4.10478115375,5.319496611718749Q4.07331544375,5.39546151171875,4.02763432375,5.46382831171875Q3.98195320375,5.53219511171875,3.92381215375,5.5903361117187504Q3.86567109375,5.6484771117187496,3.79730445375,5.69415811171875Q3.7289377737500002,5.73983911171875,3.65297281375,5.77130511171875Q3.57700786375,5.80277061171875,3.49636390375,5.81881191171875Q3.41571996375,5.83485321171875,3.33349609375,5.83485321171875Q3.25127222375,5.83485321171875,3.17062828375,5.81881241171875Q3.08998432375,5.80277061171875,3.01401937375,5.77130511171875Q2.9380544137499998,5.73983911171875,2.86968773375,5.69415811171875Q2.80132109375,5.6484771117187496,2.74318003375,5.59033631171875Q2.68503898375,5.53219511171875,2.63935780375,5.46382861171875Q2.59367668375,5.39546151171875,2.56221097375,5.319496611718749Q2.53074526375,5.2435317117187505,2.51470422375,5.16288781171875Q2.49866306375,5.08224391171875,2.49866306375,5.00002031171875Q2.49866306375,4.97498891171875,2.50016278375,4.95000271171875L2.50016278375,1.66668701171875Q2.50016284375,1.58461084971875,2.5161750337499997,1.50411175171875Q2.53218734375,1.42361265171875,2.5635966037499998,1.34778416171875Q2.5950057537499998,1.2719556717187501,2.64060485375,1.20371187171875Q2.68620383375,1.13546800171875,2.7442404637499997,1.07743138171875Q2.80227708375,1.01939475171875,2.87052095375,0.97379577171875Q2.93876475375,0.92819667171875,3.01459324375,0.89678752171875Q3.09042173375,0.86537826171875,3.17092083375,0.84936601171875Q3.25141993175,0.83335376171875,3.33349609375,0.83335370171875L16.66682909375,0.83335370171875Q16.74890509375,0.83335376171875,16.829403093750003,0.84936595171875Q16.90990209375,0.86537826171875,16.985731093749997,0.89678752171875Q17.06156009375,0.92819667171875,17.12980309375,0.97379577171875Q17.19804809375,1.01939475171875,17.256084093749998,1.07743138171875Q17.31412009375,1.13546800171875,17.35971909375,1.20371187171875Q17.40531709375,1.2719556717187501,17.43672609375,1.34778416171875Q17.468136093749997,1.42361265171875,17.48415009375,1.50411175171875Q17.50016209375,1.58461084971875,17.50016209375,1.66668701171875L17.50016209375,18.33335301171875Q17.50016209375,18.41542801171875,17.48414909375,18.49592601171875Q17.468137093750002,18.57642401171875,17.43672709375,18.65225401171875Q17.405318093749997,18.72808301171875,17.35971909375,18.79632601171875Q17.31412009375,18.86457101171875,17.256084093749998,18.92260701171875Q17.19804809375,18.98064401171875,17.12980309375,19.02624101171875Q17.06156009375,19.07184201171875,16.985731093749997,19.10325001171875Q16.90990209375,19.13465901171875,16.82940409375,19.15067301171875Q16.74890509375,19.16668701171875,16.66682909375,19.16668701171875L3.33349609375,19.16668701171875Q3.25141993175,19.16668701171875,3.17092083375,19.15067301171875Q3.09042173375,19.13465901171875,3.01459324375,19.10325001171875Q2.93876475375,19.07184201171875,2.87052095375,19.02624101171875Q2.80227708375,18.98064401171875,2.7442404637499997,18.92260701171875Q2.68620383375,18.86457101171875,2.64060485375,18.79632601171875Q2.5950057537499998,18.72808101171875,2.5635966037499998,18.65225201171875Q2.53218734375,18.57642401171875,2.5161750937500003,18.49592601171875Q2.50016284375,18.41542801171875,2.50016278375,18.33335301171875L2.50016278375,15.05003701171875Q2.49866306375,15.02505101171875,2.49866306375,15.00002001171875Q2.49866306375,14.91779501171875,2.51470422375,14.83715201171875Q2.53074526375,14.75650801171875,2.56221103375,14.68054201171875Q2.59367674375,14.60457801171875,2.63935786375,14.53621101171875Q2.68503898375,14.46784401171875,2.74318003375,14.40970301171875Q2.80132109375,14.35156201171875,2.86968773375,14.30588101171875Q2.9380544137499998,14.26020001171875,3.01401937375,14.22873401171875Q3.08998432375,14.19726801171875,3.17062828375,14.18122801171875Q3.25127222375,14.16518701171875,3.33349609375,14.16518701171875Q3.41571996375,14.16518701171875,3.49636390375,14.18122801171875Q3.57700786375,14.19726801171875,3.65297281375,14.22873401171875Q3.7289377737500002,14.26020001171875,3.79730445375,14.30588101171875Q3.86567109375,14.35156201171875,3.92381215375,14.40970301171875Q3.98195320375,14.46784401171875,4.02763438375,14.53621101171875Q4.07331550375,14.60457801171875,4.10478121375,14.68054201171875Q4.13624692375,14.75650801171875,4.15228796375,14.83715201171875Q4.16832912375,14.91779501171875,4.16832912375,15.00002001171875Q4.16832912375,15.02505101171875,4.16682940375,15.05003701171875L4.16682940375,17.50002001171875L15.83349609375,17.50002001171875L15.83349609375,2.50002032171875L4.16682940375,2.50002032171875L4.16682940375,4.95000271171875Z" fill-rule="evenodd" fill="#FFFFFF" fill-opacity="1" style="mix-blend-mode:passthrough"/><path d="M2.550017696,11.66666669Q2.52503133,11.66516697,2.5,11.66516697Q2.41777613,11.66516697,2.33713219,11.68120813Q2.25648823,11.69724917,2.18052328,11.72871494Q2.1045583199999998,11.76018065,2.03619164,11.80586177Q1.967825,11.85154289,1.9096839399999999,11.90968394Q1.8515428900000002,11.967825,1.8058617099999998,12.03619164Q1.76018059,12.10455832,1.72871488,12.18052328Q1.69724917,12.25648823,1.68120813,12.33713219Q1.66516697,12.41777613,1.66516697,12.5Q1.66516697,12.58222387,1.68120813,12.66286781Q1.69724917,12.74351177,1.7287149400000001,12.81947672Q1.7601806500000001,12.89544168,1.80586177,12.96380836Q1.8515428900000002,13.032175,1.9096839399999999,13.09031606Q1.967825,13.14845711,2.03619164,13.19413829Q2.1045583199999998,13.239819409999999,2.18052328,13.27128512Q2.25648823,13.30275083,2.33713219,13.31879187Q2.41777613,13.33483303,2.5,13.33483303Q2.52503133,13.33483303,2.550017696,13.33333331L4.1166488999999995,13.33333331Q4.1416353,13.33483303,4.1666666,13.33483303Q4.2488904000000005,13.33483303,4.3295343,13.31879187Q4.4101783,13.30275083,4.4861432,13.27128506Q4.5621083,13.23981935,4.6304748,13.19413823Q4.6988416,13.14845711,4.756982600000001,13.09031606Q4.8151236,13.032175,4.8608048,12.96380836Q4.9064858000000005,12.89544168,4.9379516,12.81947672Q4.969417099999999,12.74351177,4.985458400000001,12.66286781Q5.0014997,12.58222387,5.0014997,12.5Q5.0014997,12.41777613,4.985458400000001,12.33713219Q4.969417099999999,12.25648823,4.9379516,12.18052328Q4.9064858000000005,12.10455832,4.8608046,12.03619164Q4.8151236,11.967825,4.756982600000001,11.90968394Q4.6988416,11.85154289,4.630475000000001,11.80586171Q4.562108,11.760180590000001,4.4861431,11.72871488Q4.4101782,11.69724917,4.3295343,11.68120813Q4.2488904000000005,11.66516697,4.1666666,11.66516697Q4.1416353,11.66516697,4.1166488999999995,11.66666669L2.550017696,11.66666669Z" fill-rule="evenodd" fill="#FFFFFF" fill-opacity="1" style="mix-blend-mode:passthrough"/><path d="M2.550017696,9.16666669Q2.52503133,9.16516697,2.5,9.16516697Q2.41777613,9.16516697,2.33713219,9.18120813Q2.25648823,9.19724917,2.18052328,9.22871494Q2.1045583199999998,9.26018065,2.03619164,9.30586177Q1.967825,9.35154289,1.9096839399999999,9.40968394Q1.8515428900000002,9.467825,1.8058617099999998,9.53619164Q1.76018059,9.60455832,1.72871488,9.68052328Q1.69724917,9.75648823,1.68120813,9.83713219Q1.66516697,9.91777613,1.66516697,10Q1.66516697,10.08222387,1.68120813,10.16286781Q1.69724917,10.24351177,1.7287149400000001,10.31947672Q1.7601806500000001,10.39544168,1.80586177,10.46380836Q1.8515428900000002,10.532175,1.9096839399999999,10.59031606Q1.967825,10.64845711,2.03619164,10.69413829Q2.1045583199999998,10.739819409999999,2.18052328,10.77128512Q2.25648823,10.80275083,2.33713219,10.81879187Q2.41777613,10.83483303,2.5,10.83483303Q2.52503133,10.83483303,2.550017696,10.83333331L4.1166488999999995,10.83333331Q4.1416353,10.83483303,4.1666666,10.83483303Q4.2488904000000005,10.83483303,4.3295343,10.81879187Q4.4101783,10.80275083,4.4861432,10.77128506Q4.5621083,10.73981935,4.6304748,10.69413823Q4.6988416,10.64845711,4.756982600000001,10.59031606Q4.8151236,10.532175,4.8608048,10.46380836Q4.9064858000000005,10.39544168,4.9379516,10.31947672Q4.969417099999999,10.24351177,4.985458400000001,10.16286781Q5.0014997,10.08222387,5.0014997,10Q5.0014997,9.91777613,4.985458400000001,9.83713219Q4.969417099999999,9.75648823,4.9379516,9.68052328Q4.9064858000000005,9.60455832,4.8608046,9.53619164Q4.8151236,9.467825,4.756982600000001,9.40968394Q4.6988416,9.35154289,4.630475000000001,9.30586171Q4.562108,9.260180590000001,4.4861431,9.22871488Q4.4101782,9.19724917,4.3295343,9.18120813Q4.2488904000000005,9.16516697,4.1666666,9.16516697Q4.1416353,9.16516697,4.1166488999999995,9.16666669L2.550017696,9.16666669Z" fill-rule="evenodd" fill="#FFFFFF" fill-opacity="1" style="mix-blend-mode:passthrough"/><path d="M2.550017696,6.66666669Q2.52503133,6.66516697,2.5,6.66516697Q2.41777613,6.66516697,2.33713219,6.68120813Q2.25648823,6.69724917,2.18052328,6.72871494Q2.1045583199999998,6.76018065,2.03619164,6.80586177Q1.967825,6.85154289,1.9096839399999999,6.90968394Q1.8515428900000002,6.967825,1.8058617099999998,7.03619164Q1.76018059,7.10455832,1.72871488,7.18052328Q1.69724917,7.25648823,1.68120813,7.33713219Q1.66516697,7.41777613,1.66516697,7.5Q1.66516697,7.58222387,1.68120813,7.66286781Q1.69724917,7.74351177,1.7287149400000001,7.81947672Q1.7601806500000001,7.89544168,1.80586177,7.96380836Q1.8515428900000002,8.032175,1.9096839399999999,8.09031606Q1.967825,8.14845711,2.03619164,8.19413829Q2.1045583199999998,8.239819409999999,2.18052328,8.27128512Q2.25648823,8.30275083,2.33713219,8.31879187Q2.41777613,8.33483303,2.5,8.33483303Q2.52503133,8.33483303,2.550017696,8.33333331L4.1166488999999995,8.33333331Q4.1416353,8.33483303,4.1666666,8.33483303Q4.2488904000000005,8.33483303,4.3295343,8.31879187Q4.4101783,8.30275083,4.4861432,8.27128506Q4.5621083,8.23981935,4.6304748,8.19413823Q4.6988416,8.14845711,4.756982600000001,8.09031606Q4.8151236,8.032175,4.8608048,7.96380836Q4.9064858000000005,7.89544168,4.9379516,7.81947672Q4.969417099999999,7.74351177,4.985458400000001,7.66286781Q5.0014997,7.58222387,5.0014997,7.5Q5.0014997,7.41777613,4.985458400000001,7.33713219Q4.969417099999999,7.25648823,4.9379516,7.18052328Q4.9064858000000005,7.10455832,4.8608046,7.03619164Q4.8151236,6.967825,4.756982600000001,6.90968394Q4.6988416,6.85154289,4.630475000000001,6.80586171Q4.562108,6.76018059,4.4861431,6.72871488Q4.4101782,6.69724917,4.3295343,6.68120813Q4.2488904000000005,6.66516697,4.1666666,6.66516697Q4.1416353,6.66516697,4.1166488999999995,6.66666669L2.550017696,6.66666669Z" fill-rule="evenodd" fill="#FFFFFF" fill-opacity="1" style="mix-blend-mode:passthrough"/><ellipse cx="10.000162720680237" cy="7.083353638648987" rx="1.2499999701976776" ry="1.2499999701976776" fill-opacity="0" stroke-opacity="1" stroke="#FFFFFF" fill="none" stroke-width="1.6666666269302368" stroke-linecap="ROUND" stroke-linejoin="round" style="mix-blend-mode:passthrough"/><path d="M7.5001713062499995,14.5392327Q7.50133693625,14.5612676,7.50133693625,14.5833333Q7.50133693625,14.6655569,7.48529577625,14.7462008Q7.46925473625,14.8268447,7.43778896625,14.9028096Q7.40632325625,14.9787745,7.36064213625,15.0471413Q7.31496101625,15.1155081,7.25681996625,15.1736491Q7.19867890625,15.2317901,7.13031226625,15.2774711Q7.06194558625,15.3231521,6.98598062625,15.3546181Q6.91001567625,15.3860836,6.82937171625,15.4021249Q6.74872777625,15.4181662,6.66650390625,15.4181662Q6.58428003625,15.4181662,6.50363609625,15.4021254Q6.42299213625,15.3860836,6.34702718625,15.3546181Q6.27106222625,15.3231521,6.20269554625,15.2774711Q6.13432890625,15.2317901,6.07618784625,15.173649300000001Q6.01804679625,15.1155081,5.97236561625,15.0471416Q5.92668449625,14.9787745,5.89521878625,14.9028096Q5.86375307625,14.8268447,5.84771203625,14.7462008Q5.83167087625,14.6655569,5.83167087625,14.5833333Q5.83167087625,14.5558281,5.83348131625,14.5283828Q5.85264384625,12.8379627,7.05355545625,11.63705155Q8.27394020625,10.41666675,9.99983720625,10.41666669Q11.72573380625,10.41666669,12.94611830625,11.63705155Q14.147030806250001,12.8379638,14.166193006250001,14.528383999999999Q14.16800360625,14.5558288,14.16800360625,14.5833333Q14.16800310625,14.6655569,14.15196180625,14.7462008Q14.135920506249999,14.8268447,14.10445500625,14.9028096Q14.07298950625,14.9787745,14.02730800625,15.0471413Q13.98162750625,15.1155081,13.92348670625,15.1736491Q13.86534500625,15.2317901,13.79697850625,15.2774711Q13.72861190625,15.3231521,13.65264700625,15.3546181Q13.57668210625,15.3860836,13.49603800625,15.4021249Q13.41539380625,15.4181662,13.33317040625,15.4181662Q13.25094600625,15.4181662,13.17030240625,15.4021254Q13.089657806249999,15.3860836,13.013692806249999,15.3546181Q12.93772790625,15.3231521,12.86936140625,15.2774711Q12.80099490625,15.2317901,12.74285410625,15.173649300000001Q12.68471240625,15.1155081,12.63903140625,15.0471416Q12.59335040625,14.9787745,12.56188440625,14.9028096Q12.53041890625,14.8268447,12.514377606250001,14.7462008Q12.49833680625,14.6655569,12.49833730625,14.5833333Q12.49833730625,14.5612681,12.49950270625,14.5392337Q12.48419670625,13.5321519,11.76760770625,12.8155628Q11.03537800625,12.08333331,9.99983720625,12.08333331Q8.96429630625,12.08333331,8.23206670625,12.8155628Q7.51547783625,13.5321519,7.5001713062499995,14.5392327Z" fill-rule="evenodd" fill="#FFFFFF" fill-opacity="1" style="mix-blend-mode:passthrough"/></g></svg>