<svg xmlns="http://www.w3.org/2000/svg" xmlns:xlink="http://www.w3.org/1999/xlink" fill="none" version="1.1" width="20" height="20" viewBox="0 0 20 20"><defs><clipPath id="master_svg0_4_4846"><rect x="-0.8333333134651184" y="-0.8333333134651184" width="21.666666626930237" height="21.666666626930237" rx="0"/></clipPath></defs><g clip-path="url(#master_svg0_4_4846)"><path d="M3.33317059625,2.50002032171875L3.33317059625,18.33335301171875Q3.33317065625,18.46361501171875,3.37292444625,18.58766601171875Q3.41267812625,18.71171601171875,3.48839276625,18.81771801171875Q3.58473908625,18.95260201171875,3.72536963625,19.04035001171875Q3.86600017625,19.12809801171875,4.02950525625,19.15534801171875Q4.19301010625,19.18259801171875,4.35449729625,19.14520501171875Q4.51598447625,19.10781101171875,4.65086910625,19.01146501171875L7.08317040625,17.27410601171875L9.51547190625,19.01146501171875Q9.56815240625,19.04909301171875,9.62601230625,19.07813501171875Q9.683872206250001,19.10717601171875,9.745522506250001,19.12693201171875Q9.807173706250001,19.14669001171875,9.87113620625,19.15668901171875Q9.935098606250001,19.16668701171875,9.99983740625,19.16668701171875Q10.06457660625,19.16668701171875,10.12853860625,19.15668901171875Q10.19250060625,19.14669001171875,10.25415090625,19.12693201171875Q10.31580210625,19.10717601171875,10.373662006250001,19.07813501171875Q10.431521906250001,19.04909301171875,10.48420190625,19.01146501171875L12.91650290625,17.27410601171875L15.34880490625,19.01146501171875Q15.45480490625,19.08717701171875,15.57885490625,19.12693201171875Q15.70290490625,19.16668501171875,15.83316990625,19.16668701171875Q15.91524490625,19.16668701171875,15.99574390625,19.15067301171875Q16.076242906250002,19.13465901171875,16.15207090625,19.10325001171875Q16.227899906250002,19.07184201171875,16.296143906250002,19.02624101171875Q16.364387906250002,18.98064401171875,16.42242390625,18.92260701171875Q16.480460906250002,18.86457101171875,16.526059906249998,18.79632601171875Q16.57165890625,18.72808101171875,16.60306790625,18.65225201171875Q16.634477906249998,18.57642401171875,16.65048990625,18.49592601171875Q16.666501906249998,18.41542801171875,16.666502906250003,18.33335301171875L16.666502906250003,2.50002032171875Q16.666502906250003,1.80966475171875,16.178353906250003,1.32151186171875Q15.69020090625,0.83335370171875,14.99983590625,0.83335370171875L4.99983715625,0.83335370171875Q4.30947130625,0.83335376171875,3.82131811625,1.32151204171875Q3.33317059625,1.80966468171875,3.33317059625,2.50002032171875ZM4.99983721625,16.71402801171875L6.598805206250001,15.57190801171875Q6.65148570625,15.53428001171875,6.70934560625,15.50523901171875Q6.76720520625,15.47619701171875,6.82885600625,15.45644001171875Q6.89050670625,15.43668401171875,6.95446920625,15.42668501171875Q7.01843170625,15.41668801171875,7.08317060625,15.41668701171875Q7.14790990625,15.41668801171875,7.21187210625,15.42668601171875Q7.27583430625,15.43668401171875,7.33748480625,15.45644001171875Q7.399135606250001,15.47619701171875,7.45699550625,15.50523901171875Q7.51485540625,15.53428001171875,7.56753560625,15.57190801171875L9.99983690625,17.309267011718752L12.43213840625,15.57190801171875Q12.48481940625,15.53428001171875,12.54267880625,15.50523901171875Q12.60053920625,15.47619701171875,12.66218950625,15.45644001171875Q12.72384070625,15.43668401171875,12.78780360625,15.42668501171875Q12.85176470625,15.41668801171875,12.91650390625,15.41668701171875Q12.98124310625,15.41668801171875,13.04520610625,15.42668601171875Q13.10916800625,15.43668401171875,13.17081830625,15.45644001171875Q13.23246960625,15.47619701171875,13.29032900625,15.50523901171875Q13.34818840625,15.53428001171875,13.40086840625,15.57190801171875L14.99983590625,16.71402801171875L14.99983590625,2.50002032171875L4.99983733625,2.50002032171875L4.99983721625,16.71402801171875Z" fill-rule="evenodd" fill="#FFFFFF" fill-opacity="1"/><path d="M7.550017696,10.00002032171875Q7.52503133,10.00152004171875,7.5,10.00152004171875Q7.41777613,10.00152004171875,7.33713219,9.98547888171875Q7.25648823,9.96943784171875,7.18052328,9.93797207171875Q7.10455832,9.90650636171875,7.03619164,9.86082524171875Q6.967825,9.81514412171875,6.90968394,9.75700307171875Q6.85154289,9.69886201171875,6.80586171,9.63049537171875Q6.76018059,9.56212869171875,6.72871488,9.48616373171875Q6.69724917,9.41019878171875,6.68120813,9.32955482171875Q6.66516697,9.24891088171875,6.66516697,9.16668701171875Q6.66516697,9.08446314171875,6.68120813,9.00381920171875Q6.69724917,8.92317524171875,6.72871494,8.84721029171875Q6.76018065,8.77124533171875,6.80586177,8.70287865171875Q6.85154289,8.63451201171875,6.90968394,8.57637095171875Q6.967825,8.51822990171875,7.03619164,8.47254872171875Q7.10455832,8.426867601718751,7.18052328,8.39540189171875Q7.25648823,8.36393618171875,7.33713219,8.34789514171875Q7.41777613,8.33185398171875,7.5,8.33185398171875Q7.52503133,8.33185398171875,7.550017696,8.33335370171875L12.4499822,8.33335370171875Q12.4749684,8.33185398171875,12.5,8.33185398171875Q12.582223899999999,8.33185398171875,12.6628675,8.34789514171875Q12.7435112,8.36393618171875,12.8194761,8.39540195171875Q12.8954411,8.42686766171875,12.963807599999999,8.47254878171875Q13.032174600000001,8.51822990171875,13.090315799999999,8.57637095171875Q13.1484566,8.63451201171875,13.194137600000001,8.70287865171875Q13.2398186,8.77124533171875,13.271284600000001,8.84721029171875Q13.3027501,8.92317524171875,13.3187914,9.00381920171875Q13.3348327,9.08446314171875,13.3348331,9.16668701171875Q13.3348327,9.24891088171875,13.3187914,9.32955482171875Q13.3027501,9.41019878171875,13.271284600000001,9.48616373171875Q13.2398186,9.56212869171875,13.194137600000001,9.63049537171875Q13.1484566,9.69886201171875,13.090315799999999,9.75700307171875Q13.032174600000001,9.81514412171875,12.9638081,9.86082530171875Q12.8954411,9.906506421718749,12.8194761,9.93797213171875Q12.7435112,9.96943784171875,12.6628675,9.98547888171875Q12.582223899999999,10.00152004171875,12.5,10.00152004171875Q12.4749684,10.00152004171875,12.4499822,10.00002032171875L7.550017696,10.00002032171875Z" fill-rule="evenodd" fill="#FFFFFF" fill-opacity="1"/><path d="M7.550017696,13.33333331Q7.52503133,13.33483303,7.5,13.33483303Q7.41777613,13.33483303,7.33713219,13.31879187Q7.25648823,13.30275083,7.18052328,13.27128506Q7.10455832,13.23981935,7.03619164,13.19413823Q6.967825,13.14845711,6.90968394,13.09031606Q6.85154289,13.032175,6.80586171,12.96380836Q6.76018059,12.89544168,6.72871488,12.81947672Q6.69724917,12.74351177,6.68120813,12.66286781Q6.66516697,12.58222387,6.66516697,12.5Q6.66516697,12.41777613,6.68120813,12.33713219Q6.69724917,12.25648823,6.72871494,12.18052328Q6.76018065,12.10455832,6.80586177,12.03619164Q6.85154289,11.967825,6.90968394,11.90968394Q6.967825,11.85154289,7.03619164,11.80586171Q7.10455832,11.760180590000001,7.18052328,11.72871488Q7.25648823,11.69724917,7.33713219,11.68120813Q7.41777613,11.66516697,7.5,11.66516697Q7.52503133,11.66516697,7.550017696,11.66666669L12.4499822,11.66666669Q12.4749684,11.66516697,12.5,11.66516697Q12.582223899999999,11.66516697,12.6628675,11.68120813Q12.7435112,11.69724917,12.8194761,11.72871494Q12.8954411,11.76018065,12.963807599999999,11.80586177Q13.032174600000001,11.85154289,13.090315799999999,11.90968394Q13.1484566,11.967825,13.194137600000001,12.03619164Q13.2398186,12.10455832,13.271284600000001,12.18052328Q13.3027501,12.25648823,13.3187914,12.33713219Q13.3348327,12.41777613,13.3348331,12.5Q13.3348327,12.58222387,13.3187914,12.66286781Q13.3027501,12.74351177,13.271284600000001,12.81947672Q13.2398186,12.89544168,13.194137600000001,12.96380836Q13.1484566,13.032175,13.090315799999999,13.09031606Q13.032174600000001,13.14845711,12.9638081,13.19413829Q12.8954411,13.239819409999999,12.8194761,13.27128512Q12.7435112,13.30275083,12.6628675,13.31879187Q12.582223899999999,13.33483303,12.5,13.33483303Q12.4749684,13.33483303,12.4499822,13.33333331L7.550017696,13.33333331Z" fill-rule="evenodd" fill="#FFFFFF" fill-opacity="1"/><path d="M7.550017696,6.66664629828125Q7.52503133,6.66814601828125,7.5,6.66814601828125Q7.41777613,6.66814601828125,7.33713219,6.65210485828125Q7.25648823,6.63606381828125,7.18052328,6.60459804828125Q7.10455832,6.57313233828125,7.03619164,6.52745121828125Q6.967825,6.48177009828125,6.90968394,6.42362904828125Q6.85154289,6.36548798828125,6.80586171,6.29712134828125Q6.76018059,6.22875466828125,6.72871488,6.15278970828125Q6.69724917,6.07682475828125,6.68120813,5.99618079828125Q6.66516697,5.91553685828125,6.66516697,5.83331298828125Q6.66516697,5.75108911828125,6.68120813,5.67044517828125Q6.69724917,5.58980121828125,6.72871494,5.51383626828125Q6.76018065,5.43787130828125,6.80586177,5.36950462828125Q6.85154289,5.30113798828125,6.90968394,5.24299692828125Q6.967825,5.18485587828125,7.03619164,5.13917469828125Q7.10455832,5.09349357828125,7.18052328,5.06202786828125Q7.25648823,5.03056215828125,7.33713219,5.01452111828125Q7.41777613,4.99847995828125,7.5,4.99847995828125Q7.52503133,4.99847995828125,7.550017696,4.99997967828125L12.4499822,4.99997967828125Q12.4749684,4.99847995828125,12.5,4.99847995828125Q12.582223899999999,4.99847995828125,12.6628675,5.01452111828125Q12.7435112,5.03056215828125,12.8194761,5.06202792828125Q12.8954411,5.09349363828125,12.963807599999999,5.13917475828125Q13.032174600000001,5.18485587828125,13.090315799999999,5.24299692828125Q13.1484566,5.30113798828125,13.194137600000001,5.36950462828125Q13.2398186,5.43787130828125,13.271284600000001,5.51383626828125Q13.3027501,5.58980121828125,13.3187914,5.67044517828125Q13.3348327,5.75108911828125,13.3348331,5.83331298828125Q13.3348327,5.91553685828125,13.3187914,5.99618079828125Q13.3027501,6.07682475828125,13.271284600000001,6.15278970828125Q13.2398186,6.22875466828125,13.194137600000001,6.29712134828125Q13.1484566,6.36548798828125,13.090315799999999,6.42362904828125Q13.032174600000001,6.48177009828125,12.9638081,6.52745127828125Q12.8954411,6.57313239828125,12.8194761,6.60459810828125Q12.7435112,6.63606381828125,12.6628675,6.65210485828125Q12.582223899999999,6.66814601828125,12.5,6.66814601828125Q12.4749684,6.66814601828125,12.4499822,6.66664629828125L7.550017696,6.66664629828125Z" fill-rule="evenodd" fill="#FFFFFF" fill-opacity="1"/></g></svg>