<svg xmlns="http://www.w3.org/2000/svg" xmlns:xlink="http://www.w3.org/1999/xlink" fill="none" version="1.1" width="20" height="20" viewBox="0 0 20 20"><defs><clipPath id="master_svg0_7_1670"><rect x="-0.8333333134651184" y="-0.8333333134651184" width="21.666666626930237" height="21.666666626930237" rx="0"/></clipPath></defs><g clip-path="url(#master_svg0_7_1670)"><path d="M4.99983720625,14.583323494140625L18.33316990625,14.583323494140625Q18.41524490625,14.583322494140624,18.49574290625,14.567310494140624Q18.57624090625,14.551298494140624,18.65207090625,14.519887494140624Q18.72789990625,14.488478494140624,18.79614290625,14.442879494140625Q18.86438790625,14.397281494140625,18.92242390625,14.339244494140624Q18.98046090625,14.281208494140625,19.02605790625,14.212964494140625Q19.07165890625,14.144720494140625,19.10306690625,14.068891494140624Q19.13447590625,13.993062494140625,19.15048990625,13.912564494140625Q19.16650390625,13.832065494140625,19.16650390625,13.749989494140625L19.16650390625,2.916656494140625Q19.16650390625,2.834580332140625,19.15048990625,2.754081234140625Q19.13447590625,2.673582134140625,19.10306690625,2.597753644140625Q19.07165890625,2.521925154140625,19.02605790625,2.453681354140625Q18.98046090625,2.385437484140625,18.92242390625,2.3274008641406247Q18.86438790625,2.269364234140625,18.79614290625,2.223765254140625Q18.72789790625,2.1781661541406248,18.65206890625,2.1467570041406248Q18.57624090625,2.115347744140625,18.49574290625,2.0993354941406253Q18.41524490625,2.083323244140625,18.33316990625,2.083323184140625L1.66650390625,2.083323184140625Q1.58442774425,2.083323244140625,1.50392864625,2.0993354341406247Q1.42342954625,2.115347744140625,1.34760105625,2.1467570041406248Q1.2717725662500001,2.1781661541406248,1.20352876625,2.223765254140625Q1.13528489625,2.269364234140625,1.07724827625,2.3274008641406247Q1.01921164625,2.385437484140625,0.97361266625,2.453681354140625Q0.92801356625,2.521925154140625,0.89660441625,2.597753644140625Q0.86519515625,2.673582134140625,0.84918290625,2.754081234140625Q0.83317065625,2.834580332140625,0.83317059625,2.916656494140625L0.83317059625,13.749989494140625Q0.83317065625,13.832065494140625,0.84918284625,13.912564494140625Q0.86519515625,13.993062494140625,0.89660441625,14.068891494140624Q0.92801356625,14.144720494140625,0.97361266625,14.212965494140626Q1.01921164625,14.281208494140625,1.07724827625,14.339244494140624Q1.13528489625,14.397281494140625,1.20352876625,14.442880494140624Q1.2717725662500001,14.488478494140624,1.34760105625,14.519887494140624Q1.42342954625,14.551298494140624,1.50392864625,14.567310494140624Q1.58442774425,14.583322494140624,1.66650390625,14.583323494140625L4.99983720625,14.583323494140625ZM17.49983690625,12.916656494140625L2.49983721625,12.916656494140625L2.49983721625,3.749989804140625L17.49983690625,3.749989804140625L17.49983690625,12.916656494140625Z" fill-rule="evenodd" fill="#FFFFFF" fill-opacity="1"/><path d="M7.49983721625,9.216674190140624Q7.50133693625,9.191687824140624,7.50133693625,9.166656494140625Q7.50133693625,9.084432624140625,7.48529577625,9.003788684140625Q7.46925473625,8.923144724140625,7.43778896625,8.847179774140624Q7.40632325625,8.771214814140626,7.36064213625,8.702848134140625Q7.31496101625,8.634481494140624,7.25681996625,8.576340434140626Q7.19867890625,8.518199384140624,7.13031226625,8.472518204140625Q7.06194558625,8.426837084140626,6.98598062625,8.395371374140625Q6.91001567625,8.363905664140624,6.82937171625,8.347864624140625Q6.74872777625,8.331823464140625,6.66650390625,8.331823464140625Q6.58428003625,8.331823464140625,6.50363609625,8.347864624140625Q6.42299213625,8.363905664140624,6.34702718625,8.395371434140625Q6.27106222625,8.426837144140626,6.20269554625,8.472518264140625Q6.13432890625,8.518199384140624,6.07618784625,8.576340434140626Q6.01804679625,8.634481494140624,5.97236561625,8.702848134140625Q5.92668449625,8.771214814140626,5.89521878625,8.847179774140624Q5.86375307625,8.923144724140625,5.84771203625,9.003788684140625Q5.83167087625,9.084432624140625,5.83167087625,9.166656494140625Q5.83167087625,9.191687824140624,5.83317059625,9.216674190140624L5.83317059625,10.783305394140625Q5.83167087625,10.808291794140626,5.83167087625,10.833323094140624Q5.83167087625,10.915546894140626,5.84771203625,10.996190794140626Q5.86375307625,11.076834794140625,5.89521884625,11.152799694140626Q5.92668455625,11.228764794140625,5.97236567625,11.297131294140625Q6.01804679625,11.365498094140625,6.07618784625,11.423639094140626Q6.13432890625,11.481780094140625,6.20269554625,11.527461294140625Q6.27106222625,11.573142294140625,6.34702718625,11.604608094140625Q6.42299213625,11.636073594140624,6.50363609625,11.652114894140626Q6.58428003625,11.668156194140625,6.66650390625,11.668156194140625Q6.74872777625,11.668156194140625,6.82937171625,11.652114894140626Q6.91001567625,11.636073594140624,6.98598062625,11.604608094140625Q7.06194558625,11.573142294140625,7.13031226625,11.527461094140625Q7.19867890625,11.481780094140625,7.25681996625,11.423639094140626Q7.31496101625,11.365498094140625,7.36064219625,11.297131494140626Q7.40632331625,11.228764494140625,7.43778902625,11.152799594140625Q7.46925473625,11.076834694140626,7.48529577625,10.996190794140626Q7.50133693625,10.915546894140626,7.50133693625,10.833323094140624Q7.50133693625,10.808291794140626,7.49983721625,10.783305394140625L7.49983721625,9.216674190140624Z" fill-rule="evenodd" fill="#FFFFFF" fill-opacity="1"/><path d="M10.83333331,13.800017696Q10.83483303,13.77503133,10.83483303,13.75Q10.83483303,13.66777613,10.81879187,13.58713219Q10.80275083,13.50648823,10.77128506,13.43052328Q10.73981935,13.35455832,10.69413823,13.28619164Q10.64845711,13.217825,10.59031606,13.15968394Q10.532175,13.10154289,10.46380836,13.05586171Q10.39544168,13.010180590000001,10.31947672,12.97871488Q10.24351177,12.94724917,10.16286781,12.93120813Q10.08222387,12.91516697,10,12.91516697Q9.91777613,12.91516697,9.83713219,12.93120813Q9.75648823,12.94724917,9.68052328,12.97871494Q9.60455832,13.01018065,9.53619164,13.05586177Q9.467825,13.10154289,9.40968394,13.15968394Q9.35154289,13.217825,9.30586171,13.28619164Q9.260180590000001,13.35455832,9.22871488,13.43052328Q9.19724917,13.50648823,9.18120813,13.58713219Q9.16516697,13.66777613,9.16516697,13.75Q9.16516697,13.77503133,9.16666669,13.800017696L9.16666669,16.1999824Q9.16516697,16.224968699999998,9.16516697,16.25Q9.16516697,16.3322239,9.18120813,16.4128678Q9.19724917,16.4935117,9.22871494,16.5694766Q9.26018065,16.6454415,9.30586177,16.7138083Q9.35154289,16.7821748,9.40968394,16.8403158Q9.467825,16.8984571,9.53619164,16.9441381Q9.60455832,16.9898193,9.68052328,17.0212851Q9.75648823,17.0527506,9.83713219,17.0687919Q9.91777613,17.0848329,10,17.0848331Q10.08222387,17.0848329,10.16286781,17.0687919Q10.24351177,17.0527506,10.31947672,17.0212848Q10.39544168,16.989819,10.46380836,16.9441381Q10.532175,16.8984571,10.59031606,16.8403161Q10.64845711,16.7821751,10.69413829,16.7138081Q10.739819409999999,16.6454415,10.77128512,16.5694766Q10.80275083,16.4935117,10.81879187,16.412868Q10.83483303,16.3322239,10.83483303,16.25Q10.83483303,16.224968699999998,10.83333331,16.1999824L10.83333331,13.800017696Z" fill-rule="evenodd" fill="#FFFFFF" fill-opacity="1"/><path d="M10.83333331,7.550017696Q10.83483303,7.52503133,10.83483303,7.5Q10.83483303,7.41777613,10.81879187,7.33713219Q10.80275083,7.25648823,10.77128506,7.18052328Q10.73981935,7.10455832,10.69413823,7.03619164Q10.64845711,6.967825,10.59031606,6.90968394Q10.532175,6.85154289,10.46380836,6.80586171Q10.39544168,6.76018059,10.31947672,6.72871488Q10.24351177,6.69724917,10.16286781,6.68120813Q10.08222387,6.66516697,10,6.66516697Q9.91777613,6.66516697,9.83713219,6.68120813Q9.75648823,6.69724917,9.68052328,6.72871494Q9.60455832,6.76018065,9.53619164,6.80586177Q9.467825,6.85154289,9.40968394,6.90968394Q9.35154289,6.967825,9.30586171,7.03619164Q9.260180590000001,7.10455832,9.22871488,7.18052328Q9.19724917,7.25648823,9.18120813,7.33713219Q9.16516697,7.41777613,9.16516697,7.5Q9.16516697,7.52503133,9.16666669,7.550017696L9.16666669,10.7833157Q9.16516697,10.8083019,9.16516697,10.8333333Q9.16516697,10.9155569,9.18120813,10.9962008Q9.19724917,11.0768447,9.22871494,11.1528096Q9.26018065,11.2287745,9.30586177,11.2971413Q9.35154289,11.3655081,9.40968394,11.4236491Q9.467825,11.4817901,9.53619164,11.5274711Q9.60455832,11.5731521,9.68052328,11.6046181Q9.75648823,11.6360836,9.83713219,11.6521249Q9.91777613,11.6681662,10,11.6681662Q10.08222387,11.6681662,10.16286781,11.6521254Q10.24351177,11.6360836,10.31947672,11.6046181Q10.39544168,11.5731521,10.46380836,11.5274711Q10.532175,11.4817901,10.59031606,11.423649300000001Q10.64845711,11.3655081,10.69413829,11.2971416Q10.739819409999999,11.2287745,10.77128512,11.1528096Q10.80275083,11.0768447,10.81879187,10.9962008Q10.83483303,10.9155569,10.83483303,10.8333333Q10.83483303,10.8083019,10.83333331,10.7833157L10.83333331,7.550017696Z" fill-rule="evenodd" fill="#FFFFFF" fill-opacity="1"/><path d="M14.16682940375,5.883361201859375Q14.16832912375,5.858374835859375,14.16832912375,5.833343505859375Q14.16832912375,5.751119635859375,14.15228796375,5.670475695859375Q14.13624692375,5.589831735859375,14.10478115375,5.513866785859375Q14.07331544375,5.437901825859375,14.02763432375,5.369535145859375Q13.98195320375,5.301168505859375,13.92381215375,5.243027445859375Q13.86567109375,5.184886395859375,13.79730445375,5.139205215859375Q13.72893777375,5.093524095859375,13.65297281375,5.062058385859375Q13.57700786375,5.030592675859375,13.49636390375,5.014551635859375Q13.41571996375,4.998510475859375,13.33349609375,4.998510475859375Q13.25127222375,4.998510475859375,13.17062828375,5.014551635859375Q13.08998432375,5.030592675859375,13.01401937375,5.062058445859375Q12.93805441375,5.093524155859375,12.86968773375,5.139205275859375Q12.80132109375,5.184886395859375,12.74318003375,5.243027445859375Q12.68503898375,5.301168505859375,12.63935780375,5.369535145859375Q12.593676683750001,5.437901825859375,12.56221097375,5.513866785859375Q12.53074526375,5.589831735859375,12.51470422375,5.670475695859375Q12.49866306375,5.751119635859375,12.49866306375,5.833343505859375Q12.49866306375,5.858374835859375,12.50016278375,5.883361201859375L12.50016278375,10.783325705859376Q12.49866306375,10.808311905859375,12.49866306375,10.833343505859375Q12.49866306375,10.915567405859374,12.51470422375,10.996211005859376Q12.53074526375,11.076854705859375,12.56221103375,11.152819605859374Q12.59367674375,11.228784605859374,12.63935786375,11.297151105859374Q12.68503898375,11.365518105859376,12.74318003375,11.423659305859374Q12.80132109375,11.481800105859374,12.86968773375,11.527481105859376Q12.93805441375,11.573162105859375,13.01401937375,11.604628105859376Q13.08998432375,11.636093605859376,13.17062828375,11.652134905859375Q13.25127222375,11.668176205859375,13.33349609375,11.668176605859376Q13.41571996375,11.668176205859375,13.49636390375,11.652134905859375Q13.57700786375,11.636093605859376,13.65297281375,11.604628105859376Q13.72893777375,11.573162105859375,13.79730445375,11.527481105859376Q13.86567109375,11.481800105859374,13.92381215375,11.423659305859374Q13.98195320375,11.365518105859376,14.02763438375,11.297151605859375Q14.073315503749999,11.228784605859374,14.10478121375,11.152819605859374Q14.13624692375,11.076854705859375,14.15228796375,10.996211005859376Q14.16832912375,10.915567405859374,14.16832912375,10.833343505859375Q14.16832912375,10.808311905859375,14.16682940375,10.783325705859376L14.16682940375,5.883361201859375Z" fill-rule="evenodd" fill="#FFFFFF" fill-opacity="1"/><path d="M5.050017696,17.916676815859375Q5.02503133,17.918176535859374,5,17.918176535859374Q4.91777613,17.918176535859374,4.83713219,17.902135375859373Q4.75648823,17.886094335859376,4.68052328,17.854628565859375Q4.60455832,17.823162855859376,4.53619164,17.777481735859375Q4.467825,17.731800615859374,4.40968394,17.673659565859374Q4.35154289,17.615518505859374,4.30586171,17.547151865859377Q4.26018059,17.478785185859376,4.22871488,17.402820225859376Q4.19724917,17.326855275859376,4.18120813,17.246211315859377Q4.16516697,17.165567375859375,4.16516697,17.083343505859375Q4.16516697,17.001119635859375,4.18120813,16.920475695859373Q4.19724917,16.839831735859374,4.22871494,16.763866785859374Q4.26018065,16.687901825859374,4.30586177,16.619535145859373Q4.35154289,16.551168505859376,4.40968394,16.493027445859376Q4.467825,16.434886395859376,4.53619164,16.389205215859374Q4.60455832,16.343524095859376,4.68052328,16.312058385859373Q4.75648823,16.280592675859374,4.83713219,16.264551635859377Q4.91777613,16.248510475859376,5,16.248510475859376Q5.02503133,16.248510475859376,5.050017696,16.250010195859375L14.9499826,16.250010195859375Q14.9749689,16.248510475859376,15,16.248510475859376Q15.082224,16.248510475859376,15.162867,16.264551635859377Q15.24351,16.280592675859374,15.319475,16.312058445859375Q15.395439,16.343524155859374,15.463806,16.389205275859375Q15.532173,16.434886395859376,15.590315,16.493027445859376Q15.648457,16.551168505859376,15.694138,16.619535145859373Q15.739819,16.687901825859374,15.771284,16.763866785859374Q15.802751,16.839831735859374,15.818792,16.920475695859373Q15.834833,17.001119635859375,15.834833,17.083343505859375Q15.834833,17.165567375859375,15.818791,17.246211315859377Q15.802751,17.326855275859376,15.771284,17.402820225859376Q15.739819,17.478785185859376,15.694138,17.547151865859377Q15.648457,17.615518505859374,15.590316,17.673659565859374Q15.532174,17.731800615859374,15.463807,17.777481795859376Q15.39544,17.823162915859374,15.319475,17.854628625859377Q15.24351,17.886094335859376,15.162867,17.902135375859373Q15.082224,17.918176535859374,15,17.918176535859374Q14.9749689,17.918176535859374,14.9499826,17.916676815859375L5.050017696,17.916676815859375Z" fill-rule="evenodd" fill="#FFFFFF" fill-opacity="1"/></g></svg>