<svg xmlns="http://www.w3.org/2000/svg" xmlns:xlink="http://www.w3.org/1999/xlink" fill="none" version="1.1" width="20" height="20" viewBox="0 0 20 20"><defs><clipPath id="master_svg0_73_3750"><rect x="-0.8333333134651184" y="-0.8333333134651184" width="21.666666626930237" height="21.666666626930237" rx="0"/></clipPath></defs><g clip-path="url(#master_svg0_73_3750)"><path d="M13.4051475875,16.666664123535156L14.4110698875,17.672586423535158Q14.4691061875,17.730623223535154,14.5373496875,17.776222223535157Q14.6055936875,17.821821223535157,14.6814217875,17.853229523535155Q14.7572502875,17.884638823535155,14.8377494875,17.900651023535154Q14.9182486875,17.916664123535156,15.0003251875,17.916664123535156Q15.0824012875,17.916664123535156,15.162899987500001,17.900651923535158Q15.243398687500001,17.884638823535155,15.319227187500001,17.853229523535155Q15.395055787499999,17.821821223535157,15.4633001875,17.776222223535157Q15.5315441875,17.730623223535154,15.5895809875,17.672586423535158L16.595502387499998,16.666664123535156L18.3336581875,16.666664123535156Q18.4157342875,16.666663623535158,18.4962329875,16.650651023535154Q18.5767316875,16.634638823535155,18.6525592875,16.603229523535155Q18.7283877875,16.571820223535155,18.7966317875,16.526221323535157Q18.8648757875,16.480622323535158,18.9229125875,16.422585923535156Q18.9809493875,16.364549123535156,19.0265483875,16.296305223535157Q19.0721473875,16.228060723535158,19.1035565875,16.152232123535157Q19.1349658875,16.076404123535156,19.1509780875,15.995905423535156Q19.1669902875,15.915406223535157,19.166991187500003,15.833330623535156L19.166991187500003,9.166664123535156Q19.1669902875,9.084587961535156,19.1509780875,9.004088863535156Q19.1349658875,8.923589763535157,19.1035565875,8.847761273535156Q19.0721473875,8.771932783535156,19.0265483875,8.703688983535157Q18.9809493875,8.635445113535155,18.9229135875,8.577408493535156Q18.8648757875,8.519371863535156,18.796632787500002,8.473772883535156Q18.7283877875,8.428173783535156,18.6525601875,8.396764633535156Q18.5767325875,8.365355373535156,18.4962329875,8.349343123535157Q18.4157342875,8.333330873535155,18.3336581875,8.333330813535156L15.0003251875,8.333330813535156Q14.9182486875,8.333330873535155,14.8377494875,8.349343063535157Q14.7572502875,8.365355373535156,14.6814217875,8.396764633535156Q14.6055936875,8.428173783535156,14.5373491875,8.473772883535156Q14.4691056875,8.519371863535156,14.4110688875,8.577408493535156Q14.3530320875,8.635445113535155,14.3074330875,8.703688983535157Q14.2618341875,8.771932783535156,14.2304248875,8.847761273535156Q14.1990155875,8.923589763535157,14.183003387500001,9.004088863535156Q14.166991187499999,9.084587961535156,14.166991687500001,9.166664123535156L14.166991687500001,11.666664123535156L9.1669921875,11.666664123535156Q9.0849160255,11.666664123535156,9.0044169275,11.682676323535157Q8.9239178275,11.698688523535157,8.8480893375,11.730097723535156Q8.7722608475,11.761507023535156,8.7040170475,11.807106023535155Q8.635773177499999,11.852705023535156,8.5777365575,11.910741823535156Q8.5196999275,11.968778123535156,8.4741009475,12.037021923535157Q8.4285018475,12.105265623535157,8.3970926975,12.181094123535157Q8.3656834375,12.256922723535157,8.3496711875,12.337421923535157Q8.3336589375,12.417921023535156,8.3336588775,12.499997423535156L8.3336588775,15.833330623535156Q8.3336589375,15.915406223535157,8.3496711275,15.995905923535156Q8.3656834375,16.076404523535157,8.3970926975,16.152232623535156Q8.4285018475,16.228061223535157,8.4741009475,16.296305223535157Q8.5196999275,16.364548723535158,8.5777365575,16.422585523535155Q8.635773177499999,16.480621823535156,8.7040170475,16.526220823535155Q8.7722608475,16.571819823535158,8.8480893375,16.603229023535157Q8.9239178275,16.634638823535155,9.0044169275,16.650651023535154Q9.0849160255,16.666663623535158,9.1669921875,16.666664123535156L13.4051475875,16.666664123535156ZM15.0003251875,15.904819523535156L14.339580487500001,15.244074823535156Q14.222370187500001,15.126864423535157,14.0692276875,15.063430323535156Q13.9160852875,14.999997123535156,13.7503251875,14.999997123535156L10.0003254975,14.999997123535156L10.0003254975,13.333330623535156L15.0003251875,13.333330623535156Q15.0824012875,13.333330123535156,15.162899987500001,13.317317923535157Q15.243398687500001,13.301305723535156,15.319227187500001,13.269896523535156Q15.395055787499999,13.238487223535156,15.463299787499999,13.192888223535157Q15.531543687500001,13.147289323535157,15.589580487500001,13.089252923535156Q15.6476173875,13.031216123535156,15.6932162875,12.962972423535156Q15.7388152875,12.894728623535157,15.7702245875,12.818900123535157Q15.8016337875,12.743071523535157,15.8176459875,12.662572423535156Q15.8336581875,12.582073223535156,15.8336586875,12.499997423535156L15.8336586875,9.999997433535157L17.5003251875,9.999997433535157L17.5003251875,14.999997123535156L16.2503246875,14.999997123535156Q16.0845641875,14.999997123535156,15.9314217875,15.063430823535157Q15.7782792875,15.126864923535155,15.6610688875,15.244075323535156L15.0003251875,15.904819523535156Z" fill-rule="evenodd" fill="#FFFFFF" fill-opacity="1" style="mix-blend-mode:passthrough"/><path d="M0.8336588775,2.5L0.8336588775,12.5Q0.8336589375,12.582075,0.8496711275,12.662574Q0.8656834375,12.743073,0.8970926975,12.818901Q0.9285018475,12.89473,0.9741009475,12.962975Q1.0196999275,13.031218,1.0777365575,13.089255Q1.1357731775,13.147291,1.2040170475,13.19289Q1.2722608475000001,13.238489,1.3480893375,13.269897Q1.4239178275,13.301308,1.5044169275,13.31732Q1.5849160255,13.333332,1.6669921875,13.333333L3.4051472875,13.333333L4.8277361875,14.755922Q4.885772687499999,14.813958,4.954016487500001,14.859556Q5.022260187500001,14.905156,5.0980887875,14.936565Q5.1739172875,14.967974,5.2544164875,14.983986Q5.334915387500001,14.999998,5.4169916874999995,14.999998Q5.4990677875,14.999998,5.5795666875,14.983986Q5.6600656874999995,14.967974,5.7358941875,14.936564Q5.8117227875,14.905155,5.8799666875,14.859556Q5.9482106875,14.813958,6.0062474875,14.755922L7.4288363875,13.333333L15.0003251875,13.333333Q15.0824011875,13.333332,15.1628991875,13.31732Q15.2433981875,13.301308,15.3192271875,13.269897Q15.3950561875,13.238489,15.4632991875,13.19289Q15.5315441875,13.147291,15.5895801875,13.089255Q15.6476161875,13.031218,15.6932151875,12.962974Q15.7388131875,12.89473,15.7702221875,12.818901Q15.8016321875,12.743073,15.8176461875,12.662575Q15.8336581875,12.582075,15.8336581875,12.5L15.8336581875,2.5Q15.8336581875,2.417923838,15.8176451875,2.33742474Q15.8016331875,2.25692564,15.7702231875,2.18109715Q15.7388141875,2.10526866,15.6932151875,2.03702486Q15.6476161875,1.96878099,15.5895801875,1.91074437Q15.5315441875,1.85270774,15.4632991875,1.80710876Q15.3950561875,1.76150966,15.3192271875,1.73010051Q15.2433981875,1.69869125,15.1629001875,1.682679Q15.0824011875,1.66666675,15.0003251875,1.66666669L1.6669921875,1.66666669Q1.5849160255,1.66666675,1.5044169275,1.68267894Q1.4239178275,1.69869125,1.3480893375,1.73010051Q1.2722608475000001,1.76150966,1.2040170475,1.80710876Q1.1357731775,1.85270774,1.0777365575,1.91074437Q1.0196999275,1.96878099,0.9741009475,2.03702486Q0.9285018475,2.10526866,0.8970926975,2.18109715Q0.8656834375,2.25692564,0.8496711875,2.33742474Q0.8336589375,2.417923838,0.8336588775,2.5ZM2.5003254975,11.666666L3.7503254875,11.666666Q3.9160856875,11.666666,4.0692281875,11.7300987Q4.2223708875,11.7935333,4.3395812875,11.9107447L5.416991987499999,12.988155L6.4944028875,11.9107447Q6.6116127875,11.7935333,6.7647552875,11.7300997Q6.9178976875,11.666666,7.0836581875,11.666666L14.1669921875,11.666666L14.1669921875,3.33333331L2.5003254975,3.33333331L2.5003254975,11.666666Z" fill-rule="evenodd" fill="#FFFFFF" fill-opacity="1" style="mix-blend-mode:passthrough"/><path d="M7.9670098835,6.66666669Q7.9420235175,6.66516697,7.9169921875,6.66516697Q7.8347683175,6.66516697,7.7541243775,6.68120813Q7.6734804175,6.69724917,7.5975154675,6.72871494Q7.5215505075,6.76018065,7.4531838275,6.80586177Q7.3848171875,6.85154289,7.3266761275,6.90968394Q7.2685350775,6.967825,7.2228538975,7.03619164Q7.1771727775,7.10455832,7.1457070675,7.18052328Q7.1142413575,7.25648823,7.0982003175,7.33713219Q7.0821591575,7.41777613,7.0821591575,7.5Q7.0821591575,7.58222387,7.0982003175,7.66286781Q7.1142413575,7.74351177,7.1457071275,7.81947672Q7.1771728375,7.89544168,7.2228539575,7.96380836Q7.2685350775,8.032175,7.3266761275,8.09031606Q7.3848171875,8.14845711,7.4531838275,8.19413829Q7.5215505075,8.239819409999999,7.5975154675,8.27128512Q7.6734804175,8.30275083,7.7541243775,8.31879187Q7.8347683175,8.33483303,7.9169921875,8.33483303Q7.9420235175,8.33483303,7.9670098835,8.33333331L8.2836411275,8.33333331Q8.3086274875,8.33483303,8.3336588175,8.33483303Q8.4158826475,8.33483303,8.4965265975,8.31879187Q8.5771706075,8.30275083,8.6531355375,8.27128506Q8.7291004675,8.23981935,8.7974671175,8.19413823Q8.8658337575,8.14845711,8.9239748875,8.09031606Q8.9821159875,8.032175,9.0277969875,7.96380836Q9.0734781875,7.89544168,9.1049439875,7.81947672Q9.1364096875,7.74351177,9.1524507875,7.66286781Q9.1684918875,7.58222387,9.1684918875,7.5Q9.1684918875,7.41777613,9.1524506875,7.33713219Q9.1364094875,7.25648823,9.1049438875,7.18052328Q9.0734781875,7.10455832,9.0277969875,7.03619164Q8.9821159875,6.967825,8.9239748875,6.90968394Q8.8658337575,6.85154289,8.7974671175,6.80586171Q8.7291004675,6.76018059,8.6531354775,6.72871488Q8.5771705475,6.69724917,8.4965265975,6.68120813Q8.4158826475,6.66516697,8.3336588175,6.66516697Q8.3086274875,6.66516697,8.2836411275,6.66666669L7.9670098835,6.66666669Z" fill-rule="evenodd" fill="#FFFFFF" fill-opacity="1" style="mix-blend-mode:passthrough"/><path d="M10.8830255085,6.66666669Q10.8580391425,6.66516697,10.8330078125,6.66516697Q10.7507839425,6.66516697,10.6701400025,6.68120813Q10.5894960425,6.69724917,10.5135310925,6.72871494Q10.4375661325,6.76018065,10.3691994525,6.80586177Q10.3008328125,6.85154289,10.2426917525,6.90968394Q10.1845507025,6.967825,10.1388695225,7.03619164Q10.093188402500001,7.10455832,10.0617226925,7.18052328Q10.0302569825,7.25648823,10.0142159425,7.33713219Q9.9981747825,7.41777613,9.9981747825,7.5Q9.9981747825,7.58222387,10.0142159425,7.66286781Q10.0302569825,7.74351177,10.0617227525,7.81947672Q10.0931884625,7.89544168,10.1388695825,7.96380836Q10.1845507025,8.032175,10.2426917525,8.09031606Q10.3008328125,8.14845711,10.3691994525,8.19413829Q10.4375661325,8.239819409999999,10.5135310925,8.27128512Q10.5894960425,8.30275083,10.6701400025,8.31879187Q10.7507839425,8.33483303,10.8330078125,8.33483303Q10.8580391425,8.33483303,10.8830255085,8.33333331L11.1996567525,8.33333331Q11.2246431125,8.33483303,11.2496744425,8.33483303Q11.3318982725,8.33483303,11.4125422225,8.31879187Q11.4931862325,8.30275083,11.5691511625,8.27128506Q11.6451160925,8.23981935,11.7134827425,8.19413823Q11.7818493825,8.14845711,11.8399905125,8.09031606Q11.8981316125,8.032175,11.9438126125,7.96380836Q11.9894938125,7.89544168,12.0209596125,7.81947672Q12.0524253125,7.74351177,12.0684664125,7.66286781Q12.0845075125,7.58222387,12.0845075125,7.5Q12.0845075125,7.41777613,12.0684663125,7.33713219Q12.0524251125,7.25648823,12.0209595125,7.18052328Q11.9894938125,7.10455832,11.9438126125,7.03619164Q11.8981316125,6.967825,11.8399905125,6.90968394Q11.7818493825,6.85154289,11.7134827425,6.80586171Q11.6451160925,6.76018059,11.5691511025,6.72871488Q11.4931861725,6.69724917,11.4125422225,6.68120813Q11.3318982725,6.66516697,11.2496744425,6.66516697Q11.2246431125,6.66516697,11.1996567525,6.66666669L10.8830255085,6.66666669Z" fill-rule="evenodd" fill="#FFFFFF" fill-opacity="1" style="mix-blend-mode:passthrough"/><path d="M5.050017696,6.66666669Q5.02503133,6.66516697,5,6.66516697Q4.91777613,6.66516697,4.83713219,6.68120813Q4.75648823,6.69724917,4.68052328,6.72871494Q4.60455832,6.76018065,4.53619164,6.80586177Q4.467825,6.85154289,4.40968394,6.90968394Q4.35154289,6.967825,4.30586171,7.03619164Q4.26018059,7.10455832,4.22871488,7.18052328Q4.19724917,7.25648823,4.18120813,7.33713219Q4.16516697,7.41777613,4.16516697,7.5Q4.16516697,7.58222387,4.18120813,7.66286781Q4.19724917,7.74351177,4.22871494,7.81947672Q4.26018065,7.89544168,4.30586177,7.96380836Q4.35154289,8.032175,4.40968394,8.09031606Q4.467825,8.14845711,4.53619164,8.19413829Q4.60455832,8.239819409999999,4.68052328,8.27128512Q4.75648823,8.30275083,4.83713219,8.31879187Q4.91777613,8.33483303,5,8.33483303Q5.02503133,8.33483303,5.050017696,8.33333331L5.36664894,8.33333331Q5.3916353,8.33483303,5.41666663,8.33483303Q5.49889046,8.33483303,5.57953441,8.31879187Q5.66017842,8.30275083,5.73614335,8.27128506Q5.81210828,8.23981935,5.88047493,8.19413823Q5.94884157,8.14845711,6.0069827,8.09031606Q6.0651238,8.032175,6.1108048,7.96380836Q6.156486,7.89544168,6.1879518000000004,7.81947672Q6.2194175000000005,7.74351177,6.2354586,7.66286781Q6.2514997,7.58222387,6.2514997,7.5Q6.2514997,7.41777613,6.2354585,7.33713219Q6.2194173,7.25648823,6.1879517,7.18052328Q6.156486,7.10455832,6.1108048,7.03619164Q6.0651238,6.967825,6.0069827,6.90968394Q5.94884157,6.85154289,5.88047493,6.80586171Q5.81210828,6.76018059,5.73614329,6.72871488Q5.66017836,6.69724917,5.57953441,6.68120813Q5.49889046,6.66516697,5.41666663,6.66516697Q5.3916353,6.66516697,5.36664894,6.66666669L5.050017696,6.66666669Z" fill-rule="evenodd" fill="#FFFFFF" fill-opacity="1" style="mix-blend-mode:passthrough"/></g></svg>