<svg xmlns="http://www.w3.org/2000/svg" xmlns:xlink="http://www.w3.org/1999/xlink" fill="none" version="1.1" width="20" height="20" viewBox="0 0 20 20"><defs><clipPath id="master_svg0_11_996"><rect x="-0.8333333134651184" y="-0.8333333134651184" width="21.666666626930237" height="21.666666626930237" rx="0"/></clipPath></defs><g clip-path="url(#master_svg0_11_996)"><path d="M2.50016278375,16.66668701171875L2.50016278375,3.33335361171875Q2.50016278375,2.2978197917187497,3.23239579375,1.56558671171875Q3.9646288737499997,0.83335370171875,5.00016269375,0.83335370171875L15.00016209375,0.83335370171875Q16.035697093750002,0.83335370171875,16.76793009375,1.56558671171875Q17.50016209375,2.29781943171875,17.50016209375,3.33335361171875L17.50016209375,16.66668701171875Q17.50016209375,17.70222101171875,16.76793009375,18.43445401171875Q16.035697093750002,19.16668701171875,15.00016209375,19.16668701171875L5.00016269375,19.16668701171875Q3.9646285737499998,19.16668701171875,3.23239579375,18.43445401171875Q2.50016278375,17.70222101171875,2.50016278375,16.66668701171875ZM4.16682940375,16.66668701171875Q4.16682940375,17.50002001171875,5.00016269375,17.50002001171875L15.00016209375,17.50002001171875Q15.83349609375,17.50002001171875,15.83349609375,16.66668701171875L15.83349609375,3.33335361171875Q15.83349609375,2.50002032171875,15.00016209375,2.50002032171875L5.00016269375,2.50002032171875Q4.16682940375,2.50002032171875,4.16682940375,3.33335361171875L4.16682940375,16.66668701171875Z" fill="#FFFFFF" fill-opacity="1" style="mix-blend-mode:passthrough"/><path d="M8.23240195375,4.48221859828125Q7.50016284375,5.21445756828125,7.50016278375,6.24997958828125Q7.50016278375,7.285501688281251,8.23240205375,8.01774098828125Q8.96464091375,8.74997948828125,10.00016269375,8.74997948828125Q11.03568529375,8.74997948828125,11.76792409375,8.01774048828125Q12.50016259375,7.28550148828125,12.50016259375,6.2499787882812505Q12.50016259375,5.21445738828125,11.76792359375,4.48221859828125Q11.03568459375,3.74997973828125,10.00016189375,3.74997967828125Q8.96464091375,3.74997967828125,8.23240195375,4.48221859828125ZM9.41091319375,6.83922938828125Q9.16682940375,6.595145488281251,9.16682940375,6.24997958828125Q9.16682940375,5.90481368828125,9.41091309375,5.66073008828125Q9.654996893749999,5.41664629828125,10.00016189375,5.41664629828125Q10.34532859375,5.41664629828125,10.58941249375,5.66073008828125Q10.83349609375,5.90481368828125,10.83349609375,6.2499787882812505Q10.83349609375,6.595145188281251,10.58941219375,6.83922938828125Q10.34532879375,7.08331298828125,10.00016269375,7.08331298828125Q9.65499679375,7.08331298828125,9.41091319375,6.83922938828125Z" fill-rule="evenodd" fill="#FFFFFF" fill-opacity="1" style="mix-blend-mode:passthrough"/><path d="M8.33378512,10.37487151171875Q8.33483303,10.395766211718751,8.33483303,10.41668701171875Q8.33483303,10.498910911718749,8.31879187,10.57955481171875Q8.30275083,10.660198711718749,8.27128506,10.73616361171875Q8.23981935,10.81212851171875,8.19413823,10.88049531171875Q8.14845711,10.94886181171875,8.09031606,11.007002811718749Q8.032175,11.06514411171875,7.96380836,11.11082511171875Q7.89544168,11.15650631171875,7.81947672,11.18797211171875Q7.74351177,11.21943761171875,7.66286781,11.23547891171875Q7.58222387,11.25151991171875,7.5,11.25152011171875Q7.41777613,11.25151991171875,7.33713219,11.23547891171875Q7.25648823,11.21943761171875,7.18052328,11.18797181171875Q7.10455832,11.15650601171875,7.03619164,11.11082511171875Q6.967825,11.06514411171875,6.90968394,11.007003111718749Q6.85154289,10.94886211171875,6.80586171,10.88049511171875Q6.76018059,10.81212851171875,6.72871488,10.73616361171875Q6.69724917,10.660198711718749,6.68120813,10.57955501171875Q6.66516697,10.498910911718749,6.66516697,10.41668701171875Q6.66516697,10.38798901171875,6.66713768,10.35935881171875Q6.67778206,9.71279671171875,6.92895955,9.11894831171875Q7.18203712,8.52060741171875,7.64297876,8.05966577171875Q8.1039201,7.59872442171875,8.7022613,7.34564662171875Q9.3223898,7.08335364171875,10,7.08335364171875Q10.6776106,7.08335364171875,11.2977388,7.34564656171875Q11.896079499999999,7.59872410171875,12.3570213,8.05966577171875Q12.817962600000001,8.52060741171875,13.0710406,9.11894831171875Q13.322216000000001,9.71279211171875,13.332861900000001,10.35934971171875Q13.3348331,10.38798451171875,13.3348331,10.41668701171875Q13.3348327,10.498910911718749,13.3187914,10.57955481171875Q13.3027501,10.660198711718749,13.271284600000001,10.73616361171875Q13.2398186,10.81212851171875,13.194137600000001,10.88049531171875Q13.1484566,10.94886181171875,13.090315799999999,11.007002811718749Q13.032174600000001,11.06514411171875,12.9638081,11.11082511171875Q12.8954411,11.15650631171875,12.8194761,11.18797211171875Q12.7435112,11.21943761171875,12.6628675,11.23547891171875Q12.582223899999999,11.25151991171875,12.5,11.25152011171875Q12.417776100000001,11.25151991171875,12.337132,11.23547891171875Q12.2564878,11.21943761171875,12.1805229,11.18797181171875Q12.104558,11.15650601171875,12.036190999999999,11.11082511171875Q11.967824,11.06514411171875,11.9096832,11.007003111718749Q11.851542,10.94886211171875,11.805861,10.88049511171875Q11.7601795,10.81212851171875,11.728714,10.73616361171875Q11.6972485,10.660198711718749,11.6812077,10.57955501171875Q11.6651669,10.498910911718749,11.6651669,10.41668701171875Q11.6651669,10.395766211718751,11.6662149,10.37487151171875Q11.651816400000001,9.71148381171875,11.17851,9.23817701171875Q10.6903532,8.75002038171875,10,8.75002038171875Q9.309647,8.75002026171875,8.82149,9.23817701171875Q8.34818363,9.71148361171875,8.33378512,10.37487151171875Z" fill-rule="evenodd" fill="#FFFFFF" fill-opacity="1" style="mix-blend-mode:passthrough"/><path d="M7.550017696,13.75002032171875Q7.52503133,13.75152004171875,7.5,13.75152004171875Q7.41777613,13.75152004171875,7.33713219,13.73547888171875Q7.25648823,13.71943784171875,7.18052328,13.68797207171875Q7.10455832,13.65650636171875,7.03619164,13.61082524171875Q6.967825,13.56514412171875,6.90968394,13.50700307171875Q6.85154289,13.44886201171875,6.80586171,13.38049537171875Q6.76018059,13.31212869171875,6.72871488,13.23616373171875Q6.69724917,13.16019878171875,6.68120813,13.07955482171875Q6.66516697,12.99891088171875,6.66516697,12.91668701171875Q6.66516697,12.83446314171875,6.68120813,12.75381920171875Q6.69724917,12.67317524171875,6.72871494,12.59721029171875Q6.76018065,12.52124533171875,6.80586177,12.45287865171875Q6.85154289,12.38451201171875,6.90968394,12.32637095171875Q6.967825,12.26822990171875,7.03619164,12.22254872171875Q7.10455832,12.176867601718751,7.18052328,12.14540189171875Q7.25648823,12.11393618171875,7.33713219,12.09789514171875Q7.41777613,12.08185398171875,7.5,12.08185398171875Q7.52503133,12.08185398171875,7.550017696,12.08335370171875L12.4499822,12.08335370171875Q12.4749684,12.08185398171875,12.5,12.08185398171875Q12.582223899999999,12.08185398171875,12.6628675,12.09789514171875Q12.7435112,12.11393618171875,12.8194761,12.14540195171875Q12.8954411,12.17686766171875,12.963807599999999,12.22254878171875Q13.032174600000001,12.26822990171875,13.090315799999999,12.32637095171875Q13.1484566,12.38451201171875,13.194137600000001,12.45287865171875Q13.2398186,12.52124533171875,13.271284600000001,12.59721029171875Q13.3027501,12.67317524171875,13.3187914,12.75381920171875Q13.3348327,12.83446314171875,13.3348331,12.91668701171875Q13.3348327,12.99891088171875,13.3187914,13.07955482171875Q13.3027501,13.16019878171875,13.271284600000001,13.23616373171875Q13.2398186,13.31212869171875,13.194137600000001,13.38049537171875Q13.1484566,13.44886201171875,13.090315799999999,13.50700307171875Q13.032174600000001,13.56514412171875,12.9638081,13.61082530171875Q12.8954411,13.656506421718749,12.8194761,13.68797213171875Q12.7435112,13.71943784171875,12.6628675,13.73547888171875Q12.582223899999999,13.75152004171875,12.5,13.75152004171875Q12.4749684,13.75152004171875,12.4499822,13.75002032171875L7.550017696,13.75002032171875Z" fill-rule="evenodd" fill="#FFFFFF" fill-opacity="1" style="mix-blend-mode:passthrough"/><path d="M7.550017696,16.25002032171875Q7.52503133,16.25152004171875,7.5,16.25152004171875Q7.41777613,16.25152004171875,7.33713219,16.23547888171875Q7.25648823,16.21943784171875,7.18052328,16.18797207171875Q7.10455832,16.15650636171875,7.03619164,16.11082524171875Q6.967825,16.06514412171875,6.90968394,16.00700307171875Q6.85154289,15.94886201171875,6.80586171,15.88049537171875Q6.76018059,15.81212869171875,6.72871488,15.73616373171875Q6.69724917,15.66019878171875,6.68120813,15.57955482171875Q6.66516697,15.49891088171875,6.66516697,15.41668701171875Q6.66516697,15.33446314171875,6.68120813,15.25381920171875Q6.69724917,15.17317524171875,6.72871494,15.09721029171875Q6.76018065,15.02124533171875,6.80586177,14.95287865171875Q6.85154289,14.88451201171875,6.90968394,14.82637095171875Q6.967825,14.76822990171875,7.03619164,14.72254872171875Q7.10455832,14.676867601718751,7.18052328,14.64540189171875Q7.25648823,14.61393618171875,7.33713219,14.59789514171875Q7.41777613,14.58185398171875,7.5,14.58185398171875Q7.52503133,14.58185398171875,7.550017696,14.58335370171875L10.3666489,14.58335370171875Q10.3916352,14.58185398171875,10.4166665,14.58185398171875Q10.4988904,14.58185398171875,10.5795343,14.59789514171875Q10.6601782,14.61393618171875,10.7361429,14.64540195171875Q10.812108,14.67686766171875,10.8804746,14.72254878171875Q10.9488413,14.76822990171875,11.0069823,14.82637095171875Q11.0651236,14.88451201171875,11.1108046,14.95287865171875Q11.1564856,15.02124533171875,11.1879513,15.09721029171875Q11.2194171,15.17317524171875,11.2354584,15.25381920171875Q11.2514994,15.33446314171875,11.2514997,15.41668701171875Q11.2514994,15.49891088171875,11.235458099999999,15.57955482171875Q11.2194171,15.66019878171875,11.1879513,15.73616373171875Q11.1564856,15.81212869171875,11.1108046,15.88049537171875Q11.0651236,15.94886201171875,11.0069823,16.00700307171875Q10.9488413,16.06514412171875,10.8804746,16.11082530171875Q10.812108,16.15650642171875,10.7361429,16.18797213171875Q10.6601782,16.21943784171875,10.5795341,16.23547888171875Q10.4988904,16.25152004171875,10.4166665,16.25152004171875Q10.3916352,16.25152004171875,10.3666489,16.25002032171875L7.550017696,16.25002032171875Z" fill-rule="evenodd" fill="#FFFFFF" fill-opacity="1" style="mix-blend-mode:passthrough"/></g></svg>