<svg xmlns="http://www.w3.org/2000/svg" xmlns:xlink="http://www.w3.org/1999/xlink" fill="none" version="1.1" width="20" height="20" viewBox="0 0 20 20"><defs><clipPath id="master_svg0_48_1227"><rect x="0" y="0" width="20" height="20" rx="0"/></clipPath></defs><g clip-path="url(#master_svg0_48_1227)"><path d="M9.1516647,1.456162C5.0807314,1.860369,1.8603832,5.0806475,1.4560878,9.1515722L0.84344268,9.1515722C0.37762216,9.1515722,0,9.5291939,0,9.9950151C0,10.460835,0.37762216,10.838457,0.84344268,10.838457L1.4550854,10.838457C1.8549165,14.913678,5.0769134,18.139437,9.1516647,18.544024L9.1516647,19.156775C9.1516647,19.622593,9.5292864,20.000216,9.9951077,20.000216C10.460928,20.000216,10.83855,19.622593,10.83855,19.156775L10.83855,18.544989C14.91744,18.144709,18.144724,14.917357,18.544914,10.838457L19.156559,10.838457C19.622377,10.838457,20,10.460835,20,9.9950151C20,9.5291939,19.622377,9.1515722,19.156559,9.1515722L18.543911,9.1515722C18.139252,5.0769691,14.913623,1.8551017,10.83855,1.455196L10.83855,0.84344262C10.83855,0.37762213,10.460928,0,9.9951077,0C9.5292864,0,9.1516647,0.37762213,9.1516647,0.84344262L9.1516647,1.456162ZM10.83855,16.298159L10.83855,16.848C13.984183,16.462807,16.462822,13.9841,16.847931,10.838457L16.297943,10.838457C15.832123,10.838457,15.4545,10.460835,15.4545,9.9950151C15.4545,9.5291939,15.832123,9.1515722,16.297943,9.1515722L16.846678,9.1515722C16.457373,6.0102892,13.980395,3.5369153,10.83855,3.1521852L10.83855,3.7020566C10.83855,4.1678772,10.460928,4.5454993,9.9951077,4.5454993C9.5292864,4.5454993,9.1516647,4.1678772,9.1516647,3.7020566L9.1516647,3.1533906C6.0140185,3.5421584,3.5421736,6.0139365,3.153321,9.1515722L3.7020566,9.1515722C4.1678772,9.1515722,4.5454993,9.5291939,4.5454993,9.9950151C4.5454993,10.460835,4.1678772,10.838457,3.7020566,10.838457L3.1520703,10.838457C3.5367322,13.980453,6.0102334,16.457558,9.1516647,16.846794L9.1516647,16.298159C9.1516647,15.832338,9.5292864,15.454717,9.9951077,15.454717C10.460928,15.454717,10.83855,15.832338,10.83855,16.298159ZM7.5272202,12.794046L6.499938,12.794046L6.499938,13.939512L8.6635952,13.939512Q8.6999598,12.984958,8.6999598,11.948584Q8.6999598,10.73039,8.6045046,9.7167435Q8.5090485,8.7030973,8.2726822,7.684906L9.0636005,7.1576281L9.0636005,5.7576141L7.9454064,6.5030761Q7.8454056,6.157618,7.6999493,5.7576141L6.418119,5.7576141Q6.7453947,6.6939869,6.890851,7.2303562L5.981751,7.8303618L5.981751,9.2303753L7.1817627,8.4303675Q7.3272185,9.1667385,7.3817644,9.6212883L5.981751,10.557661L5.981751,11.939493L7.4999475,10.930391Q7.5363116,11.466761,7.5363116,12.157677L7.5272202,12.794046ZM9.899971,8.1940012L8.9726896,8.1940012L8.9726896,9.1940107L14.17274,9.1940107L14.17274,8.1940012L13.245459,8.1940012L13.245459,7.339448L13.99092,7.339448L13.99092,6.339438L13.245459,6.339438L13.245459,5.7576141L12.099993,5.7576141L12.099993,6.339438L11.045438,6.339438L11.045438,5.7576141L9.899971,5.7576141L9.899971,6.339438L9.1545095,6.339438L9.1545095,7.339448L9.899971,7.339448L9.899971,8.1940012ZM12.099993,7.339448L12.099993,8.1940012L11.045438,8.1940012L11.045438,7.339448L12.099993,7.339448ZM13.80001,9.6758347L9.3454208,9.6758347L9.3454208,13.866785L13.80001,13.866785L13.80001,9.6758347ZM12.636361,10.694027L12.636361,11.330397L10.509068,11.330397L10.509068,10.694027L12.636361,10.694027ZM12.636361,12.203132L12.636361,12.848593L10.509068,12.848593L10.509068,12.203132L12.636361,12.203132Z" fill-rule="evenodd" fill="#FFFFFF" fill-opacity="1"/></g></svg>