<svg xmlns="http://www.w3.org/2000/svg" xmlns:xlink="http://www.w3.org/1999/xlink" fill="none" version="1.1" width="16" height="16" viewBox="0 0 16 16"><defs><clipPath id="master_svg0_68_017630"><rect x="-0.6666666865348816" y="-0.6666666865348816" width="17.333333373069763" height="17.333333373069763" rx="0"/></clipPath></defs><g clip-path="url(#master_svg0_68_017630)"><path d="M1.2765392100000001,2.242431640625Q1.2765392100000001,2.176947951625,1.28931445,2.1127225206249998Q1.3020896899999999,2.048497080625,1.32714921,1.987998040625Q1.35220873,1.9274990006250001,1.3885895000000001,1.8730512906249999Q1.42497027,1.818603630625,1.47127426,1.772299650625Q1.51757824,1.725995660625,1.57202592,1.6896148906250001Q1.6264736100000001,1.653234120625,1.68697265,1.628174600625Q1.74747169,1.6031150806249999,1.81169713,1.590339840625Q1.875922561,1.5775646006250001,1.94140625,1.5775646006250001Q2.006889939,1.5775646006250001,2.0711153700000002,1.590339840625Q2.13534081,1.6031150806249999,2.19583985,1.628174600625Q2.25633889,1.653234120625,2.3107866,1.6896148906250001Q2.36523426,1.725995660625,2.41153824,1.772299650625Q2.45784223,1.818603630625,2.494223,1.873051310625Q2.53060377,1.9274990006250001,2.55566329,1.987998040625Q2.58072281,2.048497080625,2.59349805,2.1127225206249998Q2.60627329,2.176947951625,2.60627329,2.242431640625L2.60807288,2.242431640625L2.60807288,4.000001640625L4.365652750000001,4.000001640625L4.365652750000001,4.001801340625Q4.43113635,4.001801340625,4.49536185,4.014576640625Q4.55958705,4.027351840625,4.620086150000001,4.0524113406249995Q4.680585150000001,4.0774707406249995,4.73503305,4.113851540625Q4.78948065,4.150232340625,4.83578465,4.196536340625Q4.88208865,4.242840240625,4.91846945,4.297287940625Q4.95485015,4.351735640625,4.97990965,4.4122345406250005Q5.00496915,4.472733740624999,5.01774455,4.536959140625Q5.03051995,4.601184840625001,5.03051995,4.666668440625Q5.03051995,4.732151940625,5.01774455,4.796377440625Q5.00496915,4.860602840625,4.97990965,4.921101840625Q4.95485015,4.981600740625,4.91846945,5.036048440625001Q4.88208865,5.090496040625,4.83578465,5.136800040624999Q4.78948065,5.183104040625,4.73503275,5.219484840625Q4.680585150000001,5.255865540625,4.620086150000001,5.280925040625Q4.55958725,5.3059845406249995,4.495362050000001,5.318759940625Q4.43113665,5.331535340625,4.365653050000001,5.331535340625L4.365652750000001,5.333334940625L1.94140625,5.333334940625Q1.875745326,5.333334940625,1.81134605,5.320524740625Q1.7469468,5.307714940625,1.68628401,5.282587540625Q1.62562123,5.257460140625,1.57102618,5.220980840625Q1.51643109,5.184501640625,1.47000182,5.138072540625Q1.4235725399999999,5.091643140625,1.38709331,5.037048140625Q1.35061407,4.982452840625,1.3254866600000001,4.921790140625Q1.3003593100000002,4.861127340625,1.2875495,4.796728340625Q1.27473962,4.732329140625,1.27473962,4.666668140625L1.27473962,2.242431640625L1.2765392100000001,2.242431640625Z" fill-rule="evenodd" fill="#333333" fill-opacity="1"/><path d="M4.280029750000001,1.6782666734375Q2.61503335,2.6595921234375,1.64725208,4.3321972234375L1.6488097,4.3330984234375Q1.55942094,4.4875879234375,1.55942094,4.6660743234375Q1.55942094,4.7315578234375,1.57219616,4.7957830234375Q1.5849714,4.8600085234375,1.61003092,4.9205074234375Q1.63509044,4.9810066234375,1.67147124,5.0354542234375Q1.7078520099999999,5.0899019234375,1.75415599,5.1362061234375Q1.80045995,5.1825099234375,1.85490763,5.2188906234375Q1.90935528,5.255271423437501,1.9698543499999999,5.2803311234375006Q2.0303533700000003,5.3053906234375,2.0945788,5.3181658234375Q2.1588043,5.330941223437501,2.22428799,5.330941223437501Q2.31173962,5.330941223437501,2.39621685,5.308326723437499Q2.4806940500000003,5.2857122234375,2.55645015,5.2420220234374995Q2.6322060499999997,5.1983318234375,2.69408755,5.136538023437501Q2.75596885,5.0747442234375,2.79976615,4.999050123437501L2.80132405,4.9999516234375Q3.59372715,3.6304505234375,4.95703815,2.8269342234375Q6.36001255,2.0000408934375002,7.99869825,2.0000410634375Q10.48398115,2.0000407134375,12.24133925,3.7573993234375Q13.99869825,5.5147581234375,13.99869825,8.0000410234375Q13.99869825,10.4853239234375,12.24133925,12.2426820234375Q10.48398115,14.0000410234375,7.99869825,14.0000410234375Q5.51341535,14.0000410234375,3.75605605,12.2426820234375Q1.99869752,10.4853239234375,1.9986971,8.0000410234375L1.9968982899999999,8.0000410234375Q1.9968982899999999,7.9345569234375,1.98412305,7.8703317234375Q1.9713478100000001,7.8061056234375,1.94628829,7.7456069234375Q1.92122877,7.6851077234375,1.8848479999999999,7.6306600234375Q1.84846723,7.5762124234375,1.80216324,7.5299086234375Q1.75585926,7.4836044234375,1.70141158,7.4472236234375Q1.6469638899999999,7.4108429234375,1.58646485,7.3857836234375Q1.52596581,7.3607244234375,1.46174037,7.3479490234375Q1.397514939,7.3351741234375,1.33203125,7.3351741234375Q1.266547561,7.3351741234375,1.20232213,7.3479490234375Q1.13809669,7.3607244234375,1.07759765,7.3857836234375Q1.0170986100000001,7.4108429234375,0.9626509,7.4472236234375Q0.90820324,7.4836044234375,0.86189926,7.5299086234375Q0.81559527,7.5762124234375,0.7792145,7.6306600234375Q0.74283373,7.6851077234375,0.71777421,7.7456069234375Q0.69271469,7.8061056234375,0.67993945,7.8703313234375Q0.66716421,7.9345569234375,0.66716421,8.0000410234375L0.66536379,8.0000410234375Q0.66536427,11.0376081234375,2.81324725,13.1854920234375Q4.961130649999999,15.3333740234375,7.99869825,15.3333740234375Q11.03626535,15.3333740234375,13.18414925,13.1854920234375Q15.33203125,11.0376081234375,15.33203125,8.0000410234375Q15.33203125,4.962473423437499,13.18414925,2.8145903234375Q11.03626535,0.6667073334375,7.99869825,0.6667077534375Q5.99632355,0.6667075734375,4.280029750000001,1.6782666734375Z" fill-rule="evenodd" fill="#333333" fill-opacity="1"/><path d="M8.66526693,4.00006642261L8.66706657,4.000066602399L8.66669428,7.7268186L11.2978716,10.357996L11.2965989,10.359268700000001Q11.3901138,10.4527836,11.4407239,10.5749669Q11.491334,10.6971502,11.491334,10.8294005Q11.491334,10.894884099999999,11.4785588,10.9591093Q11.4657834,11.0233345,11.4407239,11.0838337Q11.4156642,11.1443324,11.3792834,11.1987801Q11.3429027,11.2532277,11.2965987,11.2995319Q11.2502947,11.3458357,11.195847,11.3822165Q11.141399400000001,11.4185972,11.0809002,11.4436569Q11.0204015,11.4687161,10.9561758,11.481492Q10.8919506,11.494267,10.826467000000001,11.4942675Q10.6942167,11.4942675,10.5720332,11.4436574Q10.449850099999999,11.3930473,10.3563349,11.2995324L10.355062499999999,11.3008046L7.52859548,8.4743381Q7.43481511,8.3805571,7.3840676,8.2580247Q7.33332014,8.1354923,7.33333331,8.0028667L7.33373326,3.999933397601L7.33553284,3.999933577383Q7.3355394,3.934454076,7.34831941,3.87023386Q7.36109948,3.80601366,7.38616192,3.74552038Q7.41122437,3.68502706,7.44760621,3.63058513Q7.48398805,3.57614321,7.5302913799999995,3.52984452Q7.57659468,3.48354584,7.63104028,3.44716942Q7.68548584,3.41079301,7.74598163,3.38573664Q7.80647741,3.3606801600000002,7.8706989,3.34790659Q7.934920385,3.33513296,8.00039988756,3.33513296Q8.065883569,3.33513296,8.130109,3.3479082Q8.19433442,3.36068344,8.25483346,3.38574296Q8.31533247,3.41080248,8.36978018,3.44718325Q8.42422786,3.48356402,8.47053182,3.52986801Q8.51683581,3.57617199,8.55321658,3.63061967Q8.58959734,3.68506736,8.61465687,3.7455664Q8.63971639,3.80606544,8.65249169,3.8702908799999998Q8.66526687,3.934516311,8.66526693,4L8.66526693,4.00006642261Z" fill-rule="evenodd" fill="#333333" fill-opacity="1"/></g></svg>