<svg xmlns="http://www.w3.org/2000/svg" xmlns:xlink="http://www.w3.org/1999/xlink" fill="none" version="1.1" width="16" height="16" viewBox="0 0 16 16"><defs><clipPath id="master_svg0_2_0301"><rect x="-0.6650000214576721" y="-0.6650000214576721" width="17.330000042915344" height="17.330000042915344" rx="0"/></clipPath></defs><g clip-path="url(#master_svg0_2_0301)"><path d="M3.00168699171875,14.666666984558105L3.00168699171875,10.666666984558105Q3.00168705171875,10.601170204558105,3.01446485171875,10.536931934558105Q3.0272426617187502,10.472693654558105,3.05230719171875,10.412182514558106Q3.07737171171875,10.351671394558105,3.11375981171875,10.297212774558105Q3.1501478517187502,10.242754224558105,3.19646102171875,10.196440994558106Q3.24277425171875,10.150127824558105,3.29723283171875,10.113739724558105Q3.35169142171875,10.077351684558106,3.41220254171875,10.052287164558106Q3.47271368171875,10.027222634558106,3.53695196171875,10.014444824558105Q3.60119023171875,10.001667024558106,3.66668701171875,10.001666964558105L12.33335401171875,10.001666964558105Q12.39884951171875,10.001667024558106,12.46308801171875,10.014444824558105Q12.52732661171875,10.027222634558106,12.58783721171875,10.052287164558106Q12.64834781171875,10.077351684558106,12.70280651171875,10.113739784558106Q12.75726511171875,10.150127824558105,12.80357931171875,10.196440994558106Q12.84989171171875,10.242754224558105,12.88628001171875,10.297212804558106Q12.92266751171875,10.351671394558105,12.94773291171875,10.412182514558106Q12.97279741171875,10.472693654558105,12.98557571171875,10.536931934558105Q12.99835391171875,10.601170204558105,12.99835391171875,10.666666984558105L12.99835391171875,14.666666984558105Q12.99835391171875,14.732163384558106,12.98557471171875,14.796401984558106Q12.97279741171875,14.860640084558106,12.94773291171875,14.921151184558106Q12.92266751171875,14.981662284558105,12.88628001171875,15.036120884558105Q12.84989171171875,15.090579484558106,12.80357931171875,15.136892784558105Q12.75726511171875,15.183205584558106,12.70280651171875,15.219593484558105Q12.64834781171875,15.255981484558106,12.58783721171875,15.281046384558106Q12.52732661171875,15.306111384558106,12.46308801171875,15.318888684558106Q12.39884951171875,15.331666984558105,12.33335401171875,15.331666984558105L3.66668701171875,15.331666984558105Q3.60119023171875,15.331666984558105,3.53695196171875,15.318888684558106Q3.47271368171875,15.306111384558106,3.41220254171875,15.281046384558106Q3.35169142171875,15.255981484558106,3.29723280171875,15.219593484558105Q3.24277425171875,15.183205584558106,3.19646102171875,15.136892784558105Q3.1501478517187502,15.090579484558106,3.11375975171875,15.036120884558105Q3.07737171171875,14.981662284558105,3.05230719171875,14.921151184558106Q3.0272426617187502,14.860640084558106,3.01446485171875,14.796401984558106Q3.00168705171875,14.732163384558106,3.00168699171875,14.666666984558105ZM11.66835401171875,11.331667004558106L4.33168703171875,11.331667004558106L4.33168703171875,14.001666984558106L11.66835401171875,14.001666984558106L11.66835401171875,11.331667004558106Z" fill-rule="evenodd" fill="#666666" fill-opacity="1"/><path d="M0.66831296828125,6.6666669845581055L0.66831296828125,12.666666984558105Q0.66831302828125,12.732163384558106,0.68109082828125,12.796401984558106Q0.69386863828125,12.860640084558106,0.71893316828125,12.921151184558106Q0.74399768828125,12.981661784558106,0.78038578828125,13.036120384558107Q0.81677382828125,13.090578984558105,0.86308699828125,13.136892284558105Q0.90940022828125,13.183205584558106,0.96385880828125,13.219593084558106Q1.01831739828125,13.255981484558106,1.07882851828125,13.281045884558106Q1.13933965828125,13.306110384558107,1.20357793828125,13.318888684558106Q1.26781620828125,13.331666484558106,1.33331298828125,13.331666984558105L3.66014648828125,13.331666984558105Q3.72564318828125,13.331666484558106,3.78988118828125,13.318888684558106Q3.85411978828125,13.306110384558107,3.91463088828125,13.281045884558106Q3.97514198828125,13.255981484558106,4.02960058828125,13.219593084558106Q4.084059288281249,13.183205584558106,4.13037248828125,13.136892284558105Q4.17668578828125,13.090578984558105,4.21307368828125,13.036120384558107Q4.24946168828125,12.981661784558106,4.2745263882812505,12.921150684558105Q4.29959108828125,12.860639584558106,4.312368588281251,12.796401484558105Q4.32514668828125,12.732163384558106,4.32514668828125,12.666666984558105L4.32514668828125,11.331666984558105L11.67408098828125,11.331666984558105L11.67408098828125,12.666666984558105Q11.67407998828125,12.732163384558106,11.68685698828125,12.796401984558106Q11.69963598828125,12.860640084558106,11.72469998828125,12.921151184558106Q11.74976498828125,12.981661784558106,11.78615298828125,13.036120384558107Q11.82254098828125,13.090578984558105,11.86885498828125,13.136892284558105Q11.91516698828125,13.183205584558106,11.96962498828125,13.219593084558106Q12.02408398828125,13.255981484558106,12.08459598828125,13.281045884558106Q12.14510598828125,13.306110384558107,12.20934498828125,13.318888684558106Q12.27358298828125,13.331666484558106,12.33908098828125,13.331666984558105L14.66664698828125,13.331666984558105Q14.73214298828125,13.331666484558106,14.79638098828125,13.318888684558106Q14.86061898828125,13.306110384558107,14.92112998828125,13.281045884558106Q14.98164198828125,13.255981484558106,15.03609998828125,13.219593084558106Q15.09055898828125,13.183205584558106,15.13687298828125,13.136892284558105Q15.18318598828125,13.090578984558105,15.21957398828125,13.036120384558107Q15.25596098828125,12.981661784558106,15.28102598828125,12.921150684558105Q15.30608998828125,12.860639584558106,15.31886898828125,12.796401484558105Q15.33164698828125,12.732163384558106,15.33164798828125,12.666666984558105L15.33164798828125,6.6666669845581055Q15.33164698828125,6.601170204558105,15.31886898828125,6.536931934558106Q15.30608998828125,6.472693654558105,15.28102598828125,6.412182514558105Q15.25596098828125,6.351671394558106,15.21957398828125,6.297212774558106Q15.18318598828125,6.242754224558105,15.13687298828125,6.196440994558105Q15.09055898828125,6.150127824558106,15.03609998828125,6.113739724558106Q14.98164198828125,6.0773516845581055,14.92112998828125,6.052287164558106Q14.86061898828125,6.027222634558106,14.79638098828125,6.0144448245581055Q14.73214298828125,6.001667024558105,14.66664698828125,6.0016669645581056L1.33331298828125,6.0016669645581056Q1.26781620828125,6.001667024558105,1.20357793828125,6.0144448245581055Q1.13933965828125,6.027222634558106,1.07882851828125,6.052287164558106Q1.01831739828125,6.0773516845581055,0.96385877828125,6.113739784558105Q0.90940022828125,6.150127824558106,0.86308699828125,6.196440994558105Q0.81677382828125,6.242754224558105,0.78038572828125,6.2972128045581055Q0.74399768828125,6.351671394558106,0.71893316828125,6.412182514558105Q0.69386863828125,6.472693654558105,0.68109082828125,6.536931934558106Q0.66831302828125,6.601170204558105,0.66831296828125,6.6666669845581055ZM1.99831300828125,12.001666984558106L2.99514638828125,12.001666984558106L2.99514638828125,10.666666984558105Q2.99514628828125,10.601170084558106,3.00792408828125,10.536931784558107Q3.02070188828125,10.472693484558105,3.0457663882812502,10.412182084558106Q3.07083078828125,10.351670784558106,3.10721898828125,10.297212384558105Q3.14360718828125,10.242753784558106,3.1899203882812497,10.196440684558105Q3.23623348828125,10.150127384558106,3.29069208828125,10.113739284558106Q3.34515068828125,10.077351084558106,3.40566178828125,10.052286584558106Q3.46617318828125,10.027222384558105,3.53041148828125,10.014444784558105Q3.59464978828125,10.001666984558106,3.66014648828125,10.001666984558106L12.33908098828125,10.001666984558106Q12.40457698828125,10.001666984558106,12.46881398828125,10.014444784558105Q12.53305198828125,10.027222584558105,12.59356298828125,10.052286884558105Q12.65407398828125,10.077351284558105,12.70853198828125,10.113739484558106Q12.76299098828125,10.150127384558106,12.80930498828125,10.196440684558105Q12.85561798828125,10.242753784558106,12.89200598828125,10.297212384558105Q12.92839398828125,10.351670784558106,12.95345898828125,10.412182084558106Q12.97852298828125,10.472693484558105,12.99130098828125,10.536931784558107Q13.00407998828125,10.601170084558106,13.00407998828125,10.666666984558105L13.00407998828125,12.001666984558106L14.00164598828125,12.001666984558106L14.00164598828125,7.331667004558105L1.99831300828125,7.331667004558105L1.99831300828125,12.001666984558106Z" fill-rule="evenodd" fill="#666666" fill-opacity="1"/><path d="M2.66831290828125,6.666666992279053L2.66831290828125,1.3333334922790527Q2.66831290828125,1.2678367052790527,2.68109076828125,1.2035984222790528Q2.69386851828125,1.1393601422790527,2.71893310828125,1.0788490222790528Q2.74399763828125,1.0183378722790528,2.78038566828125,0.9638792822790527Q2.81677370828125,0.9094206722790528,2.86308693828125,0.8631074422790528Q2.90940016828125,0.8167942122790527,2.96385877828125,0.7804061722790527Q3.01831736828125,0.7440181422790527,3.07882851828125,0.7189536122790527Q3.13933963828125,0.6938890222790527,3.20357791828125,0.6811112722790528Q3.26781620128125,0.6683334122790527,3.33331298828125,0.6683334122790527L12.66664698828125,0.6683334122790527Q12.73214338828125,0.6683334122790527,12.79638198828125,0.6811112722790528Q12.86062048828125,0.6938890222790527,12.92113108828125,0.7189536122790527Q12.98164178828125,0.7440181422790527,13.03610038828125,0.7804061722790527Q13.09055898828125,0.8167942122790527,13.13687328828125,0.8631074422790528Q13.18318558828125,0.9094206722790528,13.21957398828125,0.9638792822790527Q13.25596238828125,1.0183378722790528,13.28102688828125,1.0788490222790528Q13.30609128828125,1.1393601422790527,13.31886958828125,1.2035984222790528Q13.33164788828125,1.2678367052790527,13.33164788828125,1.3333334922790527L13.33164788828125,6.666666992279053Q13.33164788828125,6.732163392279053,13.31886958828125,6.7964014922790525Q13.30609128828125,6.860639592279052,13.28102688828125,6.921150692279053Q13.25596238828125,6.981661792279053,13.21957398828125,7.036120392279053Q13.18318558828125,7.090579492279053,13.13687328828125,7.136892792279053Q13.09055898828125,7.183206092279053,13.03610038828125,7.219593992279052Q12.98164178828125,7.255981892279053,12.92113108828125,7.281046392279053Q12.86062048828125,7.306110892279053,12.79638098828125,7.318889092279052Q12.73214338828125,7.331667392279053,12.66664698828125,7.331667392279053L3.33331298828125,7.331667392279053Q3.26781620128125,7.331667392279053,3.20357791828125,7.318889092279052Q3.13933963828125,7.306110892279053,3.07882851828125,7.281046392279053Q3.01831736828125,7.255981892279053,2.96385877828125,7.219593992279052Q2.90940016828125,7.183206092279053,2.86308693828125,7.136892792279053Q2.81677370828125,7.090579492279053,2.78038566828125,7.036120892279053Q2.74399763828125,6.981661792279053,2.71893310828125,6.921150692279053Q2.69386851828125,6.860639592279052,2.68109076828125,6.7964014922790525Q2.66831290828125,6.732163392279053,2.66831290828125,6.666666992279053ZM12.00164698828125,1.9983335722790527L3.99831306828125,1.9983335722790527L3.99831306828125,6.001666992279053L12.00164698828125,6.001666992279053L12.00164698828125,1.9983335722790527Z" fill-rule="evenodd" fill="#666666" fill-opacity="1"/></g></svg>