<svg xmlns="http://www.w3.org/2000/svg" xmlns:xlink="http://www.w3.org/1999/xlink" fill="none" version="1.1" width="20" height="20" viewBox="0 0 20 20"><defs><clipPath id="master_svg0_21_924"><rect x="-0.8333333134651184" y="-0.8333333134651184" width="21.666666626930237" height="21.666666626930237" rx="0"/></clipPath></defs><g clip-path="url(#master_svg0_21_924)"><path d="M8.3336586875,5.001489524140625Q8.4158820875,5.001489524140625,8.4965262875,4.985448364140625Q8.5771703875,4.969407324140625,8.6531352875,4.937941554140625Q8.7291001875,4.906475844140625,8.7974667875,4.860794724140625Q8.8658332875,4.815113604140625,8.9239744875,4.756972554140625Q8.982115287500001,4.698831494140625,9.0277962875,4.630464854140625Q9.073477287500001,4.562098174140625,9.1049427875,4.486133214140625Q9.136408787499999,4.410168264140625,9.1524500875,4.329524304140625Q9.1684913875,4.248880364140625,9.1684918875,4.166656494140625Q9.1684913875,4.084432624140625,9.1524500875,4.003788684140625Q9.136408787499999,3.923144724140625,9.1049432875,3.847179774140625Q9.0734777875,3.7712148141406248,9.0277962875,3.702848134140625Q8.9821157875,3.634481494140625,8.9239749875,3.576340434140625Q8.8658332875,3.518199384140625,8.7974667875,3.472518204140625Q8.7291001875,3.426837084140625,8.6531352875,3.395371374140625Q8.5771703875,3.363905664140625,8.4965262875,3.347864624140625Q8.4158820875,3.331823464140625,8.3336586875,3.331823464140625Q8.3086266875,3.331823464140625,8.2836398875,3.333323244140625L2.5003254375,3.333323244140625Q1.8099698175,3.333323244140625,1.3218172175,3.821470764140625Q0.8336589375,4.309624064140625,0.8336589375,4.999989744140625L0.8336589375,15.833324494140625Q0.8336589375,16.523689494140626,1.3218173975,17.011841494140626Q1.8099699475,17.499988494140624,2.5003254375,17.499988494140624L17.5003251875,17.499988494140624Q18.1906911875,17.499988494140624,18.6788421875,17.011837494140625Q19.1669901875,16.523688494140625,19.1669901875,15.833322494140624L19.1669901875,14.841696494140624Q19.1684911875,14.816699494140625,19.1684911875,14.791656494140625Q19.1684911875,14.709432494140625,19.1524481875,14.628788494140625Q19.1364081875,14.548143494140625,19.1049421875,14.472178494140625Q19.0734751875,14.396213494140625,19.0277961875,14.327846494140625Q18.9821131875,14.259479494140624,18.9239731875,14.201339494140624Q18.8658311875,14.143197994140625,18.7974641875,14.097516994140625Q18.7290971875,14.051835994140625,18.6531331875,14.020370494140625Q18.5771671875,13.988904994140626,18.4965251875,13.972864194140625Q18.4158821875,13.956823394140624,18.3336581875,13.956823394140624Q18.2514341875,13.956823394140624,18.1707901875,13.972864194140625Q18.0901451875,13.988904994140626,18.0141791875,14.020370494140625Q17.9382131875,14.051835994140625,17.8698461875,14.097516994140625Q17.8014791875,14.143197994140625,17.7433391875,14.201339494140624Q17.6851981875,14.259479494140624,17.639518187500002,14.327846494140625Q17.5938361875,14.396212494140626,17.5623711875,14.472177494140626Q17.5309061875,14.548143494140625,17.5148651875,14.628788494140625Q17.4988251875,14.709432494140625,17.4988251875,14.791656494140625Q17.4988251875,14.816691494140626,17.5003251875,14.841681494140625L17.5003251875,15.833323494140625L2.5003254375,15.833324494140625L2.5003254375,4.999989744140625L8.2836398875,4.999989744140625Q8.3086266875,5.001489524140625,8.3336586875,5.001489524140625Z" fill-rule="evenodd" fill="#FFFFFF" fill-opacity="1" style="mix-blend-mode:passthrough"/><path d="M4.2170098835,10.416676815859375Q4.1920235175,10.418176535859375,4.1669921875,10.418176535859375Q4.0847683175,10.418176535859375,4.0041243775,10.402135375859375Q3.9234804175,10.386094335859376,3.8475154675,10.354628565859375Q3.7715505074999998,10.323162855859374,3.7031838275,10.277481735859375Q3.6348171875,10.231800615859376,3.5766761275,10.173659565859374Q3.5185350775,10.115518505859376,3.4728538975,10.047151865859375Q3.4271727775,9.978785185859374,3.3957070675,9.902820225859376Q3.3642413575,9.826855275859375,3.3482003175,9.746211315859375Q3.3321591575,9.665567375859375,3.3321591575,9.583343505859375Q3.3321591575,9.501119635859375,3.3482003175,9.420475695859375Q3.3642413575,9.339831735859375,3.3957071275,9.263866785859374Q3.4271728375,9.187901825859376,3.4728539575,9.119535145859375Q3.5185350775,9.051168505859374,3.5766761275,8.993027445859376Q3.6348171875,8.934886395859374,3.7031838275,8.889205215859375Q3.7715505074999998,8.843524095859376,3.8475154675,8.812058385859375Q3.9234804175,8.780592675859374,4.0041243775,8.764551635859375Q4.0847683175,8.748510475859375,4.1669921875,8.748510475859375Q4.1920235175,8.748510475859375,4.2170098835,8.750010195859375L7.4503078875,8.750010195859375Q7.4752940875,8.748510475859375,7.5003254875,8.748510475859375Q7.5825490875,8.748510475859375,7.6631929875,8.764551635859375Q7.7438368875000005,8.780592675859374,7.819801787499999,8.812058445859375Q7.8957666875,8.843524155859376,7.9641334875,8.889205275859375Q8.0325002875,8.934886395859374,8.0906412875,8.993027445859376Q8.1487822875,9.051168505859374,8.1944632875,9.119535145859375Q8.2401442875,9.187901825859376,8.2716102875,9.263866785859374Q8.3030757875,9.339831735859375,8.3191170875,9.420475695859375Q8.3351583875,9.501119635859375,8.3351583875,9.583343505859375Q8.3351583875,9.665567375859375,8.3191175875,9.746211315859375Q8.3030757875,9.826855275859375,8.2716102875,9.902820225859376Q8.2401442875,9.978785185859374,8.1944632875,10.047151865859375Q8.1487822875,10.115518505859376,8.090641487500001,10.173659565859374Q8.0325002875,10.231800615859376,7.9641337875,10.277481795859375Q7.8957666875,10.323162915859374,7.819801787499999,10.354628625859375Q7.7438368875000005,10.386094335859376,7.6631929875,10.402135375859375Q7.5825490875,10.418176535859375,7.5003254875,10.418176535859375Q7.4752940875,10.418176535859375,7.4503078875,10.416676815859375L4.2170098835,10.416676815859375Z" fill-rule="evenodd" fill="#FFFFFF" fill-opacity="1" style="mix-blend-mode:passthrough"/><path d="M4.2170098835,13.749989804140625Q4.1920235175,13.751489524140625,4.1669921875,13.751489524140625Q4.0847683175,13.751489524140625,4.0041243775,13.735448364140625Q3.9234804175,13.719407324140626,3.8475154675,13.687941554140625Q3.7715505074999998,13.656475844140624,3.7031838275,13.610794724140625Q3.6348171875,13.565113604140626,3.5766761275,13.506972554140624Q3.5185350775,13.448831494140626,3.4728538975,13.380464854140625Q3.4271727775,13.312098174140624,3.3957070675,13.236133214140626Q3.3642413575,13.160168264140625,3.3482003175,13.079524304140625Q3.3321591575,12.998880364140625,3.3321591575,12.916656494140625Q3.3321591575,12.834432624140625,3.3482003175,12.753788684140625Q3.3642413575,12.673144724140625,3.3957071275,12.597179774140624Q3.4271728375,12.521214814140626,3.4728539575,12.452848134140625Q3.5185350775,12.384481494140624,3.5766761275,12.326340434140626Q3.6348171875,12.268199384140624,3.7031838275,12.222518204140625Q3.7715505074999998,12.176837084140626,3.8475154675,12.145371374140625Q3.9234804175,12.113905664140624,4.0041243775,12.097864624140625Q4.0847683175,12.081823464140625,4.1669921875,12.081823464140625Q4.1920235175,12.081823464140625,4.2170098835,12.083323184140625L14.1169747875,12.083323184140625Q14.1419610875,12.081823464140625,14.1669921875,12.081823464140625Q14.2492161875,12.081823464140625,14.3298591875,12.097864624140625Q14.4105021875,12.113905664140624,14.4864671875,12.145371434140625Q14.5624311875,12.176837144140626,14.6307981875,12.222518264140625Q14.6991651875,12.268199384140624,14.7573071875,12.326340434140626Q14.8154491875,12.384481494140624,14.8611301875,12.452848134140625Q14.9068111875,12.521214814140626,14.9382761875,12.597179774140624Q14.9697431875,12.673144724140625,14.9857841875,12.753788684140625Q15.0018251875,12.834432624140625,15.0018251875,12.916656494140625Q15.0018251875,12.998880364140625,14.9857831875,13.079524304140625Q14.9697431875,13.160168264140625,14.9382761875,13.236133214140626Q14.9068111875,13.312098174140624,14.8611301875,13.380464854140625Q14.8154491875,13.448831494140626,14.7573081875,13.506972554140624Q14.6991661875,13.565113604140626,14.6307991875,13.610794784140625Q14.5624321875,13.656475904140624,14.4864671875,13.687941614140625Q14.4105021875,13.719407324140626,14.3298591875,13.735448364140625Q14.2492161875,13.751489524140625,14.1669921875,13.751489524140625Q14.1419610875,13.751489524140625,14.1169747875,13.749989804140625L4.2170098835,13.749989804140625Z" fill-rule="evenodd" fill="#FFFFFF" fill-opacity="1" style="mix-blend-mode:passthrough"/><ellipse cx="14.1669921875" cy="6.666656494140625" rx="2.083333343267441" ry="2.083333343267441" fill-opacity="0" stroke-opacity="1" stroke="#FFFFFF" fill="none" stroke-width="1.6666666269302368" stroke-linecap="ROUND" stroke-linejoin="round" style="mix-blend-mode:passthrough"/><path d="M11.40763426,11.002114794140624Q11.28993183,11.121762494140626,11.1351347,11.186625994140625Q10.98033755,11.251489594140626,10.8125,11.251489594140626Q10.73027613,11.251489594140626,10.64963219,11.235448394140626Q10.56898823,11.219407094140625,10.49302328,11.187941594140625Q10.41705832,11.156475794140626,10.34869164,11.110794694140624Q10.280325,11.065113594140625,10.22218394,11.006972594140624Q10.16404289,10.948831294140625,10.11836171,10.880464794140625Q10.072680590000001,10.812097994140625,10.04121488,10.736133094140625Q10.00974917,10.660168194140624,9.99370813,10.579524294140626Q9.97766697,10.498880394140626,9.97766697,10.416656494140625Q9.97766697,10.322659294140625,9.99856901,10.231015694140625Q10.01947105,10.139372054140624,10.06022835,10.054670934140624Q10.10098577,9.969969754140624,10.15955752,9.896452424140625Q10.21812928,9.822935104140624,10.29158252,9.764283004140625Q11.08807528,9.050583374140626,11.8687677,8.729296504140626Q12.83094,8.333323304140626,14.1665423,8.333323304140626Q15.6605368,8.333323184140625,17.0200148,9.206382133140625Q18.3389268,10.053389194140625,19.0503359,11.413640694140625Q19.168083199999998,11.611160994140626,19.168083199999998,11.841114494140625Q19.168083199999998,11.923338394140625,19.1520424,12.003982494140626Q19.1360016,12.084626194140625,19.1045351,12.160591094140624Q19.0730696,12.236556094140624,19.027388600000002,12.304922594140624Q18.981706600000003,12.373289594140624,18.9235659,12.431430594140625Q18.8654251,12.489571594140624,18.7970576,12.535252594140625Q18.7286911,12.580933594140625,18.6527262,12.612399294140625Q18.5767612,12.643865094140626,18.496117599999998,12.659906194140625Q18.4154735,12.675947394140625,18.33325,12.675947694140625Q18.2121267,12.675947394140625,18.095998299999998,12.641525494140625Q17.9798698,12.607103794140626,17.8783121,12.541098794140625Q17.7767544,12.475093794140625,17.6981416,12.382948894140625Q17.6195292,12.290803694140624,17.5703454,12.180117094140625Q17.0633759,11.214985394140625,16.1194029,10.608764294140625Q15.1714535,9.999989804140625,14.1665423,9.999989864140625Q13.1604829,9.999989864140625,12.5030558,10.270547994140625Q11.9885027,10.482307694140625,11.40763426,11.002114794140624Z" fill-rule="evenodd" fill="#FFFFFF" fill-opacity="1" style="mix-blend-mode:passthrough"/></g></svg>