<svg xmlns="http://www.w3.org/2000/svg" xmlns:xlink="http://www.w3.org/1999/xlink" fill="none" version="1.1" width="16" height="16" viewBox="0 0 16 16"><defs><clipPath id="master_svg0_68_017622"><rect x="-0.6666666865348816" y="-0.6666666865348816" width="17.333333373069763" height="17.333333373069763" rx="0"/></clipPath></defs><g clip-path="url(#master_svg0_68_017622)"><path d="M9.00310171,2.3333740234375Q9.00310171,2.2678903344375,9.01587695,2.2036649034374998Q9.02865219,2.1394394634375,9.05371171,2.0789404234375Q9.07877123,2.0184413834375,9.115152,1.9639936734374999Q9.15153277,1.9095460134375,9.19783676,1.8632420334375Q9.24414074,1.8169380434375,9.29858842,1.7805572734375001Q9.35303611,1.7441765034375,9.41353515,1.7191169834375Q9.47403419,1.6940574634374999,9.53825963,1.6812822234375Q9.602485061,1.6685069834375001,9.66796875,1.6685069834375001Q9.733452439,1.6685069834375001,9.79767787,1.6812822234375Q9.86190331,1.6940574634374999,9.92240235,1.7191169834375Q9.98290139,1.7441765034375,10.0373491,1.7805572734375001Q10.09179676,1.8169380434375,10.13810074,1.8632420334375Q10.18440473,1.9095460134375,10.2207855,1.9639936934375Q10.25716627,2.0184413834375,10.28222579,2.0789404234375Q10.30728531,2.1394394634375,10.32006055,2.2036649034374998Q10.33283579,2.2678903344375,10.33283579,2.3333740234375L10.33463544,2.3333740234375L10.33463544,5.6667073234375L13.66796875,5.6667073234375L13.66796875,5.6685071234375Q13.73345235,5.6685071234375,13.79767755,5.6812820234375Q13.86190315,5.6940574234375,13.922401950000001,5.7191167234375Q13.982900650000001,5.7441764234375,14.03734875,5.7805571234375Q14.09179595,5.8169379234375,14.13810015,5.8632421234375Q14.184403849999999,5.9095459234375,14.220784649999999,5.9639935234375Q14.257165449999999,6.018441223437501,14.28222515,6.0789401234375Q14.30728435,6.1394391234375,14.320060250000001,6.203664823437499Q14.332835150000001,6.2678902234375,14.33283565,6.3333740234375Q14.332835150000001,6.3988576234375,14.320060250000001,6.4630828234375Q14.30728435,6.5273084234375,14.28222515,6.5878072234375Q14.257165449999999,6.6483059234375,14.220784649999999,6.7027540234375Q14.184403849999999,6.7572012234375,14.13810015,6.8035054234375Q14.09179595,6.8498091234375,14.03734875,6.8861899234375Q13.982900650000001,6.9225707234375,13.922401950000001,6.9476304234375Q13.86190315,6.9726896234375,13.79767795,6.9854655234375Q13.73345235,6.9982404234375,13.66796875,6.9982409234375L13.66796875,7.0000405234375L9.66796875,7.0000405234375Q9.602307819,7.0000400234375,9.53790855,6.9872303234375Q9.47350928,6.9744205234375,9.41284651,6.9492931234375Q9.3521837,6.9241657234375,9.29758865,6.8876867234375Q9.24299356,6.8512072234375,9.19656426,6.8047781234375Q9.15013498,6.7583489234375,9.11365575,6.7037539234375Q9.07717645,6.6491585234375,9.05204916,6.5884957234375Q9.02692175,6.5278330234375,9.01411194,6.4634342234375Q9.00130212,6.3990345234375,9.00130206,6.3333740234375L9.00130206,2.3333740234375L9.00310171,2.3333740234375Z" fill-rule="evenodd" fill="#333333" fill-opacity="1"/><path d="M5.66536455,10.3332926665625L5.66536455,13.6666259765625L5.66716435,13.6666259765625Q5.66716435,13.7321095765625,5.67993925,13.7963347765625Q5.69271445,13.8605603765625,5.71777395,13.921059176562501Q5.74283365,13.981557876562501,5.77921435,14.0360059765625Q5.81559515,14.0904531765625,5.86189935,14.1367573765625Q5.90820315,14.183061076562499,5.96265075,14.219441876562499Q6.017098450000001,14.255822676562499,6.07759735,14.2808823765625Q6.13809635,14.3059415765625,6.202322049999999,14.318717476562501Q6.26654745,14.331492376562501,6.33203125,14.3314928765625Q6.39751485,14.331492376562501,6.46174005,14.318717476562501Q6.52596565,14.3059415765625,6.58646445,14.2808823765625Q6.64696315,14.255822676562499,6.70141125,14.219441876562499Q6.75585845,14.183061076562499,6.80216265,14.1367573765625Q6.84846635,14.0904531765625,6.88484715,14.0360059765625Q6.92122795,13.981557876562501,6.94628765,13.921059176562501Q6.97134685,13.8605603765625,6.98412275,13.7963351765625Q6.99689765,13.7321095765625,6.99689815,13.6666259765625L6.99869775,13.6666259765625L6.99869775,9.6666259765625Q6.99869725,9.6009650455625,6.98588755,9.5365657765625Q6.97307775,9.4721665065625,6.94795035,9.4115037365625Q6.92282295,9.3508409265625,6.88634395,9.2962458765625Q6.84986445,9.2416507865625,6.80343535,9.1952214865625Q6.75700615,9.1487922065625,6.70241115,9.1123129765625Q6.64781575,9.0758336765625,6.58715295,9.0507063865625Q6.52649025,9.0255789765625,6.46209145,9.0127691665625Q6.39769175,8.9999593465625,6.33203125,8.9999592865625L2.33203125,8.9999592865625L2.33203125,9.0017589365625Q2.266547561,9.0017589365625,2.2023221299999998,9.0145341765625Q2.13809669,9.0273094165625,2.07759765,9.0523689365625Q2.01709861,9.0774284565625,1.9626508999999999,9.1138092265625Q1.90820324,9.1501899965625,1.86189926,9.1964939865625Q1.81559527,9.2427979665625,1.7792145000000001,9.2972456465625Q1.74283373,9.3516933365625,1.71777421,9.4121923765625Q1.6927146899999999,9.4726914165625,1.67993945,9.5369168565625Q1.6671642100000001,9.6011422875625,1.6671642100000001,9.6666259765625Q1.6671642100000001,9.7321096655625,1.67993945,9.7963350965625Q1.6927146899999999,9.8605605365625,1.71777421,9.9210595765625Q1.74283373,9.9815586165625,1.7792145000000001,10.0360063265625Q1.81559527,10.0904539865625,1.86189926,10.1367579665625Q1.90820324,10.1830619565625,1.96265092,10.2194427265625Q2.01709861,10.2558234965625,2.07759765,10.2808830165625Q2.13809669,10.3059425365625,2.2023221299999998,10.3187177765625Q2.266547561,10.3314930165625,2.33203125,10.3314930165625L2.33203125,10.3332926665625L5.66536455,10.3332926665625Z" fill-rule="evenodd" fill="#333333" fill-opacity="1"/><path d="M14.47143415,2.47013193Q14.56494905,2.37661684,14.61555865,2.25443354Q14.66616915,2.1322502500000002,14.66616915,2Q14.66616915,1.934516311,14.65339375,1.87029088Q14.64061835,1.80606544,14.61555865,1.7455664Q14.59049895,1.6850673600000001,14.55411815,1.6306196499999999Q14.51773735,1.57617199,14.47143365,1.52986801Q14.42512945,1.48356402,14.37068175,1.4471832500000001Q14.31623415,1.41080248,14.25573535,1.38574296Q14.19523625,1.3606834399999999,14.13101105,1.3479082Q14.066785849999999,1.3351329600000001,14.00130225,1.3351329600000001Q13.86905195,1.3351329600000001,13.746868150000001,1.38574296Q13.62468525,1.43635291,13.53117035,1.5298679499999999L13.52989795,1.52859551L9.19656426,5.8619292000000005L9.1978367,5.8632016Q9.10432166,5.956716500000001,9.05371171,6.0788994Q9.00310171,6.2010832,9.00310171,6.3333335Q9.00310171,6.3988171,9.01587695,6.4630423Q9.02865219,6.5272675,9.05371171,6.5877666Q9.07877123,6.6482654,9.115152,6.702713Q9.15153277,6.7571607,9.19783676,6.8034649Q9.24414074,6.8497686,9.29858842,6.8861494Q9.35303611,6.9225302,9.41353515,6.9475899Q9.47403419,6.9726496,9.53825963,6.985425Q9.602485061,6.9982004,9.66796875,6.9982004Q9.800219,6.9982004,9.92240229,6.9475899Q10.04458559,6.8969803,10.13810068,6.8034654L10.13937324,6.804738L14.47270675,2.47140449L14.47143415,2.47013193Z" fill-rule="evenodd" fill="#333333" fill-opacity="1"/><path d="M6.8034654,10.1367579065625Q6.8969803,10.0432428165625,6.9475899,9.9210595165625Q6.9982004,9.7988762265625,6.9982004,9.6666259765625Q6.9982004,9.6011422875625,6.985425,9.5369168565625Q6.9726496,9.4726914165625,6.9475899,9.4121923765625Q6.9225302,9.3516933365625,6.8861494,9.2972456265625Q6.8497686,9.2427979665625,6.8034649,9.1964939865625Q6.7571607,9.1501899965625,6.702713,9.1138092265625Q6.6482654,9.0774284565625,6.5877666,9.0523689365625Q6.5272675,9.0273094165625,6.4630423,9.0145341765625Q6.3988171,9.0017589365625,6.3333335,9.0017589365625Q6.2010832,9.0017589365625,6.0788994,9.0523689365625Q5.956716500000001,9.1029788865625,5.8632016,9.1964939265625L5.8619292000000005,9.1952214865625L1.52859551,13.5285551765625L1.5298679499999999,13.5298275765625Q1.43635291,13.6233424765625,1.38574296,13.745525376562501Q1.3351329600000001,13.8677091765625,1.3351329600000001,13.9999594765625Q1.3351329600000001,14.065443076562499,1.3479082,14.1296682765625Q1.3606834399999999,14.1938934765625,1.38574296,14.2543925765625Q1.41080248,14.3148913765625,1.4471832500000001,14.3693389765625Q1.48356402,14.4237866765625,1.52986801,14.4700908765625Q1.57617199,14.5163945765625,1.63061967,14.5527753765625Q1.6850673600000001,14.5891561765625,1.7455664,14.6142158765625Q1.80606544,14.6392755765625,1.87029088,14.6520509765625Q1.934516311,14.6648263765625,2,14.6648263765625Q2.1322502500000002,14.6648263765625,2.25443354,14.6142158765625Q2.37661684,14.5636062765625,2.47013193,14.4700913765625L2.47140449,14.4713639765625L6.804738,10.1380304665625L6.8034654,10.1367579065625Z" fill-rule="evenodd" fill="#333333" fill-opacity="1"/></g></svg>