<svg xmlns="http://www.w3.org/2000/svg" xmlns:xlink="http://www.w3.org/1999/xlink" fill="none" version="1.1" width="16" height="16" viewBox="0 0 16 16"><defs><clipPath id="master_svg0_68_018993"><rect x="-0.6666666865348816" y="-0.6666666865348816" width="17.333333373069763" height="17.333333373069763" rx="0"/></clipPath></defs><g clip-path="url(#master_svg0_68_018993)"><path d="M13.3333333,2.66666669L13.3333333,6L13.3351331,6Q13.3351331,6.0654836,13.347908,6.1297088Q13.3606832,6.1939344,13.3857427,6.2544332Q13.4108024,6.3149319,13.4471831,6.36938Q13.4835639,6.4238272,13.5298681,6.4701314Q13.5761719,6.5164351,13.6306195,6.5528159Q13.6850672,6.5891967,13.7455661,6.6142564Q13.8060651,6.6393156,13.8702908,6.6520915Q13.934516200000001,6.6648664,14,6.6648669Q14.0654836,6.6648664,14.1297088,6.6520915Q14.1939344,6.6393156,14.254433200000001,6.6142564Q14.314931900000001,6.5891967,14.36938,6.5528159Q14.4238272,6.5164351,14.4701314,6.4701314Q14.516435099999999,6.4238272,14.552815899999999,6.36938Q14.589196699999999,6.3149319,14.6142564,6.2544332Q14.6393156,6.1939344,14.652091500000001,6.1297092Q14.664866400000001,6.0654836,14.6648669,6L14.6666665,6L14.6666665,2Q14.666666,1.934339069,14.653856300000001,1.8699398Q14.6410465,1.80554053,14.6159191,1.74487776Q14.5907917,1.6842149499999999,14.5543127,1.6296199Q14.5178332,1.57502481,14.4714041,1.52859551Q14.424974899999999,1.48216623,14.3703799,1.445687Q14.3157845,1.4092077,14.2551217,1.3840804100000001Q14.194459,1.358953,14.130060199999999,1.34614319Q14.0656605,1.33333337,14,1.33333331L10,1.33333331L10,1.3351329600000001Q9.934516311,1.3351329600000001,9.87029088,1.3479082Q9.80606544,1.3606834399999999,9.7455664,1.38574296Q9.68506736,1.41080248,9.63061965,1.4471832500000001Q9.57617199,1.48356402,9.52986801,1.52986801Q9.48356402,1.57617199,9.44718325,1.63061967Q9.41080248,1.6850673600000001,9.38574296,1.7455664Q9.36068344,1.80606544,9.3479082,1.87029088Q9.33513296,1.934516311,9.33513296,2Q9.33513296,2.065483689,9.3479082,2.1297091200000002Q9.36068344,2.19393456,9.38574296,2.2544336Q9.41080248,2.31493264,9.44718325,2.36938035Q9.48356402,2.42382801,9.52986801,2.47013199Q9.57617199,2.51643598,9.63061967,2.55281675Q9.68506736,2.58919752,9.7455664,2.61425704Q9.80606544,2.63931656,9.87029088,2.6520918Q9.934516311,2.66486704,10,2.66486704L10,2.66666669L13.3333333,2.66666669Z" fill-rule="evenodd" fill="#333333" fill-opacity="1" style="mix-blend-mode:passthrough"/><path d="M1.3351329600000001,10Q1.3351329600000001,9.934516311,1.3479082,9.87029088Q1.3606834399999999,9.80606544,1.38574296,9.7455664Q1.41080248,9.68506736,1.4471832500000001,9.63061965Q1.48356402,9.57617199,1.52986801,9.52986801Q1.57617199,9.48356402,1.63061967,9.44718325Q1.6850673600000001,9.41080248,1.7455664,9.38574296Q1.80606544,9.36068344,1.87029088,9.3479082Q1.934516311,9.33513296,2,9.33513296Q2.065483689,9.33513296,2.1297091200000002,9.3479082Q2.19393456,9.36068344,2.2544336,9.38574296Q2.31493264,9.41080248,2.36938035,9.44718325Q2.42382801,9.48356402,2.47013199,9.52986801Q2.51643598,9.57617199,2.55281675,9.63061967Q2.58919752,9.68506736,2.61425704,9.7455664Q2.63931656,9.80606544,2.6520918,9.87029088Q2.66486704,9.934516311,2.66486704,10L2.66666669,10L2.66666669,13.3333333L6,13.3333333L6,13.3351331Q6.0654836,13.3351331,6.1297088,13.347908Q6.1939344,13.3606834,6.2544332,13.3857427Q6.3149319,13.4108024,6.36938,13.4471831Q6.4238272,13.4835639,6.4701314,13.5298681Q6.5164351,13.5761719,6.5528159,13.6306195Q6.5891967,13.6850672,6.6142564,13.7455661Q6.6393156,13.8060651,6.6520915,13.8702908Q6.6648664,13.934516200000001,6.6648669,14Q6.6648664,14.0654836,6.6520915,14.1297088Q6.6393156,14.1939344,6.6142564,14.254433200000001Q6.5891967,14.314931900000001,6.5528159,14.36938Q6.5164351,14.4238272,6.4701314,14.4701314Q6.4238272,14.516435099999999,6.36938,14.552815899999999Q6.3149319,14.589196699999999,6.2544332,14.6142564Q6.1939344,14.6393156,6.1297092,14.652091500000001Q6.0654836,14.664866400000001,6,14.6648669L6,14.6666665L2,14.6666665Q1.934339069,14.666666,1.8699398,14.653856300000001Q1.80554053,14.6410465,1.74487776,14.6159191Q1.6842149499999999,14.5907917,1.6296199,14.5543127Q1.57502481,14.5178332,1.52859551,14.4714041Q1.48216623,14.424974899999999,1.445687,14.3703799Q1.4092077,14.3157845,1.3840804100000001,14.2551217Q1.358953,14.194459,1.34614319,14.130060199999999Q1.33333337,14.0656605,1.33333331,14L1.33333331,10L1.3351329600000001,10Z" fill-rule="evenodd" fill="#333333" fill-opacity="1" style="mix-blend-mode:passthrough"/><path d="M14.469481025,2.47013193Q14.562995925,2.37661684,14.613605525,2.25443354Q14.664216025,2.1322502500000002,14.664216025,2Q14.664216025,1.934516311,14.651440625,1.87029088Q14.638665225,1.80606544,14.613605525,1.7455664Q14.588545825,1.6850673600000001,14.552165025,1.6306196499999999Q14.515784225,1.57617199,14.469480525,1.52986801Q14.423176325,1.48356402,14.368728625,1.4471832500000001Q14.314281025,1.41080248,14.253782225,1.38574296Q14.193283125,1.3606834399999999,14.129057925,1.3479082Q14.064832724999999,1.3351329600000001,13.999349125,1.3351329600000001Q13.867098825,1.3351329600000001,13.744915025000001,1.38574296Q13.622732125,1.43635291,13.529217225,1.5298679499999999L13.527944825,1.52859551L9.194611135,5.8619292000000005L9.195883575,5.8632016Q9.102368535,5.956716500000001,9.051758585,6.0788994Q9.001148585,6.2010832,9.001148585,6.3333335Q9.001148585,6.3988171,9.013923825,6.4630423Q9.026699065,6.5272675,9.051758585,6.5877666Q9.076818105,6.6482654,9.113198875,6.702713Q9.149579645,6.7571607,9.195883635,6.8034649Q9.242187615,6.8497686,9.296635295,6.8861494Q9.351082985,6.9225302,9.411582025,6.9475899Q9.472081065,6.9726496,9.536306505,6.985425Q9.600531936,6.9982004,9.666015625,6.9982004Q9.798265875,6.9982004,9.920449165,6.9475899Q10.042632465,6.8969803,10.136147555,6.8034654L10.137420115,6.804738L14.470753625,2.47140449L14.469481025,2.47013193Z" fill-rule="evenodd" fill="#333333" fill-opacity="1" style="mix-blend-mode:passthrough"/><path d="M6.8034654,10.13663583625Q6.8969803,10.04312074625,6.9475899,9.92093744625Q6.9982004,9.79875415625,6.9982004,9.66650390625Q6.9982004,9.60102021725,6.985425,9.53679478625Q6.9726496,9.47256934625,6.9475899,9.41207030625Q6.9225302,9.35157126625,6.8861494,9.29712355625Q6.8497686,9.24267589625,6.8034649,9.19637191625Q6.7571607,9.15006792625,6.702713,9.11368715625Q6.6482654,9.07730638625,6.5877666,9.05224686625Q6.5272675,9.02718734625,6.4630423,9.01441210625Q6.3988171,9.00163686625,6.3333335,9.00163686625Q6.2010832,9.00163686625,6.0788994,9.05224686625Q5.956716500000001,9.10285681625,5.8632016,9.19637185625L5.8619292000000005,9.19509941625L1.52859551,13.52843310625L1.5298679499999999,13.52970550625Q1.43635291,13.62322040625,1.38574296,13.745403306250001Q1.3351329600000001,13.86758710625,1.3351329600000001,13.99983740625Q1.3351329600000001,14.065321006249999,1.3479082,14.12954620625Q1.3606834399999999,14.19377140625,1.38574296,14.25427050625Q1.41080248,14.31476930625,1.4471832500000001,14.36921690625Q1.48356402,14.42366460625,1.52986801,14.46996880625Q1.57617199,14.51627250625,1.63061967,14.55265330625Q1.6850673600000001,14.58903410625,1.7455664,14.61409380625Q1.80606544,14.63915350625,1.87029088,14.65192890625Q1.934516311,14.66470430625,2,14.66470430625Q2.1322502500000002,14.66470430625,2.25443354,14.61409380625Q2.37661684,14.56348420625,2.47013193,14.46996930625L2.47140449,14.47124190625L6.804738,10.13790839625L6.8034654,10.13663583625Z" fill-rule="evenodd" fill="#333333" fill-opacity="1" style="mix-blend-mode:passthrough"/></g></svg>