<?xml version="1.0" standalone="no"?><!DOCTYPE svg PUBLIC "-//W3C//DTD SVG 1.1//EN" "http://www.w3.org/Graphics/SVG/1.1/DTD/svg11.dtd"><svg class="icon" width="200px" height="180.28px" viewBox="0 0 1136 1024" version="1.1" xmlns="http://www.w3.org/2000/svg"><path d="M372.578763 0.00065a206.059869 206.059869 0 1 1-206.059869 206.059869A205.54387 205.54387 0 0 1 372.579763 0.00065z m617.604608 666.257577l48.07997 86.429945 97.877938 18.889988-68.113957 72.119954 12.019992 98.449938-89.863943-41.782974-89.864942 41.783974 12.591992-98.449938-68.113957-72.120954 97.305938-18.889988 48.079969-86.429945m-325.114793-3.433998l48.079969 87.002945 97.305939 18.315988-68.113957 72.692954 12.592992 98.449938-89.864943-42.355973-89.864943 42.356973 12.019992-98.449938-68.112957-72.693954 97.877938-18.315988 48.07997-87.002945m159.123899-287.337817l47.50797 85.857945 95.587939 18.315989-66.396958 71.548954 12.019993 97.304938-88.719944-41.783973-88.146944 41.783973 12.019992-97.304938-66.396958-71.548954 95.58894-18.315989 46.93597-85.857945M370.288765 453.903362l-53.231966 77.271951-56.093965-72.119954S171.099891 447.607366 97.260938 572.959286 0.527 942.150052 0.527 942.150052s-12.591992 85.284946 85.285946 80.133949S691.397561 1024 691.397561 1024s64.106959-1.716999 75.554952-43.500972l-103.029934-48.07997-93.298941 51.513967s-37.204976 0-35.487978-28.619981c0.573-10.301993 17.743989-101.311936 17.743989-101.311936l-69.257956-69.258956s-14.309991-30.335981 12.591992-48.07997l99.594937-14.309991 46.36397-88.146944s33.769979-43.501972 69.257956 48.07997c0 0-45.217971-187.741881-171.715891-219.795861 0 0-45.217971-20.605987-62.38996-1.716998l-48.079969 69.257956-48.07997-75.554952 33.769979 128.214918-40.066975 192.893878-45.217971-189.45988z" /></svg>