<svg xmlns="http://www.w3.org/2000/svg" xmlns:xlink="http://www.w3.org/1999/xlink" fill="none" version="1.1" width="20" height="20" viewBox="0 0 20 20"><defs><clipPath id="master_svg0_4_4898"><rect x="-0.8333333134651184" y="-0.8333333134651184" width="21.666666626930237" height="21.666666626930237" rx="0"/></clipPath></defs><g clip-path="url(#master_svg0_4_4898)"><path d="M5.26501474,2.76501703Q4.16666657,3.8633664000000003,4.16666633,5.4166663Q4.16666669,6.9699697,5.2650151,8.0683179Q6.363364,9.1666665,7.9166665,9.1666665Q9.4699688,9.1666665,10.5683179,8.0683179Q11.6666665,6.9699688,11.6666665,5.4166665Q11.6666665,3.8633666,10.5683179,2.76501703Q9.4699688,1.66666669,7.9166665,1.66666669Q6.3633641999999995,1.66666669,5.26501474,2.76501703ZM6.4435264,6.8898063Q5.83333331,6.279613299999999,5.83333331,5.4166665Q5.83333296,4.5537219,6.4435265,3.9435278Q7.0537205,3.33333331,7.9166665,3.33333331Q8.7796121,3.33333331,9.389805800000001,3.9435278Q10,4.5537221,10,5.4166665Q10,6.279612800000001,9.3898063,6.8898063Q8.7796128,7.5,7.9166665,7.5Q7.0537198,7.5,6.4435264,6.8898063Z" fill-rule="evenodd" fill="#FFFFFF" fill-opacity="1"/><path d="M14.06446674125,2.232242104140625Q14.86150838125,2.727949084140625,15.33244638125,3.543448804140625Q15.83325838125,4.410680194140625,15.83325838125,5.416656494140625Q15.83325838125,6.4226321941406255,15.33244638125,7.289863594140625Q14.861509281250001,8.105361894140625,14.06447098125,8.601067994140625Q13.84911421125,8.751489594140626,13.58642578125,8.751489594140626Q13.50420191125,8.751489194140625,13.42355797125,8.735447894140625Q13.34291401125,8.719406594140626,13.26694906125,8.687941094140626Q13.19098410125,8.656475094140625,13.12261742125,8.610794094140626Q13.05425078125,8.565113094140624,12.99610972125,8.506972294140624Q12.93796867125,8.448831094140626,12.89228749125,8.380464594140625Q12.846606371250001,8.312097594140624,12.81514066125,8.236132594140624Q12.78367495125,8.160167694140625,12.76763391125,8.079523994140626Q12.75159275125,7.998880394140625,12.75159275125,7.916656494140625Q12.75159275125,7.803305594140625,12.78181636125,7.694058894140625Q12.81203991125,7.584811694140625,12.87029862125,7.487578394140625Q12.92855739125,7.390344594140625,13.01063299125,7.312165294140625Q13.09270859125,7.233986394140625,13.19265830125,7.180522394140625Q13.62977541625,6.9055394941406245,13.88915425125,6.456386094140624Q14.16659188125,5.975961194140625,14.16659182125,5.416656494140625Q14.16659188125,4.857351694140625,13.88915416125,4.376926394140625Q13.62977622825,3.927774594140625,13.19265970125,3.652791324140625Q13.09270969125,3.599327024140625,13.01063383125,3.521147844140625Q12.92855793125,3.4429686641406247,12.87029904125,3.345735284140625Q12.81204009125,3.248501924140625,12.78181636125,3.139254664140625Q12.75159275125,3.030007414140625,12.75159275125,2.916656494140625Q12.75159275125,2.834432624140625,12.76763391125,2.753788684140625Q12.78367495125,2.673144724140625,12.81514072125,2.597179774140625Q12.84660643125,2.5212148141406248,12.89228755125,2.452848134140625Q12.93796867125,2.384481494140625,12.99610972125,2.326340434140625Q13.05425078125,2.268199384140625,13.12261742125,2.222518204140625Q13.19098410125,2.176837084140625,13.26694906125,2.145371374140625Q13.34291401125,2.113905664140625,13.42355797125,2.097864624140625Q13.50420191125,2.081823464140625,13.58642578125,2.081823464140625Q13.84911135125,2.081823464140625,14.06446674125,2.232242104140625Z" fill-rule="evenodd" fill="#FFFFFF" fill-opacity="1"/><path d="M3.1082325062500002,11.287432314140625Q1.90194398625,11.902076114140625,1.28731065625,13.108372494140625L1.28730943625,13.108375394140625Q0.96286630625,13.745133394140625,0.88135230625,14.742811194140625Q0.83317059625,15.332524494140625,0.83317059625,16.999988994140626L0.83317059625,17.499989494140625Q0.83317065625,17.582065594140623,0.84918284625,17.662564294140626Q0.86519515625,17.743062994140626,0.89660441625,17.818891494140626Q0.92801356625,17.894720094140624,0.97361266625,17.962964094140624Q1.01921164625,18.031207994140626,1.07724827625,18.089244794140626Q1.13528489625,18.147281694140624,1.20352876625,18.192880594140625Q1.2717725662500001,18.238479594140625,1.34760105625,18.269888894140625Q1.42342954625,18.301298094140627,1.50392864625,18.317310294140626Q1.58442774425,18.333322494140624,1.66650390625,18.333322994140623L14.16650390625,18.333322994140623Q14.24857890625,18.333322494140624,14.32907890625,18.317310294140626Q14.40957690625,18.301298094140627,14.48540490625,18.269888394140626Q14.56123390625,18.238479594140625,14.62947890625,18.192880594140625Q14.69772290625,18.147281694140624,14.75575890625,18.089244794140626Q14.81379490625,18.031207994140626,14.85939390625,17.962964094140624Q14.90499290625,17.894720094140624,14.93640090625,17.818891494140626Q14.96781190625,17.743062994140626,14.98382390625,17.662564294140626Q14.99983590625,17.582065594140623,14.99983690625,17.499989494140625L14.99983690625,16.999988994140626Q14.99983690625,15.332512394140625,14.95165890625,14.742814994140625Q14.87015090625,13.745144394140624,14.54572590625,13.108389494140624Q13.93107390625,11.902086454140624,12.72479290625,11.287445454140626Q12.08801690625,10.963010844140625,11.09034440625,10.881501974140624Q10.50063420625,10.833323184140625,8.83317090625,10.833323184140625L6.99983640625,10.833323184140625Q5.33237360625,10.833323184140625,4.7426619062499995,10.881501974140624Q3.74499010625,10.963010664140626,3.1082325062500002,11.287432314140625ZM2.5424836862499998,14.878531894140625Q2.59721171625,14.208696094140624,2.77232190625,13.865023094140625Q3.14110870625,13.141230394140624,3.86484150625,12.772464394140625Q4.20852780625,12.597359774140624,4.87837460625,12.542634014140624Q5.40034250625,12.499989804140625,6.99983640625,12.499989804140625L8.83317090625,12.499989804140625Q10.43266390625,12.499989804140625,10.95463080625,12.542634014140624Q11.62447450625,12.597359594140626,11.96813190625,12.772451194140626Q12.69191690625,13.141243894140626,13.06069790625,13.865007194140626Q13.23580090625,14.208685894140626,13.29052590625,14.878528094140625Q13.32855890625,15.344052994140625,13.33267190625,16.666656494140625L2.50033593625,16.666656494140625Q2.50444894625,15.344052094140626,2.5424836862499998,14.878531894140625Z" fill-rule="evenodd" fill="#FFFFFF" fill-opacity="1"/><path d="M16.94062289375,11.312922716875Q18.11039779375,11.926857336875,18.71243549375,13.108407096875Q19.03687019375,13.745181196875,19.11837939375,14.742853896875Q19.16655829375,15.332565796875,19.16655829375,17.000028096875L19.16655829375,17.450011696875002Q19.16805789375,17.474997996875,19.16805789375,17.500028596874998Q19.16805789375,17.582252496875,19.152016593749998,17.662896196875Q19.13597539375,17.743540296875,19.10450979375,17.819505196875Q19.07304379375,17.895470096875002,19.02736279375,17.963836696875Q18.98168179375,18.032203696875,18.92354079375,18.090344396875Q18.86539959375,18.148485196875,18.79703309375,18.194166696875Q18.72866629375,18.239848096875,18.65270139375,18.271313696874998Q18.57673649375,18.302779696875,18.49609239375,18.318820996875Q18.41544869375,18.334861796875,18.33322489375,18.334861796875Q18.25100089375,18.334861796875,18.17035689375,18.318820496875Q18.08971289375,18.302779696875,18.01374789375,18.271313696874998Q17.937782993749998,18.239848096875,17.86941649375,18.194166196875Q17.80104969375,18.148485196875,17.74290869375,18.090344396875Q17.68476769375,18.032203696875,17.63908649375,17.963836696875Q17.59340529375,17.895470096875002,17.56193959375,17.819505196875Q17.53047399375,17.743540296875,17.51443289375,17.662896596875Q17.49839186375,17.582252496875,17.49839186375,17.500028596874998Q17.49839186375,17.474997996875,17.49989152375,17.450011696875002L17.49989152375,17.000028096875Q17.49989152375,15.400532696875,17.45724731375,14.878566996875Q17.40252167375,14.208723996875,17.22742867375,13.865065896875Q16.86863684375,13.160906696875,16.17373615375,12.792736056875Q16.06313496375,12.743512276875,15.97107148375,12.664899826875Q15.87900793375,12.586287256875,15.81306648375,12.484762306875Q15.74712497375,12.383237306875,15.71273779375,12.267163466875Q15.67835056375,12.151089656875,15.67835056375,12.030029296875Q15.67835056375,11.947805426875,15.69439172375,11.867161486875Q15.71043276375,11.786517526875,15.74189853375,11.710552576875Q15.77336424375,11.634587616875,15.81904536375,11.566220936875Q15.86472648375,11.497854296875,15.92286753375,11.439713236875Q15.98100859375,11.381572186875,16.04937523375,11.335891006875Q16.11774191375,11.290209886875001,16.19370687375,11.258744176875Q16.26967182375,11.227278466875,16.35031578375,11.211237426875Q16.43095972375,11.195196266875,16.51318359375,11.195196266875Q16.74311550375,11.195196266875,16.94062289375,11.312922716875Z" fill-rule="evenodd" fill="#FFFFFF" fill-opacity="1"/></g></svg>