<svg xmlns="http://www.w3.org/2000/svg" xmlns:xlink="http://www.w3.org/1999/xlink" fill="none" version="1.1" width="20" height="20" viewBox="0 0 20 20"><defs><clipPath id="master_svg0_48_1268"><rect x="-0.8333333134651184" y="-0.8333333134651184" width="21.666666626930237" height="21.666666626930237" rx="0"/></clipPath></defs><g clip-path="url(#master_svg0_48_1268)"><path d="M7.34851083375,2.76501703Q6.25016266375,3.8633664000000003,6.25016242375,5.4166663Q6.25016278375,6.9699697,7.34851119375,8.0683179Q8.44686009375,9.1666665,10.00016259375,9.1666665Q11.55346489375,9.1666665,12.65181399375,8.0683179Q13.75016259375,6.9699688,13.75016259375,5.4166665Q13.75016259375,3.8633666,12.65181399375,2.76501703Q11.55346489375,1.66666669,10.00016259375,1.66666669Q8.44686029375,1.66666669,7.34851083375,2.76501703ZM8.52702249375,6.8898063Q7.91682940375,6.279613299999999,7.91682940375,5.4166665Q7.91682905375,4.5537219,8.52702259375,3.9435278Q9.13721659375,3.33333331,10.00016259375,3.33333331Q10.86310819375,3.33333331,11.473301893750001,3.9435278Q12.08349609375,4.5537221,12.08349609375,5.4166665Q12.08349609375,6.279612800000001,11.47330239375,6.8898063Q10.86310889375,7.5,10.00016259375,7.5Q9.13721589375,7.5,8.52702249375,6.8898063Z" fill-rule="evenodd" fill="#FFFFFF" fill-opacity="1" style="mix-blend-mode:passthrough"/><path d="M5.4420152999999996,3.731072846015625Q5.5321598000000005,3.674811366015625,5.605336,3.597761746015625Q5.6785121,3.520712196015625,5.7300532,3.427788076015625Q5.781594500000001,3.334863986015625,5.8082139,3.231991296015625Q5.8348331,3.129118586015625,5.8348331,3.022857666015625Q5.8348331,2.940633796015625,5.8187919,2.859989856015625Q5.8027505999999995,2.779345896015625,5.7712851,2.703380946015625Q5.7398193,2.6274159860156248,5.6941382,2.559049306015625Q5.6484571,2.490682666015625,5.5903161,2.432541606015625Q5.5321748,2.374400556015625,5.4638083,2.328719376015625Q5.3954415000000004,2.283038256015625,5.3194766,2.251572546015625Q5.2435117,2.220106836015625,5.1628678,2.204065796015625Q5.0822239,2.188024636015625,5,2.188024636015625Q4.8574456999999995,2.188024636015625,4.72296911,2.235329866015625Q4.58849251,2.2826350960156248,4.47733378,2.3718844060156252Q3.768228604,2.881599366015625,3.35640445,3.653494536015625Q2.91666669,4.477709266015625,2.91666663,5.416740866015624Q2.91666669,6.422717366015625,3.41747889,7.289948466015625Q3.88841631,8.105446766015625,4.6854556800000005,8.601153366015625Q4.9008121,8.751574066015625,5.1634998,8.751574066015625Q5.2457237,8.751573566015626,5.3263676,8.735532766015625Q5.4070115,8.719490966015625,5.4829766,8.688025466015624Q5.5589414999999995,8.656559966015624,5.6273081000000005,8.610878966015626Q5.6956748,8.565197966015624,5.7538159,8.507057166015624Q5.8119569,8.448915966015626,5.8576379,8.380549466015625Q5.9033189,8.312182466015624,5.9347849,8.236217466015624Q5.9662504,8.160252566015625,5.9822917,8.079608466015625Q5.998333000000001,7.998964266015625,5.998333000000001,7.916740866015625Q5.998333000000001,7.803390066015625,5.9681093999999995,7.694142866015625Q5.9378858,7.584896066015625,5.879627,7.487662766015625Q5.8213682,7.390429466015625,5.7392926,7.312250166015625Q5.657217,7.234070766015625,5.5572672999999995,7.180606866015625Q5.1201497,6.905623466015625,4.8607709,6.456469966015625Q4.58333325,5.976045366015625,4.58333325,5.416740866015624Q4.58333331,4.894506766015625,4.8268766,4.438025866015625Q5.0534033,4.013439536015625,5.4420152999999996,3.731072846015625Z" fill-rule="evenodd" fill="#FFFFFF" fill-opacity="1" style="mix-blend-mode:passthrough"/><path d="M15.52266383,2.371882496015625Q16.2317706,2.881598276015625,16.6435955,3.653494476015625Q17.083333500000002,4.477709366015625,17.083333500000002,5.4167418660156255Q17.083333500000002,6.355749166015626,16.6435976,7.179971266015625Q16.2317606,7.951900966015625,15.52265501,8.461598366015625Q15.41149753,8.550843266015626,15.27702403,8.598145966015625Q15.14255057,8.645448666015625,15,8.645449166015625Q14.91777613,8.645448666015625,14.83713219,8.629407866015626Q14.75648823,8.613366166015625,14.68052328,8.581900566015625Q14.60455832,8.550434566015625,14.53619164,8.504753566015625Q14.467825,8.459072566015625,14.40968394,8.400931866015625Q14.35154289,8.342790566015626,14.30586171,8.274424066015625Q14.260180590000001,8.206057566015625,14.22871488,8.130092666015624Q14.19724917,8.054127666015624,14.18120813,7.973483566015625Q14.16516697,7.892839466015625,14.16516697,7.810616066015625Q14.16516697,7.704359066015625,14.19178438,7.601490066015625Q14.21840167,7.498620966015625,14.26993906,7.405699766015625Q14.321476520000001,7.312778466015625,14.3946476,7.235729666015625Q14.46781874,7.158680866015625,14.557957590000001,7.102417966015625Q14.946578238,6.8200704660156255,15.17312095,6.395448466015625Q15.41666663,5.938956766015625,15.41666663,5.4167418660156255Q15.41666663,4.894507266015625,15.17312318,4.4380259660156245Q14.946596324,4.013439536015625,14.55798441,3.731072606015625Q14.46783996,3.674811126015625,14.39466393,3.5977615760156247Q14.3214879,3.520711986015625,14.26994675,3.427787896015625Q14.2184056,3.334863846015625,14.19178629,3.231991186015625Q14.16516697,3.129118536015625,14.16516697,3.022857666015625Q14.16516697,2.940633796015625,14.18120813,2.859989856015625Q14.19724917,2.779345896015625,14.22871494,2.703380946015625Q14.26018065,2.6274159860156248,14.30586177,2.559049306015625Q14.35154289,2.490682666015625,14.40968394,2.432541606015625Q14.467825,2.374400556015625,14.53619164,2.328719376015625Q14.60455832,2.283038256015625,14.68052328,2.251572546015625Q14.75648823,2.220106836015625,14.83713219,2.204065796015625Q14.91777613,2.188024636015625,15,2.188024636015625Q15.14255351,2.188024636015625,15.2770294,2.235329386015625Q15.41150531,2.282634016015625,15.52266383,2.371882496015625Z" fill-rule="evenodd" fill="#FFFFFF" fill-opacity="1" style="mix-blend-mode:passthrough"/><path d="M6.7387952,11.150510614140625Q5.14429982,11.810939894140626,4.48385495,13.405450894140625L4.48384476,13.405475394140625Q4.25718409,13.952676994140624,4.20031863,14.786077694140625Q4.16666669,15.279269694140625,4.16666669,16.666656494140625L4.16666669,17.499989494140625Q4.16666675,17.582065594140623,4.18267894,17.662564294140626Q4.1986912499999995,17.743062994140626,4.23010051,17.818891494140626Q4.26150966,17.894720094140624,4.30710876,17.962964094140624Q4.35270774,18.031207994140626,4.41074437,18.089244794140626Q4.46878099,18.147281694140624,4.53702486,18.192880594140625Q4.60526866,18.238479594140625,4.68109715,18.269888894140625Q4.75692564,18.301298094140627,4.83742474,18.317310294140626Q4.917923838,18.333322494140624,5,18.333322994140623L15,18.333322994140623Q15.082075,18.333322494140624,15.162574,18.317310294140626Q15.243073,18.301298094140627,15.318901,18.269888394140626Q15.39473,18.238479594140625,15.462975,18.192880594140625Q15.531218,18.147281694140624,15.589255,18.089244794140626Q15.647291,18.031207994140626,15.69289,17.962964094140624Q15.738489,17.894720094140624,15.769897,17.818891494140626Q15.801308,17.743062994140626,15.81732,17.662564294140626Q15.833332,17.582065594140623,15.833333,17.499989494140625L15.833333,16.666656494140625Q15.833333,15.279268294140625,15.799682,14.786077694140625Q15.742815,13.952657894140625,15.516145,13.405450694140626Q14.8557138,11.810945394140624,13.2611809,11.150501134140626Q12.7139959,10.923841654140626,11.880577599999999,10.866975064140625Q11.3873863,10.833323184140625,10,10.833323184140625Q8.6126132,10.833323184140625,8.1194217,10.866975064140625Q7.2860026,10.923841654140626,6.7387952,11.150510614140625ZM5.83333331,16.666656494140625Q5.83333331,14.502713694140624,6.0236453999999995,14.043277694140626L6.0236555,14.043253394140624Q6.4199089,13.086565294140625,7.3766205,12.690301794140625Q7.8360577,12.499989804140625,10,12.499989804140625Q12.163941900000001,12.499989804140625,12.6234021,12.690311594140624Q13.5800915,13.086565394140624,13.9763536,14.043278194140624Q14.166666,14.502714194140625,14.166666,16.666656494140625L5.83333331,16.666656494140625Z" fill-rule="evenodd" fill="#FFFFFF" fill-opacity="1" style="mix-blend-mode:passthrough"/><path d="M16.94062289375,11.312922716875Q18.11039779375,11.926857336875,18.71243549375,13.108407096875Q19.03687019375,13.745181196875,19.11837939375,14.742853896875Q19.16655829375,15.332565796875,19.16655829375,17.000028096875L19.16655829375,17.450011696875002Q19.16805789375,17.474997996875,19.16805789375,17.500028596874998Q19.16805789375,17.582252496875,19.152016593749998,17.662896196875Q19.13597539375,17.743540296875,19.10450979375,17.819505196875Q19.07304379375,17.895470096875002,19.02736279375,17.963836696875Q18.98168179375,18.032203696875,18.92354079375,18.090344396875Q18.86539959375,18.148485196875,18.79703309375,18.194166696875Q18.72866629375,18.239848096875,18.65270139375,18.271313696874998Q18.57673649375,18.302779696875,18.49609239375,18.318820996875Q18.41544869375,18.334861796875,18.33322489375,18.334861796875Q18.25100089375,18.334861796875,18.17035689375,18.318820496875Q18.08971289375,18.302779696875,18.01374789375,18.271313696874998Q17.937782993749998,18.239848096875,17.86941649375,18.194166196875Q17.80104969375,18.148485196875,17.74290869375,18.090344396875Q17.68476769375,18.032203696875,17.63908649375,17.963836696875Q17.59340529375,17.895470096875002,17.56193959375,17.819505196875Q17.53047399375,17.743540296875,17.51443289375,17.662896596875Q17.49839186375,17.582252496875,17.49839186375,17.500028596874998Q17.49839186375,17.474997996875,17.49989152375,17.450011696875002L17.49989152375,17.000028096875Q17.49989152375,15.400532696875,17.45724731375,14.878566996875Q17.40252167375,14.208723996875,17.22742867375,13.865065896875Q16.86863684375,13.160906696875,16.17373615375,12.792736056875Q16.06313496375,12.743512276875,15.97107148375,12.664899826875Q15.87900793375,12.586287256875,15.81306648375,12.484762306875Q15.74712497375,12.383237306875,15.71273779375,12.267163466875Q15.67835056375,12.151089656875,15.67835056375,12.030029296875Q15.67835056375,11.947805426875,15.69439172375,11.867161486875Q15.71043276375,11.786517526875,15.74189853375,11.710552576875Q15.77336424375,11.634587616875,15.81904536375,11.566220936875Q15.86472648375,11.497854296875,15.92286753375,11.439713236875Q15.98100859375,11.381572186875,16.04937523375,11.335891006875Q16.11774191375,11.290209886875001,16.19370687375,11.258744176875Q16.26967182375,11.227278466875,16.35031578375,11.211237426875Q16.43095972375,11.195196266875,16.51318359375,11.195196266875Q16.74311550375,11.195196266875,16.94062289375,11.312922716875Z" fill-rule="evenodd" fill="#FFFFFF" fill-opacity="1" style="mix-blend-mode:passthrough"/><path d="M3.82598330625,12.792734796875Q3.93658400625,12.743510786875,4.02864690625,12.664898336875Q4.12070990625,12.586285826875,4.18665120625,12.484761026875Q4.25259210625,12.383236196875,4.28697920625,12.267162726875Q4.32136610625,12.151089246875,4.32136610625,12.030029296875Q4.32136580625,11.947805426875,4.30532480625,11.867161486875Q4.28928370625,11.786517526875,4.25781770625,11.710552576875Q4.2263522062500005,11.634587616875,4.18067120625,11.566220936875Q4.13499020625,11.497854296875,4.07684900625,11.439713236875Q4.01870800625,11.381572186875,3.95034120625,11.335891006875Q3.88197470625,11.290209886875001,3.80600950625,11.258744176875Q3.73004460625,11.227278466875,3.64940070625,11.211237426875Q3.5687568062499997,11.195196266875,3.48653300625,11.195196266875Q3.2566000062500002,11.195196266875,3.05909190625,11.312923846875Q1.88933962625,11.926850986875,1.2873090762500001,13.108413796875Q0.96286636625,13.745169996875,0.88135224625,14.742850096875Q0.83317053625,15.332562896875,0.83317053625,17.000028096875L0.83317059625,17.450010796875Q0.83167087625,17.474997496874998,0.83167087625,17.500028596874998Q0.83167087625,17.582252496875,0.84771203625,17.662896196875Q0.86375307625,17.743540296875,0.89521884625,17.819505196875Q0.92668455625,17.895470096875002,0.97236567625,17.963836696875Q1.0180467962500002,18.032203696875,1.0761878462499999,18.090344396875Q1.13432890625,18.148485196875,1.20269554625,18.194166696875Q1.27106222625,18.239848096875,1.34702718625,18.271313696874998Q1.42299213625,18.302779696875,1.50363609625,18.318820996875Q1.58428003625,18.334861796875,1.66650390625,18.334861796875Q1.74872777625,18.334861796875,1.82937171625,18.318820496875Q1.91001567625,18.302779696875,1.98598062625,18.271313696874998Q2.0619455862500002,18.239848096875,2.13031226625,18.194166196875Q2.19867890625,18.148485196875,2.25681996625,18.090344396875Q2.31496101625,18.032203696875,2.36064219625,17.963836696875Q2.40632331625,17.895470096875002,2.43778902625,17.819505196875Q2.46925473625,17.743540296875,2.48529577625,17.662896596875Q2.50133693625,17.582252496875,2.50133693625,17.500028596874998Q2.50133693625,17.474996996875,2.49983721625,17.450010796875L2.49983715625,17.000028096875Q2.49983715625,15.400536296875,2.5424836862499998,14.878570596875Q2.59721165625,14.208734996875,2.7723229062500003,13.865058896875Q3.13110920625,13.160894196875,3.82598330625,12.792734796875Z" fill-rule="evenodd" fill="#FFFFFF" fill-opacity="1" style="mix-blend-mode:passthrough"/></g></svg>