<svg xmlns="http://www.w3.org/2000/svg" xmlns:xlink="http://www.w3.org/1999/xlink" fill="none" version="1.1" width="20" height="20" viewBox="0 0 20 20"><defs><clipPath id="master_svg0_4_4888"><rect x="-0.8333333134651184" y="-0.8333333134651184" width="21.666666626930237" height="21.666666626930237" rx="0"/></clipPath></defs><g clip-path="url(#master_svg0_4_4888)"><path d="M8.28347159375,17.50002001171875Q8.30846119375,17.49852001171875,8.33349609375,17.49852001171875Q8.415719993749999,17.49852001171875,8.49636359375,17.514561011718747Q8.57700729375,17.53060101171875,8.65297219375,17.56206701171875Q8.72893719375,17.593533011718748,8.797303693749999,17.63921401171875Q8.865670693750001,17.68489501171875,8.923811893749999,17.74303601171875Q8.98195269375,17.80117801171875,9.027633693750001,17.86954501171875Q9.07331469375,17.93791001171875,9.104780693750001,18.01387401171875Q9.13624619375,18.08984001171875,9.15228749375,18.17048501171875Q9.16832879375,18.25112901171875,9.16832919375,18.33335301171875Q9.16832879375,18.41557701171875,9.15228749375,18.49622001171875Q9.13624619375,18.57686201171875,9.104780693750001,18.65282801171875Q9.07331469375,18.72879201171875,9.027633693750001,18.79715901171875Q8.98195269375,18.86552601171875,8.923811893749999,18.92366801171875Q8.865670693750001,18.98180801171875,8.79730419375,19.02748901171875Q8.72893719375,19.07317001171875,8.65297219375,19.10463501171875Q8.57700729375,19.13610101171875,8.49636359375,19.15214301171875Q8.415719993749999,19.16818601171875,8.33349609375,19.16818601171875Q8.30846929375,19.16818601171875,8.28348729375,19.16668701171875L4.16682940375,19.16668701171875Q3.47647497375,19.16668701171875,2.98832088375,18.67853701171875Q2.50016278375,18.19038401171875,2.50016278375,17.50002001171875L2.50016278375,2.50002032171875Q2.50016278375,1.80966425171875,2.98831790375,1.3215090317187501Q3.47647312375,0.83335370171875,4.16682940375,0.83335370171875L12.91682909375,0.83335370171875Q13.09400849375,0.83335370171875,13.25586129375,0.90543693171875Q13.41771409375,0.97752023171875,13.53624009375,1.1092163917187499L17.28624009375,5.27588291171875Q17.38952909375,5.39064841171875,17.44484609375,5.53480031171875Q17.50016209375,5.67895221171875,17.50016209375,5.83335351171875L17.50016209375,9.53332851171875Q17.50166209375,9.55831811171875,17.50166209375,9.58335301171875Q17.501661093750002,9.66557691171875,17.48562009375,9.74622061171875Q17.46958009375,9.82686421171875,17.438113093749998,9.90282921171875Q17.40664809375,9.97879411171875,17.36096709375,10.04716111171875Q17.31528609375,10.11552811171875,17.257145093749997,10.17366881171875Q17.19900309375,10.23180961171875,17.13063609375,10.27749061171875Q17.06226909375,10.32317161171875,16.98630309375,10.35463711171875Q16.91033909375,10.38610361171875,16.82969609375,10.40214541171875Q16.749052093750002,10.41818621171875,16.66682909375,10.41818621171875Q16.584604093750002,10.41818621171875,16.50396109375,10.40214541171875Q16.42331709375,10.38610461171875,16.34735109375,10.35463811171875Q16.27138709375,10.32317261171875,16.20302009375,10.27749161171875Q16.13465309375,10.23180961171875,16.07651209375,10.17366881171875Q16.018371093749998,10.11552811171875,15.97269009375,10.04716111171875Q15.92700809375,9.97879411171875,15.89554209375,9.90282921171875Q15.86407709375,9.82686421171875,15.84803609375,9.74622061171875Q15.83199509375,9.66557691171875,15.83199609375,9.58335301171875Q15.83199609375,9.55831811171875,15.83349609375,9.53332851171875L15.83349609375,6.15313391171875L12.54569439375,2.50002032171875L4.16682940375,2.50002032171875L4.16682940375,17.50002001171875L8.28347159375,17.50002001171875Z" fill-rule="evenodd" fill="#FFFFFF" fill-opacity="1"/><ellipse cx="14.166666626930237" cy="13.333353638648987" rx="1.2499999701976776" ry="1.2499999701976776" fill-opacity="0" stroke-opacity="1" stroke="#FFFFFF" fill="none" stroke-width="1.6666666269302368" stroke-linecap="ROUND" stroke-linejoin="round"/><path d="M11.66716349375,18.2892327Q11.66832912375,18.3112676,11.66832912375,18.3333333Q11.66832912375,18.4155569,11.65228796375,18.4962008Q11.63624692375,18.5768447,11.60478115375,18.6528096Q11.57331544375,18.7287745,11.52763432375,18.7971413Q11.48195320375,18.8655081,11.42381215375,18.9236491Q11.36567109375,18.9817901,11.29730445375,19.0274711Q11.22893777375,19.0731521,11.15297281375,19.1046181Q11.07700786375,19.1360836,10.99636390375,19.1521249Q10.91571996375,19.1681662,10.83349609375,19.1681662Q10.75127222375,19.1681662,10.67062828375,19.1521254Q10.58998432375,19.1360836,10.51401937375,19.1046181Q10.43805441375,19.0731521,10.36968773375,19.0274711Q10.30132109375,18.9817901,10.24318003375,18.9236493Q10.18503898375,18.8655081,10.13935780375,18.7971416Q10.093676683750001,18.7287745,10.06221097375,18.6528096Q10.03074526375,18.5768447,10.01470422375,18.4962008Q9.99866306375,18.4155569,9.99866306375,18.3333333Q9.99866306375,18.3058281,10.00047350375,18.2783828Q10.01963603375,16.5879627,11.22054764375,15.38705155Q12.44093239375,14.16666675,14.16682939375,14.16666669Q15.89272599375,14.16666669,17.11311049375,15.38705155Q18.31402299375,16.5879638,18.33318519375,18.278384Q18.33499579375,18.3058288,18.33499579375,18.3333333Q18.334995293749998,18.4155569,18.31895399375,18.4962008Q18.30291269375,18.5768447,18.27144719375,18.6528096Q18.23998169375,18.7287745,18.19430019375,18.7971413Q18.14861969375,18.8655081,18.09047889375,18.9236491Q18.03233719375,18.9817901,17.96397069375,19.0274711Q17.895604093750002,19.0731521,17.81963919375,19.1046181Q17.74367429375,19.1360836,17.66303019375,19.1521249Q17.58238599375,19.1681662,17.500162593749998,19.1681662Q17.41793819375,19.1681662,17.337294593750002,19.1521254Q17.25664999375,19.1360836,17.18068499375,19.1046181Q17.10472009375,19.0731521,17.03635359375,19.0274711Q16.96798709375,18.9817901,16.90984629375,18.9236493Q16.85170459375,18.8655081,16.806023593749998,18.7971416Q16.76034259375,18.7287745,16.72887659375,18.6528096Q16.69741109375,18.5768447,16.68136979375,18.4962008Q16.665328993750002,18.4155569,16.66532949375,18.3333333Q16.66532949375,18.3112681,16.66649489375,18.2892337Q16.65118889375,17.2821519,15.93459989375,16.5655628Q15.20237019375,15.83333331,14.16682939375,15.83333331Q13.13128849375,15.83333331,12.39905889375,16.5655628Q11.68247002375,17.2821519,11.66716349375,18.2892327Z" fill-rule="evenodd" fill="#FFFFFF" fill-opacity="1"/><path d="M13.33333331,1.71670470771875Q13.33483303,1.69171834171875,13.33483303,1.66668701171875Q13.33483303,1.58446314171875,13.31879187,1.50381920171875Q13.30275083,1.42317524171875,13.27128506,1.34721029171875Q13.23981935,1.27124533171875,13.19413823,1.20287865171875Q13.14845711,1.13451201171875,13.09031606,1.0763709517187499Q13.032175,1.0182299017187502,12.96380836,0.97254872171875Q12.89544168,0.92686760171875,12.81947672,0.89540189171875Q12.74351177,0.86393618171875,12.66286781,0.84789514171875Q12.58222387,0.83185398171875,12.5,0.83185398171875Q12.41777613,0.83185398171875,12.33713219,0.84789514171875Q12.25648823,0.86393618171875,12.18052328,0.89540195171875Q12.10455832,0.92686766171875,12.03619164,0.97254878171875Q11.967825,1.0182299017187502,11.90968394,1.0763709517187499Q11.85154289,1.13451201171875,11.80586171,1.20287865171875Q11.760180590000001,1.27124533171875,11.72871488,1.34721029171875Q11.69724917,1.42317524171875,11.68120813,1.50381920171875Q11.66516697,1.58446314171875,11.66516697,1.66668701171875Q11.66516697,1.69171834171875,11.66666669,1.71670470771875L11.66666669,5.83335351171875Q11.66666675,5.91542961171875,11.68267894,5.99592881171875Q11.69869125,6.07642741171875,11.73010051,6.15225601171875Q11.76150966,6.22808461171875,11.80710876,6.29632851171875Q11.85270774,6.36457251171875,11.91074437,6.42260931171875Q11.968780989999999,6.48064561171875,12.03702486,6.52624461171875Q12.10526866,6.57184361171875,12.18109715,6.60325291171875Q12.25692564,6.63466211171875,12.33742474,6.65067481171875Q12.417923838,6.66668701171875,12.5,6.66668701171875L16.6166496,6.66668701171875Q16.6416359,6.66818671171875,16.666666499999998,6.66818671171875Q16.7488899,6.66818621171875,16.8295341,6.65214491171875Q16.9101782,6.63610361171875,16.9861431,6.60463811171875Q17.062108000000002,6.57317261171875,17.1304746,6.52749111171875Q17.1988411,6.48181061171875,17.2569823,6.42366931171875Q17.3151236,6.36552811171875,17.3608041,6.29716161171875Q17.4064856,6.22879501171875,17.4379511,6.15283011171875Q17.4694166,6.07686521171875,17.4854579,5.99622111171875Q17.501499199999998,5.91557691171875,17.5014997,5.83335351171875Q17.501499199999998,5.75112961171875,17.4854579,5.67048551171875Q17.4694166,5.58984141171875,17.4379511,5.51387621171875Q17.4064856,5.43791131171875,17.3608041,5.36954451171875Q17.3151236,5.301178011718751,17.2569823,5.24303701171875Q17.1988411,5.184896011718751,17.1304746,5.1392147117187506Q17.062108000000002,5.09353351171875,16.9861431,5.06206801171875Q16.9101782,5.03060241171875,16.8295341,5.01456141171875Q16.7488899,4.99852041171875,16.666666499999998,4.99852041171875Q16.6416335,4.99852041171875,16.6166458,5.00002031171875L13.33333331,5.00002031171875L13.33333331,1.71670470771875Z" fill-rule="evenodd" fill="#FFFFFF" fill-opacity="1"/></g></svg>