<svg xmlns="http://www.w3.org/2000/svg" xmlns:xlink="http://www.w3.org/1999/xlink" fill="none" version="1.1" width="20" height="20" viewBox="0 0 20 20"><defs><clipPath id="master_svg0_4_4620"><rect x="-0.8333333134651184" y="-0.8333333134651184" width="21.666666626930237" height="21.666666626930237" rx="0"/></clipPath></defs><g clip-path="url(#master_svg0_4_4620)"><path d="M2.50016278375,2.499989804140625L2.50016278375,17.499989494140625Q2.50016278375,18.190353494140624,2.98832088375,18.678506494140624Q3.47647501375,19.166656494140625,4.16682940375,19.166656494140625L15.83349709375,19.166656494140625Q16.523859093749998,19.166656494140625,17.01201109375,18.678503494140624Q17.50016209375,18.190353494140624,17.50016209375,17.499989494140625L17.50016209375,5.833322994140625Q17.50016209375,5.751246894140625,17.48414909375,5.670747294140625Q17.468137093750002,5.590248094140625,17.43672709375,5.514419594140625Q17.405318093749997,5.438590994140625,17.35971909375,5.370347494140625Q17.31412009375,5.302103494140625,17.256084093749998,5.244067194140625Q17.19804809375,5.186030394140625,17.12980309375,5.140431394140625Q17.06156009375,5.094832394140624,16.985731093749997,5.063423194140626Q16.90990209375,5.032014094140624,16.82940409375,5.016001894140625Q16.74890509375,4.999989794140625,16.66682909375,4.999989794140625L13.33349609375,4.999989794140625L13.33349609375,1.666656494140625Q13.33349609375,1.584580332140625,13.31748389375,1.504081234140625Q13.30147079375,1.423582134140625,13.27006149375,1.347753644140625Q13.23865319375,1.2719251541406251,13.19305419375,1.203681354140625Q13.14745519375,1.135437484140625,13.08941839375,1.077400864140625Q13.03138159375,1.019364234140625,12.96313759375,0.973765254140625Q12.89489369375,0.928166154140625,12.81906509375,0.896757004140625Q12.74323649375,0.865347744140625,12.66273789375,0.849335494140625Q12.58223819375,0.833323244140625,12.50016209375,0.833323184140625L4.16682940375,0.833323184140625Q3.4764732237500002,0.833323184140625,2.98831796375,1.321478544140625Q2.50016278375,1.809633824140625,2.50016278375,2.499989804140625ZM15.83349709375,17.499989494140625L4.16682940375,17.499989494140625L4.16682940375,2.499989804140625L11.66682909375,2.499989804140625L11.66682909375,5.833322994140625Q11.66682819375,5.915399094140625,11.68284039375,5.995898294140625Q11.69885249375,6.076396894140625,11.73026179375,6.152225494140625Q11.76167109375,6.228054094140625,11.80727009375,6.296297994140625Q11.85286899375,6.364541994140625,11.91090679375,6.422578794140625Q11.96894259375,6.480615094140625,12.03718569375,6.526214094140625Q12.10542969375,6.571813094140625,12.18125819375,6.603222394140625Q12.25708679375,6.634631594140625,12.33758639375,6.650644294140625Q12.41808509375,6.666656494140625,12.50016209375,6.666656494140625L15.83349609375,6.666656494140625L15.83349709375,17.499989494140625Z" fill-rule="evenodd" fill="#FFFFFF" fill-opacity="1"/><path d="M11.94611228,2.291280034140625Q11.81210524,2.1724487541406248,11.73863614,2.009105354140625Q11.66516697,1.845761984140625,11.66516697,1.666656494140625Q11.66516697,1.584432624140625,11.68120813,1.503788684140625Q11.69724917,1.423144724140625,11.72871494,1.347179774140625Q11.76018065,1.271214814140625,11.80586177,1.202848134140625Q11.85154289,1.134481494140625,11.90968394,1.0763404341406249Q11.967825,1.0181993841406252,12.03619164,0.972518204140625Q12.10455832,0.926837084140625,12.18052328,0.895371374140625Q12.25648823,0.863905664140625,12.33713219,0.847864624140625Q12.41777613,0.831823464140625,12.5,0.831823464140625Q12.67910549,0.831823464140625,12.84244886,0.905292574140625Q13.00579226,0.978761734140625,13.12462354,1.112768774140625L17.220551999999998,5.208697094140625Q17.354559899999998,5.3275281941406245,17.4280295,5.4908723941406254Q17.501499199999998,5.654216294140625,17.5014997,5.833322994140625Q17.501499199999998,5.915546394140625,17.4854579,5.996190594140625Q17.4694166,6.076834694140625,17.4379511,6.152799594140625Q17.4064856,6.228764494140625,17.3608041,6.297131094140625Q17.3151236,6.365497594140625,17.2569823,6.423638794140625Q17.1988411,6.481780094140625,17.1304746,6.527460594140625Q17.062108000000002,6.573142094140625,16.9861431,6.604607594140625Q16.9101782,6.636073094140625,16.8295341,6.652114394140625Q16.7488899,6.668155694140625,16.666666499999998,6.668156194140625Q16.4875598,6.668155694140625,16.3242157,6.594685994140625Q16.1608717,6.521216394140625,16.0420406,6.387208494140625L11.94611228,2.291280034140625Z" fill-rule="evenodd" fill="#FFFFFF" fill-opacity="1"/><ellipse cx="10.000162720680237" cy="10.000010132789612" rx="1.2499999701976776" ry="1.2499999701976776" fill-opacity="0" stroke-opacity="1" stroke="#FFFFFF" fill="none" stroke-width="1.6666666269302368" stroke-linecap="ROUND" stroke-linejoin="round"/><path d="M7.5001713062499995,14.955889194140624Q7.50133693625,14.977924094140626,7.50133693625,14.999989794140625Q7.50133693625,15.082213394140625,7.48529577625,15.162857294140625Q7.46925473625,15.243501194140626,7.43778896625,15.319466094140624Q7.40632325625,15.395430994140625,7.36064213625,15.463797794140625Q7.31496101625,15.532164594140625,7.25681996625,15.590305594140625Q7.19867890625,15.648446594140625,7.13031226625,15.694127594140625Q7.06194558625,15.739808594140625,6.98598062625,15.771274594140625Q6.91001567625,15.802740094140624,6.82937171625,15.818781394140625Q6.74872777625,15.834822694140625,6.66650390625,15.834822694140625Q6.58428003625,15.834822694140625,6.50363609625,15.818781894140624Q6.42299213625,15.802740094140624,6.34702718625,15.771274594140625Q6.27106222625,15.739808594140625,6.20269554625,15.694127594140625Q6.13432890625,15.648446594140625,6.07618784625,15.590305794140626Q6.01804679625,15.532164594140625,5.97236561625,15.463798094140625Q5.92668449625,15.395430994140625,5.89521878625,15.319466094140624Q5.86375307625,15.243501194140626,5.84771203625,15.162857294140625Q5.83167087625,15.082213394140625,5.83167087625,14.999989794140625Q5.83167087625,14.972484594140624,5.83348131625,14.945039294140624Q5.85264384625,13.254619194140625,7.05355545625,12.053708044140626Q8.27394020625,10.833323244140624,9.99983720625,10.833323184140625Q11.72573380625,10.833323184140625,12.94611830625,12.053708044140626Q14.147030806250001,13.254620294140626,14.166193006250001,14.945040494140624Q14.16800360625,14.972485294140625,14.16800360625,14.999989794140625Q14.16800310625,15.082213394140625,14.15196180625,15.162857294140625Q14.135920506249999,15.243501194140626,14.10445500625,15.319466094140624Q14.07298950625,15.395430994140625,14.02730800625,15.463797794140625Q13.98162750625,15.532164594140625,13.92348670625,15.590305594140625Q13.86534500625,15.648446594140625,13.79697850625,15.694127594140625Q13.72861190625,15.739808594140625,13.65264700625,15.771274594140625Q13.57668210625,15.802740094140624,13.49603800625,15.818781394140625Q13.41539380625,15.834822694140625,13.33317040625,15.834822694140625Q13.25094600625,15.834822694140625,13.17030240625,15.818781894140624Q13.089657806249999,15.802740094140624,13.013692806249999,15.771274594140625Q12.93772790625,15.739808594140625,12.86936140625,15.694127594140625Q12.80099490625,15.648446594140625,12.74285410625,15.590305794140626Q12.68471240625,15.532164594140625,12.63903140625,15.463798094140625Q12.59335040625,15.395430994140625,12.56188440625,15.319466094140624Q12.53041890625,15.243501194140626,12.514377606250001,15.162857294140625Q12.49833680625,15.082213394140625,12.49833730625,14.999989794140625Q12.49833730625,14.977924594140624,12.49950270625,14.955890194140625Q12.48419670625,13.948808394140626,11.76760770625,13.232219294140625Q11.03537800625,12.499989804140625,9.99983720625,12.499989804140625Q8.96429630625,12.499989804140625,8.23206670625,13.232219294140625Q7.51547783625,13.948808394140626,7.5001713062499995,14.955889194140624Z" fill-rule="evenodd" fill="#FFFFFF" fill-opacity="1"/></g></svg>