<svg xmlns="http://www.w3.org/2000/svg" xmlns:xlink="http://www.w3.org/1999/xlink" fill="none" version="1.1" width="20" height="20" viewBox="0 0 20 20"><defs><clipPath id="master_svg0_4_4652"><rect x="-0.8333333134651184" y="-0.8333333134651184" width="21.666666626930237" height="21.666666626930237" rx="0"/></clipPath></defs><g clip-path="url(#master_svg0_4_4652)"><path d="M1.25016278375,7.916656494140625L1.25016278375,16.666657494140622Q1.25016272375,17.357023194140623,1.73832175375,17.845175694140625Q2.22647474375,18.333322494140624,2.91682940375,18.333322494140624L17.083497093749997,18.333322494140624Q17.773863093750002,18.333322494140624,18.26201209375,17.845172894140624Q18.75016209375,17.357023194140623,18.75016209375,16.666657494140622L18.75016209375,7.916656494140625Q18.75016009375,7.834580332140625,18.73414809375,7.754081234140625Q18.71813609375,7.673582134140625,18.68672609375,7.597753644140625Q18.65531709375,7.521925154140625,18.60971809375,7.453681354140625Q18.56412109375,7.385437484140625,18.50608409375,7.327400864140625Q18.44804809375,7.269364234140625,18.37980509375,7.223765254140625Q18.31156009375,7.178166154140625,18.23573109375,7.146757004140625Q18.15990209375,7.1153477441406245,18.07940409375,7.099335494140625Q17.99890509375,7.083323244140625,17.91683009375,7.083323184140625L2.08349609375,7.083323184140625Q2.00141993175,7.083323244140625,1.92092083375,7.099335434140625Q1.84042173375,7.1153477441406245,1.76459324375,7.146757004140625Q1.6887647537500001,7.178166154140625,1.62052095375,7.223765254140625Q1.55227708375,7.269364234140625,1.49424046375,7.327400864140625Q1.43620383375,7.385437484140625,1.39060485375,7.453681354140625Q1.34500575375,7.521925154140625,1.31359660375,7.597753644140625Q1.28218734375,7.673582134140625,1.26617509375,7.754081234140625Q1.25016284375,7.834580332140625,1.25016278375,7.916656494140625ZM17.083497093749997,16.666656494140625L2.91682940375,16.666658394140626L2.91682940375,8.749989804140625L17.083497093749997,8.749989804140625L17.083497093749997,16.666656494140625Z" fill-rule="evenodd" fill="#FFFFFF" fill-opacity="1"/><path d="M1.25016272375,3.749989864140625L1.25016272375,7.916656494140625Q1.25016272375,7.998732594140625,1.26617503375,8.079231294140625Q1.28218728375,8.159729994140626,1.31359648375,8.235558494140625Q1.34500563375,8.311387094140624,1.39060473375,8.379630994140625Q1.43620383375,8.447874994140625,1.4942404037500001,8.505911794140625Q1.5522770237499999,8.563948194140625,1.62052089375,8.609547094140625Q1.6887647537500001,8.655146094140626,1.76459324375,8.686555394140626Q1.84042173375,8.717964694140626,1.92092082375,8.733976794140625Q2.00141992375,8.749989494140625,2.08349609375,8.749989494140625L17.91683009375,8.749989494140625Q17.99890609375,8.749989494140625,18.079405093749997,8.733977294140626Q18.15990409375,8.717964694140626,18.23573309375,8.686555394140626Q18.31156109375,8.655146094140626,18.37980509375,8.609547094140625Q18.44804809375,8.563948194140625,18.50608409375,8.505911794140625Q18.56412109375,8.447874994140625,18.60972209375,8.379630994140625Q18.65531909375,8.311387094140624,18.68672909375,8.235558494140625Q18.71814009375,8.159729994140626,18.73415209375,8.079231294140625Q18.75016409375,7.998732594140625,18.75016409375,7.916656494140625L18.75016409375,3.749989864140625Q18.75016409375,3.059634474140625,18.26201409375,2.571481104140625Q17.77386109375,2.083323124140625,17.08349609375,2.083323124140625L2.91682946375,2.083323244140625Q2.22647336375,2.083323244140625,1.73831808375,2.571478514140625Q1.25016272375,3.059633804140625,1.25016272375,3.749989864140625ZM2.91682946375,7.083322994140625L17.08349609375,7.083322994140625L17.08349609375,3.749989864140625L2.91682946375,3.749989924140625L2.91682946375,7.083322994140625Z" fill-rule="evenodd" fill="#FFFFFF" fill-opacity="1"/><path d="M7.49983721625,1.716674190140625Q7.50133693625,1.691687824140625,7.50133693625,1.666656494140625Q7.50133693625,1.584432624140625,7.48529577625,1.503788684140625Q7.46925473625,1.423144724140625,7.43778896625,1.347179774140625Q7.40632325625,1.271214814140625,7.36064213625,1.202848134140625Q7.31496101625,1.134481494140625,7.25681996625,1.0763404341406249Q7.19867890625,1.0181993841406252,7.13031226625,0.972518204140625Q7.06194558625,0.926837084140625,6.98598062625,0.895371374140625Q6.91001567625,0.863905664140625,6.82937171625,0.847864624140625Q6.74872777625,0.831823464140625,6.66650390625,0.831823464140625Q6.58428003625,0.831823464140625,6.50363609625,0.847864624140625Q6.42299213625,0.863905664140625,6.34702718625,0.895371434140625Q6.27106222625,0.926837144140625,6.20269554625,0.972518264140625Q6.13432890625,1.0181993841406252,6.07618784625,1.0763404341406249Q6.01804679625,1.134481494140625,5.97236561625,1.202848134140625Q5.92668449625,1.271214814140625,5.89521878625,1.347179774140625Q5.86375307625,1.423144724140625,5.84771203625,1.503788684140625Q5.83167087625,1.584432624140625,5.83167087625,1.666656494140625Q5.83167087625,1.691687824140625,5.83317059625,1.716674190140625L5.83317059625,4.949972194140625Q5.83167087625,4.974958394140625,5.83167087625,4.999989794140625Q5.83167087625,5.082213394140625,5.84771203625,5.162857294140625Q5.86375307625,5.2435011941406255,5.89521884625,5.319466094140624Q5.92668455625,5.395430994140625,5.97236567625,5.463797794140625Q6.01804679625,5.532164594140625,6.07618784625,5.5903055941406254Q6.13432890625,5.6484465941406246,6.20269554625,5.694127594140625Q6.27106222625,5.739808594140625,6.34702718625,5.771274594140625Q6.42299213625,5.802740094140625,6.50363609625,5.818781394140625Q6.58428003625,5.834822694140625,6.66650390625,5.834822694140625Q6.74872777625,5.834822694140625,6.82937171625,5.818781894140625Q6.91001567625,5.802740094140625,6.98598062625,5.771274594140625Q7.06194558625,5.739808594140625,7.13031226625,5.694127594140625Q7.19867890625,5.6484465941406246,7.25681996625,5.590305794140625Q7.31496101625,5.532164594140625,7.36064219625,5.463798094140625Q7.40632331625,5.395430994140625,7.43778902625,5.319466094140624Q7.46925473625,5.2435011941406255,7.48529577625,5.162857294140625Q7.50133693625,5.082213394140625,7.50133693625,4.999989794140625Q7.50133693625,4.974958394140625,7.49983721625,4.949972194140625L7.49983721625,1.716674190140625Z" fill-rule="evenodd" fill="#FFFFFF" fill-opacity="1"/><path d="M14.16682940375,1.716674190140625Q14.16832912375,1.691687824140625,14.16832912375,1.666656494140625Q14.16832912375,1.584432624140625,14.15228796375,1.503788684140625Q14.13624692375,1.423144724140625,14.10478115375,1.347179774140625Q14.07331544375,1.271214814140625,14.02763432375,1.202848134140625Q13.98195320375,1.134481494140625,13.92381215375,1.0763404341406249Q13.86567109375,1.0181993841406252,13.79730445375,0.972518204140625Q13.72893777375,0.926837084140625,13.65297281375,0.895371374140625Q13.57700786375,0.863905664140625,13.49636390375,0.847864624140625Q13.41571996375,0.831823464140625,13.33349609375,0.831823464140625Q13.25127222375,0.831823464140625,13.17062828375,0.847864624140625Q13.08998432375,0.863905664140625,13.01401937375,0.895371434140625Q12.93805441375,0.926837144140625,12.86968773375,0.972518264140625Q12.80132109375,1.0181993841406252,12.74318003375,1.0763404341406249Q12.68503898375,1.134481494140625,12.63935780375,1.202848134140625Q12.593676683750001,1.271214814140625,12.56221097375,1.347179774140625Q12.53074526375,1.423144724140625,12.51470422375,1.503788684140625Q12.49866306375,1.584432624140625,12.49866306375,1.666656494140625Q12.49866306375,1.691687824140625,12.50016278375,1.716674190140625L12.50016278375,4.949972194140625Q12.49866306375,4.974958394140625,12.49866306375,4.999989794140625Q12.49866306375,5.082213394140625,12.51470422375,5.162857294140625Q12.53074526375,5.2435011941406255,12.56221103375,5.319466094140624Q12.59367674375,5.395430994140625,12.63935786375,5.463797794140625Q12.68503898375,5.532164594140625,12.74318003375,5.5903055941406254Q12.80132109375,5.6484465941406246,12.86968773375,5.694127594140625Q12.93805441375,5.739808594140625,13.01401937375,5.771274594140625Q13.08998432375,5.802740094140625,13.17062828375,5.818781394140625Q13.25127222375,5.834822694140625,13.33349609375,5.834822694140625Q13.41571996375,5.834822694140625,13.49636390375,5.818781894140625Q13.57700786375,5.802740094140625,13.65297281375,5.771274594140625Q13.72893777375,5.739808594140625,13.79730445375,5.694127594140625Q13.86567109375,5.6484465941406246,13.92381215375,5.590305794140625Q13.98195320375,5.532164594140625,14.02763438375,5.463798094140625Q14.073315503749999,5.395430994140625,14.10478121375,5.319466094140624Q14.13624692375,5.2435011941406255,14.15228796375,5.162857294140625Q14.16832912375,5.082213394140625,14.16832912375,4.999989794140625Q14.16832912375,4.974958394140625,14.16682940375,4.949972194140625L14.16682940375,1.716674190140625Z" fill-rule="evenodd" fill="#FFFFFF" fill-opacity="1"/><path d="M11.71652160225,14.999989804140625Q11.69153523625,15.001489524140625,11.66650390625,15.001489524140625Q11.58428003625,15.001489524140625,11.50363609625,14.985448364140625Q11.42299213625,14.969407324140626,11.34702718625,14.937941554140625Q11.27106222625,14.906475844140624,11.20269554625,14.860794724140625Q11.13432890625,14.815113604140626,11.07618784625,14.756972554140624Q11.01804679625,14.698831494140626,10.97236561625,14.630464854140625Q10.926684496250001,14.562098174140624,10.89521878625,14.486133214140626Q10.86375307625,14.410168264140625,10.84771203625,14.329524304140625Q10.83167087625,14.248880364140625,10.83167087625,14.166656494140625Q10.83167087625,14.084432624140625,10.84771203625,14.003788684140625Q10.86375307625,13.923144724140625,10.89521884625,13.847179774140624Q10.92668455625,13.771214814140626,10.97236567625,13.702848134140625Q11.01804679625,13.634481494140624,11.07618784625,13.576340434140626Q11.13432890625,13.518199384140624,11.20269554625,13.472518204140625Q11.27106222625,13.426837084140626,11.34702718625,13.395371374140625Q11.42299213625,13.363905664140624,11.50363609625,13.347864624140625Q11.58428003625,13.331823464140625,11.66650390625,13.331823464140625Q11.69153523625,13.331823464140625,11.71652160225,13.333323184140625L14.11648630625,13.333323184140625Q14.14147260625,13.331823464140625,14.16650390625,13.331823464140625Q14.248727806249999,13.331823464140625,14.32937170625,13.347864624140625Q14.410015606249999,13.363905664140624,14.48598050625,13.395371434140625Q14.56194540625,13.426837144140626,14.63031220625,13.472518264140625Q14.69867870625,13.518199384140624,14.756819706249999,13.576340434140626Q14.81496100625,13.634481494140624,14.86064200625,13.702848134140625Q14.90632320625,13.771214814140626,14.93778900625,13.847179774140624Q14.96925450625,13.923144724140625,14.98529580625,14.003788684140625Q15.00133680625,14.084432624140625,15.00133700625,14.166656494140625Q15.00133680625,14.248880364140625,14.98529580625,14.329524304140625Q14.96925450625,14.410168264140625,14.93778870625,14.486133214140626Q14.90632290625,14.562098174140624,14.86064200625,14.630464854140625Q14.81496100625,14.698831494140626,14.756820006249999,14.756972554140624Q14.69867900625,14.815113604140626,14.63031200625,14.860794784140625Q14.56194540625,14.906475904140624,14.48598050625,14.937941614140625Q14.410015606249999,14.969407324140626,14.32937190625,14.985448364140625Q14.248727806249999,15.001489524140625,14.16650390625,15.001489524140625Q14.14147260625,15.001489524140625,14.11648630625,14.999989804140625L11.71652160225,14.999989804140625Z" fill-rule="evenodd" fill="#FFFFFF" fill-opacity="1"/><path d="M5.88351378975,14.999989804140625Q5.85852742375,15.001489524140625,5.83349609375,15.001489524140625Q5.75127222375,15.001489524140625,5.67062828375,14.985448364140625Q5.58998432375,14.969407324140626,5.51401937375,14.937941554140625Q5.43805441375,14.906475844140624,5.36968773375,14.860794724140625Q5.30132109375,14.815113604140626,5.24318003375,14.756972554140624Q5.18503898375,14.698831494140626,5.13935780375,14.630464854140625Q5.09367668375,14.562098174140624,5.06221097375,14.486133214140626Q5.03074526375,14.410168264140625,5.01470422375,14.329524304140625Q4.99866306375,14.248880364140625,4.99866306375,14.166656494140625Q4.99866306375,14.084432624140625,5.01470422375,14.003788684140625Q5.03074526375,13.923144724140625,5.06221103375,13.847179774140624Q5.09367674375,13.771214814140626,5.13935786375,13.702848134140625Q5.18503898375,13.634481494140624,5.24318003375,13.576340434140626Q5.30132109375,13.518199384140624,5.36968773375,13.472518204140625Q5.43805441375,13.426837084140626,5.51401937375,13.395371374140625Q5.58998432375,13.363905664140624,5.67062828375,13.347864624140625Q5.75127222375,13.331823464140625,5.83349609375,13.331823464140625Q5.85852742375,13.331823464140625,5.88351378975,13.333323184140625L8.28347849375,13.333323184140625Q8.30846479375,13.331823464140625,8.33349609375,13.331823464140625Q8.415719993749999,13.331823464140625,8.49636389375,13.347864624140625Q8.577007793749999,13.363905664140624,8.65297269375,13.395371434140625Q8.72893759375,13.426837144140626,8.79730439375,13.472518264140625Q8.86567089375,13.518199384140624,8.923811893749999,13.576340434140626Q8.98195319375,13.634481494140624,9.02763419375,13.702848134140625Q9.07331539375,13.771214814140626,9.10478119375,13.847179774140624Q9.13624669375,13.923144724140625,9.15228799375,14.003788684140625Q9.16832899375,14.084432624140625,9.16832919375,14.166656494140625Q9.16832899375,14.248880364140625,9.15228799375,14.329524304140625Q9.13624669375,14.410168264140625,9.10478089375,14.486133214140626Q9.07331509375,14.562098174140624,9.02763419375,14.630464854140625Q8.98195319375,14.698831494140626,8.923812193749999,14.756972554140624Q8.86567119375,14.815113604140626,8.79730419375,14.860794784140625Q8.72893759375,14.906475904140624,8.65297269375,14.937941614140625Q8.577007793749999,14.969407324140626,8.49636409375,14.985448364140625Q8.415719993749999,15.001489524140625,8.33349609375,15.001489524140625Q8.30846479375,15.001489524140625,8.28347849375,14.999989804140625L5.88351378975,14.999989804140625Z" fill-rule="evenodd" fill="#FFFFFF" fill-opacity="1"/><path d="M11.71652160225,11.666676815859375Q11.69153523625,11.668176535859375,11.66650390625,11.668176535859375Q11.58428003625,11.668176535859375,11.50363609625,11.652135375859375Q11.42299213625,11.636094335859376,11.34702718625,11.604628565859375Q11.27106222625,11.573162855859374,11.20269554625,11.527481735859375Q11.13432890625,11.481800615859376,11.07618784625,11.423659565859374Q11.01804679625,11.365518505859376,10.97236561625,11.297151865859375Q10.926684496250001,11.228785185859374,10.89521878625,11.152820225859376Q10.86375307625,11.076855275859375,10.84771203625,10.996211315859375Q10.83167087625,10.915567375859375,10.83167087625,10.833343505859375Q10.83167087625,10.751119635859375,10.84771203625,10.670475695859375Q10.86375307625,10.589831735859375,10.89521884625,10.513866785859374Q10.92668455625,10.437901825859376,10.97236567625,10.369535145859375Q11.01804679625,10.301168505859374,11.07618784625,10.243027445859376Q11.13432890625,10.184886395859374,11.20269554625,10.139205215859375Q11.27106222625,10.093524095859376,11.34702718625,10.062058385859375Q11.42299213625,10.030592675859374,11.50363609625,10.014551635859375Q11.58428003625,9.998510475859375,11.66650390625,9.998510475859375Q11.69153523625,9.998510475859375,11.71652160225,10.000010195859375L14.11648630625,10.000010195859375Q14.14147260625,9.998510475859375,14.16650390625,9.998510475859375Q14.248727806249999,9.998510475859375,14.32937170625,10.014551635859375Q14.410015606249999,10.030592675859374,14.48598050625,10.062058445859375Q14.56194540625,10.093524155859376,14.63031220625,10.139205275859375Q14.69867870625,10.184886395859374,14.756819706249999,10.243027445859376Q14.81496100625,10.301168505859374,14.86064200625,10.369535145859375Q14.90632320625,10.437901825859376,14.93778900625,10.513866785859374Q14.96925450625,10.589831735859375,14.98529580625,10.670475695859375Q15.00133680625,10.751119635859375,15.00133700625,10.833343505859375Q15.00133680625,10.915567375859375,14.98529580625,10.996211315859375Q14.96925450625,11.076855275859375,14.93778870625,11.152820225859376Q14.90632290625,11.228785185859374,14.86064200625,11.297151865859375Q14.81496100625,11.365518505859376,14.756820006249999,11.423659565859374Q14.69867900625,11.481800615859376,14.63031200625,11.527481795859375Q14.56194540625,11.573162915859374,14.48598050625,11.604628625859375Q14.410015606249999,11.636094335859376,14.32937190625,11.652135375859375Q14.248727806249999,11.668176535859375,14.16650390625,11.668176535859375Q14.14147260625,11.668176535859375,14.11648630625,11.666676815859375L11.71652160225,11.666676815859375Z" fill-rule="evenodd" fill="#FFFFFF" fill-opacity="1"/><path d="M5.88351378975,11.666676815859375Q5.85852742375,11.668176535859375,5.83349609375,11.668176535859375Q5.75127222375,11.668176535859375,5.67062828375,11.652135375859375Q5.58998432375,11.636094335859376,5.51401937375,11.604628565859375Q5.43805441375,11.573162855859374,5.36968773375,11.527481735859375Q5.30132109375,11.481800615859376,5.24318003375,11.423659565859374Q5.18503898375,11.365518505859376,5.13935780375,11.297151865859375Q5.09367668375,11.228785185859374,5.06221097375,11.152820225859376Q5.03074526375,11.076855275859375,5.01470422375,10.996211315859375Q4.99866306375,10.915567375859375,4.99866306375,10.833343505859375Q4.99866306375,10.751119635859375,5.01470422375,10.670475695859375Q5.03074526375,10.589831735859375,5.06221103375,10.513866785859374Q5.09367674375,10.437901825859376,5.13935786375,10.369535145859375Q5.18503898375,10.301168505859374,5.24318003375,10.243027445859376Q5.30132109375,10.184886395859374,5.36968773375,10.139205215859375Q5.43805441375,10.093524095859376,5.51401937375,10.062058385859375Q5.58998432375,10.030592675859374,5.67062828375,10.014551635859375Q5.75127222375,9.998510475859375,5.83349609375,9.998510475859375Q5.85852742375,9.998510475859375,5.88351378975,10.000010195859375L8.28347849375,10.000010195859375Q8.30846479375,9.998510475859375,8.33349609375,9.998510475859375Q8.415719993749999,9.998510475859375,8.49636389375,10.014551635859375Q8.577007793749999,10.030592675859374,8.65297269375,10.062058445859375Q8.72893759375,10.093524155859376,8.79730439375,10.139205275859375Q8.86567089375,10.184886395859374,8.923811893749999,10.243027445859376Q8.98195319375,10.301168505859374,9.02763419375,10.369535145859375Q9.07331539375,10.437901825859376,9.10478119375,10.513866785859374Q9.13624669375,10.589831735859375,9.15228799375,10.670475695859375Q9.16832899375,10.751119635859375,9.16832919375,10.833343505859375Q9.16832899375,10.915567375859375,9.15228799375,10.996211315859375Q9.13624669375,11.076855275859375,9.10478089375,11.152820225859376Q9.07331509375,11.228785185859374,9.02763419375,11.297151865859375Q8.98195319375,11.365518505859376,8.923812193749999,11.423659565859374Q8.86567119375,11.481800615859376,8.79730419375,11.527481795859375Q8.72893759375,11.573162915859374,8.65297269375,11.604628625859375Q8.577007793749999,11.636094335859376,8.49636409375,11.652135375859375Q8.415719993749999,11.668176535859375,8.33349609375,11.668176535859375Q8.30846479375,11.668176535859375,8.28347849375,11.666676815859375L5.88351378975,11.666676815859375Z" fill-rule="evenodd" fill="#FFFFFF" fill-opacity="1"/></g></svg>