<svg xmlns="http://www.w3.org/2000/svg" xmlns:xlink="http://www.w3.org/1999/xlink" fill="none" version="1.1" width="20" height="20" viewBox="0 0 20 20"><defs><clipPath id="master_svg0_4_4676"><rect x="-0.8349999785423279" y="-0.8349999785423279" width="21.669999957084656" height="21.669999957084656" rx="0"/></clipPath></defs><g clip-path="url(#master_svg0_4_4676)"><path d="M0.83150392625,14.666676505859375L0.83150392625,5.333343505859375Q0.83150392625,4.159048195859375,1.66185623405,3.328695833659375Q2.49220847625,2.498343645859375,3.66650390625,2.498343525859375L16.33317090625,2.498343525859375Q17.507465906249998,2.498343525859375,18.33781790625,3.328695883459375Q19.16817090625,4.159049155859375,19.16817090625,5.333343505859375L19.16817090625,14.666676505859375Q19.16817090625,15.840970505859374,18.33781790625,16.671323505859377Q17.50746490625,17.501677505859377,16.33317090625,17.501677505859377L3.66650390625,17.501677505859377Q2.4922096162500003,17.501677505859377,1.66185628385,16.671323505859377Q0.83150404625,15.840971505859375,0.83150392625,14.666676505859375ZM2.50150388625,14.666676505859375Q2.50150388625,15.149235505859375,2.84272440625,15.490455505859375Q3.18394530625,15.831676505859376,3.66650390625,15.831676505859376L16.33317090625,15.831676505859376Q16.81572990625,15.831676505859376,17.15694990625,15.490455505859375Q17.49816990625,15.149235505859375,17.49816990625,14.666676505859375L17.49816990625,5.333343505859375Q17.49816990625,4.850783905859375,17.15694990625,4.5095640058593744Q16.81572990625,4.168343485859375,16.33317090625,4.168343485859375L3.66650390625,4.168343485859375Q3.18394510625,4.168343485859375,2.84272440625,4.5095640058593744Q2.50150388625,4.850784805859375,2.50150388625,5.333343505859375L2.50150388625,14.666676505859375Z" fill="#FFFFFF" fill-opacity="1"/><path d="M5.31423127625,6.981070625859375Q4.58150392625,7.713797745859375,4.58150392625,8.750010105859374Q4.58150392625,9.786222505859374,5.31423137625,10.518949505859375Q6.04695856625,11.251676605859375,7.08317050625,11.251676605859375Q8.11938290625,11.251676605859375,8.85210990625,10.518949305859374Q9.58483700625,9.786221705859376,9.58483700625,8.750009305859376Q9.58483700625,7.713797505859375,8.85210990625,6.981070625859375Q8.11938290625,6.248343525859375,7.0831697062500005,6.248343525859375Q6.04695862625,6.248343525859375,5.31423127625,6.981070625859375ZM6.49509950625,9.338081405859375Q6.25150388625,9.094485505859375,6.25150388625,8.750010105859374Q6.25150388625,8.405534405859376,6.4950994062500005,8.161939005859375Q6.7386950062499995,7.918343485859375,7.0831697062500005,7.918343485859375Q7.4276459062499995,7.918343485859375,7.67124180625,8.161939005859375Q7.91483740625,8.405534605859375,7.91483740625,8.750009305859376Q7.91483740625,9.094485505859375,7.67124180625,9.338081405859375Q7.4276459062499995,9.581677005859376,7.08317050625,9.581677005859376Q6.7386953062499995,9.581677005859376,6.49509950625,9.338081405859375Z" fill-rule="evenodd" fill="#FFFFFF" fill-opacity="1"/><path d="M4.01092064375,11.618268494140626Q3.74849611375,12.238707894140624,3.74849611375,12.916656494140625L3.74866306375,12.916656494140625Q3.74866306375,12.998880394140624,3.76470422375,13.079524294140626Q3.78074526375,13.160168194140624,3.81221103375,13.236133094140625Q3.84367674375,13.312097994140625,3.88935786375,13.380464794140625Q3.93503898375,13.448831294140625,3.99318003375,13.506972294140624Q4.05132109375,13.565113594140625,4.11968773375,13.610794594140625Q4.18805441375,13.656475794140626,4.26401937375,13.687941594140625Q4.33998432375,13.719407094140625,4.42062828375,13.735448394140626Q4.50127222375,13.751489394140625,4.58349609375,13.751489594140626Q4.66571996375,13.751489394140625,4.74636390375,13.735448394140626Q4.82700786375,13.719407094140625,4.90297281375,13.687941294140625Q4.97893777375,13.656475494140626,5.04730445375,13.610794594140625Q5.11567109375,13.565113594140625,5.17381215375,13.506972594140624Q5.23195320375,13.448831594140625,5.27763438375,13.380464594140625Q5.32331550375,13.312097994140625,5.35478121375,13.236133094140625Q5.38624692375,13.160168194140624,5.40228796375,13.079524494140625Q5.41832912375,12.998880394140624,5.41832912375,12.916656494140625L5.41849607375,12.916656494140625Q5.41849607375,12.226993594140625,5.90616469375,11.739325094140625Q6.39383319375,11.251656474140624,7.08349609375,11.251656474140624Q7.77315899375,11.251656474140624,8.26082749375,11.739325094140625Q8.74849609375,12.226993594140625,8.74849609375,12.916656494140625L8.74866299375,12.916656494140625Q8.74866299375,12.998880394140624,8.76470379375,13.079524294140626Q8.78074459375,13.160168194140624,8.812210593749999,13.236133094140625Q8.84367609375,13.312097994140625,8.88935709375,13.380464794140625Q8.93503859375,13.448831294140625,8.99317979375,13.506972294140624Q9.051320593749999,13.565113594140625,9.119687093749999,13.610794594140625Q9.18805409375,13.656475794140626,9.26401899375,13.687941594140625Q9.33998389375,13.719407094140625,9.42062809375,13.735448394140626Q9.501272193750001,13.751489394140625,9.58349609375,13.751489594140626Q9.665719993749999,13.751489394140625,9.74636359375,13.735448394140626Q9.82700729375,13.719407094140625,9.90297219375,13.687941294140625Q9.97893719375,13.656475494140626,10.047303693749999,13.610794594140625Q10.115670693750001,13.565113594140625,10.173811893749999,13.506972594140624Q10.23195269375,13.448831594140625,10.277633693750001,13.380464594140625Q10.32331469375,13.312097994140625,10.354780693750001,13.236133094140625Q10.38624619375,13.160168194140624,10.40228749375,13.079524494140625Q10.41832879375,12.998880394140624,10.41832919375,12.916656494140625L10.41849609375,12.916656494140625Q10.41849609375,12.238709094140624,10.15607169375,11.618268494140626Q9.902867293749999,11.019628164140626,9.441695693749999,10.558456764140624Q8.980524093749999,10.097285004140625,8.38188429375,9.844081044140625Q7.76144509375,9.581656514140626,7.08349609375,9.581656514140626Q6.40554799375,9.581656514140626,5.78510809375,9.844081164140626Q5.18646764375,10.097285454140625,4.72529636375,10.558456764140624Q4.26412490375,11.019628164140626,4.01092064375,11.618268494140626Z" fill-rule="evenodd" fill="#FFFFFF" fill-opacity="1"/><path d="M11.66650390625,9.168343485859374L14.99983720625,9.168343485859374L14.99983720625,9.168176535859375Q15.08206080625,9.168176535859375,15.16270470625,9.152135375859375Q15.24334860625,9.136094335859376,15.31931350625,9.104628565859375Q15.39527840625,9.073162855859374,15.46364520625,9.027481735859375Q15.53201200625,8.981800615859376,15.59015300625,8.923659565859374Q15.64829400625,8.865518505859376,15.69397500625,8.797151865859375Q15.73965600625,8.728785185859374,15.77112200625,8.652820225859376Q15.80258750625,8.576855275859375,15.81862880625,8.496211315859375Q15.83467010625,8.415567375859375,15.83467010625,8.333343505859375Q15.83467010625,8.251119635859375,15.81862930625,8.170475695859375Q15.80258750625,8.089831735859375,15.77112200625,8.013866785859374Q15.73965600625,7.937901825859375,15.69397500625,7.869535145859375Q15.64829400625,7.801168505859375,15.590153206250001,7.743027445859375Q15.53201200625,7.684886395859375,15.46364550625,7.639205215859375Q15.39527840625,7.593524095859375,15.31931350625,7.562058385859375Q15.24334860625,7.530592675859375,15.16270470625,7.514551635859375Q15.08206080625,7.498510475859375,14.99983720625,7.498510475859375L14.99983720625,7.498343525859375L11.66650390625,7.498343525859375L11.66650390625,7.498510475859375Q11.58428003625,7.498510475859375,11.50363609625,7.514551635859375Q11.42299213625,7.530592675859375,11.34702718625,7.562058445859375Q11.27106222625,7.593524155859375,11.20269554625,7.639205275859375Q11.13432890625,7.684886395859375,11.07618784625,7.743027445859375Q11.01804679625,7.801168505859375,10.97236561625,7.869535145859375Q10.926684496250001,7.937901825859375,10.89521878625,8.013866785859374Q10.86375307625,8.089831735859375,10.84771203625,8.170475695859375Q10.83167087625,8.251119635859375,10.83167087625,8.333343505859375Q10.83167087625,8.415567375859375,10.84771203625,8.496211315859375Q10.86375307625,8.576855275859375,10.89521884625,8.652820225859376Q10.92668455625,8.728785185859374,10.97236567625,8.797151865859375Q11.01804679625,8.865518505859376,11.07618784625,8.923659565859374Q11.13432890625,8.981800615859376,11.20269554625,9.027481795859375Q11.27106222625,9.073162915859374,11.34702718625,9.104628625859375Q11.42299213625,9.136094335859376,11.50363609625,9.152135375859375Q11.58428003625,9.168176535859375,11.66650390625,9.168176535859375L11.66650390625,9.168343485859374Z" fill-rule="evenodd" fill="#FFFFFF" fill-opacity="1"/><path d="M12.5,12.501656474140624L15,12.501656474140624L15,12.501489524140625Q15.082223899999999,12.501489524140625,15.1628678,12.485448364140625Q15.243511699999999,12.469407324140626,15.3194766,12.437941554140625Q15.3954415,12.406475844140624,15.4638083,12.360794724140625Q15.5321748,12.315113604140626,15.590315799999999,12.256972554140624Q15.6484571,12.198831494140626,15.6941381,12.130464854140625Q15.7398193,12.062098174140624,15.7712851,11.986133214140626Q15.8027506,11.910168264140625,15.8187919,11.829524304140625Q15.8348329,11.748880364140625,15.8348331,11.666656494140625Q15.8348329,11.584432624140625,15.8187919,11.503788684140625Q15.8027506,11.423144724140625,15.7712848,11.347179774140624Q15.739819,11.271214814140626,15.6941381,11.202848134140625Q15.6484571,11.134481494140624,15.590316099999999,11.076340434140626Q15.5321751,11.018199384140624,15.4638081,10.972518204140625Q15.3954415,10.926837084140626,15.3194766,10.895371374140625Q15.243511699999999,10.863905664140624,15.162868,10.847864624140625Q15.082223899999999,10.831823464140625,15,10.831823464140625L15,10.831656514140626L12.5,10.831656514140626L12.5,10.831823464140625Q12.41777613,10.831823464140625,12.33713219,10.847864624140625Q12.25648823,10.863905664140624,12.18052328,10.895371434140625Q12.10455832,10.926837144140626,12.03619164,10.972518264140625Q11.967825,11.018199384140624,11.90968394,11.076340434140626Q11.85154289,11.134481494140624,11.80586171,11.202848134140625Q11.760180590000001,11.271214814140626,11.72871488,11.347179774140624Q11.69724917,11.423144724140625,11.68120813,11.503788684140625Q11.66516697,11.584432624140625,11.66516697,11.666656494140625Q11.66516697,11.748880364140625,11.68120813,11.829524304140625Q11.69724917,11.910168264140625,11.72871494,11.986133214140626Q11.76018065,12.062098174140624,11.80586177,12.130464854140625Q11.85154289,12.198831494140626,11.90968394,12.256972554140624Q11.967825,12.315113604140626,12.03619164,12.360794784140625Q12.10455832,12.406475904140624,12.18052328,12.437941614140625Q12.25648823,12.469407324140626,12.33713219,12.485448364140625Q12.41777613,12.501489524140625,12.5,12.501489524140625L12.5,12.501656474140624Z" fill-rule="evenodd" fill="#FFFFFF" fill-opacity="1"/></g></svg>