<svg xmlns="http://www.w3.org/2000/svg" xmlns:xlink="http://www.w3.org/1999/xlink" fill="none" version="1.1" width="20" height="20" viewBox="0 0 20 20"><defs><clipPath id="master_svg0_4_4942"><rect x="-0.8333333134651184" y="-0.8333333134651184" width="21.666666626930237" height="21.666666626930237" rx="0"/></clipPath></defs><g clip-path="url(#master_svg0_4_4942)"><path d="M8.41184760625,18.24176954296875Q8.782168406250001,17.08335354296875,9.99983690625,17.08335354296875Q11.21750540625,17.08335354296875,11.58782580625,18.24176954296875Q11.61249830625,18.31894654296875,11.65157320625,18.38992354296875Q11.69064890625,18.46089954296875,11.74266390625,18.52301754296875Q11.79468090625,18.58514054296875,11.85768890625,18.63607754296875Q11.92069590625,18.68701554296875,11.99233590625,18.72485954296875Q12.06397690625,18.76270654296875,12.14156590625,18.78604554296875Q12.21915390625,18.80938154296875,12.29978490625,18.81733354296875Q12.38041690625,18.82528654296875,12.46106890625,18.81755854296875Q12.54172190625,18.80982954296875,12.61937390625,18.78670854296875Q14.92706990625,18.09965554296875,16.60532990625,16.35574154296875Q16.65846090625,16.30053154296875,16.700633906249998,16.23655654296875Q16.74280690625,16.172583542968752,16.77260890625,16.10199154296875Q16.80240790625,16.03140054296875,16.81883590625,15.95655854296875Q16.83526390625,15.88171554296875,16.83776890625,15.80513354296875Q16.84027290625,15.72854954296875,16.828768906249998,15.65279454296875Q16.817266906249998,15.57703954296875,16.792140906249998,15.50465154296875Q16.76701690625,15.43226454296875,16.729112906250002,15.36567154296875Q16.69120790625,15.29907854296875,16.64179590625,15.24051454296875Q16.24983790625,14.77595654296875,16.24983790625,14.16668854296875Q16.24983790625,12.50002254296875,17.91650390625,12.50002254296875Q17.99975590625,12.50002254296875,18.08251790625,12.50815354296875Q18.15877190625,12.51564554296875,18.23511090625,12.50910754296875Q18.31145090625,12.50256954296875,18.38532090625,12.48222054296875Q18.45918890625,12.46187154296875,18.52810890625,12.42839354296875Q18.59702690625,12.39491654296875,18.65868790625,12.34943254296875Q18.72034790625,12.30394954296875,18.77267990625,12.24798454296875Q18.82501190625,12.19202054296875,18.86626090625,12.12745254296875Q18.90751090625,12.06288354296875,18.93629490625,11.99187554296875Q18.96507990625,11.92086794296875,18.98043490625,11.84580234296875Q19.16650190625,10.93607424296875,19.16650190625,10.00002194296875Q19.16650190625,8.58682874296875,18.74662590625,7.25005344296875Q18.72670590625,7.18663594296875,18.69698490625,7.12717814296875Q18.66726290625,7.06772044296875,18.62849390625,7.01372624296875Q18.58972390625,6.95973114296875,18.54288490625,6.91256574296875Q18.49604390625,6.86539984296875,18.44232190625,6.82625584296875Q18.38859590625,6.78711174296875,18.32934590625,6.75697894296875Q18.27009590625,6.72684674296875,18.20681990625,6.70648814296875Q18.14353990625,6.68612914296875,18.07783490625,6.67605874296875Q18.01213090625,6.66598794296875,17.94565990625,6.66646094296875L17.91650390625,6.66668944296875Q16.24983790625,6.66668944296875,16.24983790625,5.00002314296875Q16.24983790625,4.61022804296875,16.42035690625,4.26434494296875Q16.44989390625,4.20443294296875,16.46950990625,4.14058114296875Q16.489125906250003,4.076729042968751,16.49831990625,4.01056764296875Q16.50751590625,3.94440624296875,16.50605390625,3.87762524296875Q16.50459290625,3.81084394296875,16.49251090625,3.74514814296875Q16.48043090625,3.6794526429687497,16.45803890625,3.61652004296875Q16.43564790625,3.55358744296875,16.403516906249997,3.49502504296875Q16.37138890625,3.43646274296875,16.33034090625,3.38376604296875Q16.289292906249997,3.3310692429687503,16.24037490625,3.28558384296875Q14.59931290625,1.75966878296875,12.45044890625,1.1648263929687501Q12.38155790625,1.1457561229687498,12.31042490625,1.13869685296875Q12.23929190625,1.13163757296875,12.16799690625,1.13679564296875Q12.09670090625,1.14195364296875,12.02732590625,1.1591781929687501Q11.95795090625,1.17640280296875,11.89252090625,1.20519072296875Q11.82709190625,1.2339786329687499,11.76752190625,1.27348882296875Q11.70795090625,1.31299895296875,11.65597920625,1.36207699296875Q11.60400870625,1.41115498296875,11.56115530625,1.46836704296875Q11.51830100625,1.52557900296875,11.48581600625,1.5892534529687499Q11.02116580625,2.50003564296875,9.99983690625,2.50003552296875Q8.97850890625,2.50003546296875,8.51385740625,1.58925309296875Q8.48137330625,1.52557870296875,8.43851950625,1.4683667429687501Q8.395665206250001,1.41115480296875,8.34369370625,1.36207682296875Q8.29172230625,1.3129988329687499,8.23215250625,1.27348870296875Q8.17258170625,1.23397857296875,8.10715290625,1.20519066296875Q8.041724206249999,1.17640274296875,7.97234920625,1.15917813296875Q7.90297320625,1.14195352296875,7.83167700625,1.1367955229687499Q7.76038170625,1.13163745296875,7.68924900625,1.13869673296875Q7.61811640625,1.1457560029687501,7.54922480625,1.16482627296875Q5.40036200625,1.75966851296875,3.75929780625,3.28558334296875Q3.71038010625,3.3310687429687498,3.66933200625,3.3837655429687503Q3.62828420625,3.43646254296875,3.59615440625,3.49502504296875Q3.5640247062499997,3.5535875429687502,3.54163360625,3.61652024296875Q3.5192426062499997,3.67945304296875,3.50716210625,3.7451489429687497Q3.49508150625,3.8108446429687497,3.49361990625,3.8776259429687503Q3.49215820625,3.94440724296875,3.50135280625,4.0105686429687495Q3.51054750625,4.07673024296875,3.53016360625,4.1405823429687505Q3.54977990625,4.204434442968751,3.57931650625,4.26434664296875Q3.74983720625,4.61023094296875,3.74983720625,5.00002244296875Q3.74983720625,6.66668944296875,2.08909714625,6.66671084296875L2.05400964625,6.66646094296875Q1.98753979625,6.66598794296875,1.92183554625,6.67605784296875Q1.85613125625,6.68612864296875,1.79285415625,6.70648714296875Q1.72957706425,6.72684574296875,1.67032738025,6.75697754296875Q1.61107770025,6.78710934296875,1.55735383625,6.82625294296875Q1.50362995625,6.86539654296875,1.45679053625,6.91256144296875Q1.40995111625,6.95972684296875,1.37118068625,7.01372054296875Q1.33241027625,7.06771374296875,1.30268934625,7.12717054296875Q1.27296841625,7.18662784296875,1.25304856625,7.25004484296875Q0.83317065625,8.586764342968749,0.83317065625,10.00002194296875Q0.83317065625,10.93609714296875,1.0192353762500002,11.84580234296875Q1.03458893625,11.92086794296875,1.06337308625,11.99187554296875Q1.09215724625,12.06288354296875,1.13340681625,12.12745154296875Q1.17465641625,12.19202054296875,1.22698831625,12.24798454296875Q1.27932023625,12.30394954296875,1.34097966625,12.34943254296875Q1.40263911625,12.39491654296875,1.47155858625,12.42839354296875Q1.54047804625,12.46187154296875,1.61434655625,12.48222054296875Q1.68821505825,12.50256954296875,1.76455569225,12.50910854296875Q1.84089632625,12.51564554296875,1.91714927625,12.50815454296875Q1.99992483625,12.50002254296875,2.08317053625,12.50002254296875Q3.74983720625,12.50002254296875,3.74983720625,14.16668854296875Q3.74983720625,14.77595654296875,3.35787360625,15.24050554296875Q3.30846020625,15.29906954296875,3.27055510625,15.36566254296875Q3.23265000625,15.43225454296875,3.20752410625,15.50464254296875Q3.18239830625,15.57703254296875,3.17089440625,15.65278854296875Q3.15939040625,15.72854454296875,3.16189420625,15.80512754296875Q3.16439820625,15.88171154296875,3.18082580625,15.95655554296875Q3.1972536062500003,16.03139954296875,3.22705400625,16.10199154296875Q3.25685450625,16.17258454296875,3.2990286062500003,16.23655954296875Q3.34120260625,16.300535542968753,3.3943357062499997,16.355745542968748Q5.07261610625,18.09965854296875,7.38029960625,18.78670854296875Q7.45795340625,18.80982954296875,7.53860620625,18.81755854296875Q7.61925890625,18.82528454296875,7.69988970625,18.81732954296875Q7.78052040625,18.80937554296875,7.85810900625,18.78603954296875Q7.93569800625,18.76270254296875,8.00733800625,18.72485754296875Q8.07897850625,18.68701154296875,8.14198640625,18.63607454296875Q8.20499420625,18.58513854296875,8.257010506250001,18.52301754296875Q8.30902670625,18.46089954296875,8.348101606250001,18.38992154296875Q8.387177006249999,18.31894454296875,8.41184760625,18.24176954296875ZM12.83783290625,16.94641254296875Q11.97781290625,15.41668754296875,9.99983690625,15.41668754296875Q8.02185960625,15.41668754296875,7.16184040625,16.94641254296875Q6.01060530625,16.480019542968748,5.07158330625,15.65550754296875Q5.416503706249999,14.97445254296875,5.416503706249999,14.16668854296875Q5.416503706249999,12.78597954296875,4.44019360625,11.80966854296875Q3.63277150625,11.00224494296875,2.54875767625,10.86257174296875Q2.49983715625,10.43498514296875,2.49983715625,10.00002194296875Q2.49983715625,9.12187054296875,2.6973654062500003,8.281000642968749Q3.68993590625,8.107302642968751,4.44019360625,7.35704374296875Q5.416503706249999,6.38073254296875,5.416503706249999,5.00002244296875Q5.416503706249999,4.56057474296875,5.30737380625,4.14789104296875Q6.26336430625,3.37630474296875,7.41079040625,2.95764076296875Q8.33544400625,4.166702042968749,9.99983690625,4.166702042968749Q11.66422940625,4.166702042968749,12.58888390625,2.95764214296875Q13.73631090625,3.37630524296875,14.69230090625,4.14789274296875Q14.58317090625,4.5605766429687495,14.58317090625,5.00002314296875Q14.58317090625,6.38073204296875,15.55948290625,7.35704374296875Q16.31112290625,8.10868404296875,17.30245390625,8.281653842968751Q17.49983590625,9.122243442968749,17.49983590625,10.00002194296875Q17.49983590625,10.43497374296875,17.45091390625,10.86257454296875Q16.36690190625,11.00224594296875,15.55948090625,11.80966854296875Q14.58317090625,12.78597954296875,14.58317090625,14.16668854296875Q14.58317090625,14.97444954296875,14.92808390625,15.65550654296875Q13.98907190625,16.48001854296875,12.83783290625,16.94641254296875Z" fill-rule="evenodd" fill="#FFFFFF" fill-opacity="1"/><path d="M7.34851142375,7.34832822828125Q6.25016284375,8.44667688828125,6.25016313375,9.99997948828125Q6.25016278375,11.553282288281249,7.34851133375,12.65163088828125Q8.44686029375,13.74997948828125,10.00016259375,13.74997948828125Q11.55346489375,13.74997948828125,12.65181399375,12.65163088828125Q13.75016259375,11.55328178828125,13.75016259375,9.99997948828125Q13.75016259375,8.44667718828125,12.65181399375,7.34832831828125Q11.553465393749999,6.24997973828125,10.00016239375,6.24998002828125Q8.44685999375,6.24997967828125,7.34851142375,7.34832822828125ZM8.52702259375,11.47311928828125Q7.91682940375,10.86292628828125,7.91682940375,9.99997948828125Q7.91682970375,9.13703278828125,8.52702279375,8.52683948828125Q9.13721589375,7.91664629828125,10.00016259375,7.91664665828125Q10.86310939375,7.91664659828125,11.47330239375,8.52683968828125Q12.08349609375,9.13703318828125,12.08349609375,9.99997948828125Q12.08349609375,10.86292578828125,11.47330239375,11.47311928828125Q10.86310889375,12.08331298828125,10.00016259375,12.08331298828125Q9.13721609375,12.08331298828125,8.52702259375,11.47311928828125Z" fill-rule="evenodd" fill="#FFFFFF" fill-opacity="1"/></g></svg>