<svg xmlns="http://www.w3.org/2000/svg" xmlns:xlink="http://www.w3.org/1999/xlink" fill="none" version="1.1" width="20" height="20" viewBox="0 0 20 20"><defs><clipPath id="master_svg0_4_032"><rect x="-0.8333333134651184" y="-0.8333333134651184" width="21.666666626930237" height="21.666666626930237" rx="0"/></clipPath></defs><g clip-path="url(#master_svg0_4_032)"><path d="M5.00016278375,5.833343505859375L5.00016278375,6.666676805859375Q5.00016284375,6.748752605859375,5.01617503375,6.829251805859375Q5.0321873437499995,6.909750905859375,5.06359660375,6.985579205859375Q5.09500575375,7.061408005859375,5.14060485375,7.129651805859375Q5.18620383375,7.197895505859375,5.24424046375,7.255932305859375Q5.30227708375,7.313968705859375,5.37052095375,7.359567605859375Q5.43876475375,7.405166605859375,5.51459324375,7.436575905859375Q5.59042173375,7.467985105859375,5.67092083375,7.483997305859375Q5.75141993175,7.500009505859375,5.83349609375,7.500010005859375L14.58349609375,7.500010005859375Q14.66557119375,7.500009505859375,14.74607089375,7.483997305859375Q14.82656859375,7.467985105859375,14.90239719375,7.436575905859375Q14.97822569375,7.405166605859375,15.04647059375,7.359567605859375Q15.11471459375,7.313968705859375,15.17275139375,7.255932305859375Q15.23078729375,7.197895505859375,15.27638629375,7.129651805859375Q15.32198529375,7.061408005859375,15.35339449375,6.985579505859375Q15.38480379375,6.909750905859375,15.40081599375,6.829251805859375Q15.41682819375,6.748752605859375,15.41682909375,6.666676805859375L15.41682909375,5.833343505859375Q15.41682909375,4.452634805859375,14.44051739375,3.476322385859375Q13.46420479375,2.500010195859375,12.083496593749999,2.500010195859375L8.33349609375,2.500010195859375Q6.9527867937500005,2.500010255859375,5.97647486375,3.476322175859375Q5.00016278375,4.452634305859375,5.00016278375,5.833343505859375ZM6.66682940375,5.833343505859375L13.75016259375,5.833343505859375Q13.75016259375,5.142990105859375,13.26200629375,4.6548334058593746Q12.77384949375,4.166676815859375,12.083496593749999,4.166676815859375L8.33349609375,4.166676815859375Q7.64314269375,4.166676815859375,7.1549859937499996,4.6548334058593746Q6.66682940375,5.142990105859375,6.66682940375,5.833343505859375Z" fill-rule="evenodd" fill="#FFFFFF" fill-opacity="1"/><path d="M0.83317065625,10.416656494140625L0.83317065625,15.833322994140625Q0.83317065625,16.523688294140626,1.32132875625,17.011841794140626Q1.80948147625,17.499989994140627,2.49983715625,17.499989994140627L17.49983690625,17.499989994140627Q18.19020290625,17.499989994140627,18.67835390625,17.011837994140624Q19.16650190625,16.523688794140625,19.16650190625,15.833322994140625L19.16650190625,10.416656494140625Q19.16650190625,10.314068984140626,19.14162290625,10.214544464140625Q19.12171590625,10.134918864140625,19.08665690625,10.060706794140625Q19.05159790625,9.986494724140625,19.00273490625,9.920548084140625Q18.95387290625,9.854601384140626,18.89308390625,9.799454454140625Q18.83229490625,9.744307574140626,18.76191490625,9.702079654140626Q18.69153590625,9.659851794140625,18.61426890625,9.632165674140625Q18.53700490625,9.604479554140624,18.45582190625,9.592399184140625Q18.37463990625,9.580318804140624,18.29266190625,9.584308384140625Q18.21068190625,9.588297964140626,18.13105790625,9.608204244140625L9.99982640625,11.641001594140626L1.8686159362499999,9.608204244140625Q1.76909140625,9.583323244140624,1.66650390625,9.583323244140624Q1.58442775125,9.583323304140626,1.50392866625,9.599335614140625Q1.42342957625,9.615347864140626,1.34760111625,9.646757064140624Q1.27177262625,9.678166274140626,1.20352879625,9.723765314140625Q1.13528495625,9.769364354140626,1.07724833625,9.827400924140624Q1.01921176625,9.885437544140625,0.97361272625,9.953681384140625Q0.92801368625,10.021925214140625,0.89660447625,10.097753704140626Q0.86519527625,10.173582164140624,0.84918296625,10.254081254140624Q0.83317071625,10.334580339140626,0.83317065625,10.416656494140625ZM17.49983690625,15.833322994140625L2.49983715625,15.833322994140625L2.49983715625,11.483968694140625L9.59560010625,13.257900494140625Q9.99983690625,13.359055494140625,10.40425490625,13.257854894140625L17.49983690625,11.483968694140625L17.49983690625,15.833322994140625Z" fill-rule="evenodd" fill="#FFFFFF" fill-opacity="1"/><path d="M2.49983721625,11.199971694140626Q2.50133693625,11.224958394140625,2.50133693625,11.249989494140625Q2.50133693625,11.332213394140625,2.48529577625,11.412857094140625Q2.46925473625,11.493500694140625,2.43778896625,11.569465594140624Q2.40632325625,11.645430594140624,2.36064213625,11.713797594140626Q2.31496101625,11.782164594140625,2.25681996625,11.840305294140624Q2.19867890625,11.898446094140624,2.13031226625,11.944127594140625Q2.0619455862500002,11.989808594140625,1.98598062625,12.021274094140626Q1.91001567625,12.052740094140624,1.82937171625,12.068780894140625Q1.74872777625,12.084822694140625,1.66650390625,12.084822694140625Q1.58428003625,12.084822694140625,1.50363609625,12.068781394140625Q1.42299213625,12.052740094140624,1.34702718625,12.021274094140626Q1.27106222625,11.989808594140625,1.20269554625,11.944127094140626Q1.13432890625,11.898446094140624,1.0761878462499999,11.840305294140624Q1.0180467962500002,11.782164594140625,0.97236561625,11.713797594140626Q0.92668449625,11.645430594140624,0.89521878625,11.569465594140624Q0.86375307625,11.493500694140625,0.84771203625,11.412857094140625Q0.83167087625,11.332213394140625,0.83167087625,11.249989494140625Q0.83167087625,11.224957894140626,0.83317059625,11.199971694140626L0.83317059625,7.499989744140625Q0.83317059625,6.809623464140625,1.32132905625,6.321470414140625Q1.80948153625,5.833323184140625,2.49983715625,5.833323184140625L17.49983790625,5.833323184140625Q18.19020290625,5.833323184140625,18.67835190625,6.321473774140625Q19.16650390625,6.809624894140625,19.16650390625,7.499989744140625L19.16650390625,11.199980694140624Q19.16800290625,11.224962694140626,19.16800290625,11.249989494140625Q19.16800290625,11.332213394140625,19.15195990625,11.412857094140625Q19.13591990625,11.493500694140625,19.10445390625,11.569465594140624Q19.07298690625,11.645430594140624,19.02730790625,11.713797594140626Q18.98162490625,11.782164594140625,18.92348490625,11.840305294140624Q18.86534290625,11.898446094140624,18.79697590625,11.944127594140625Q18.72860890625,11.989808594140625,18.65264490625,12.021274094140626Q18.57667890625,12.052740094140624,18.49603690625,12.068780894140625Q18.41539390625,12.084822694140625,18.33316990625,12.084822694140625Q18.25094590625,12.084822694140625,18.17030190625,12.068781394140625Q18.08965690625,12.052740094140624,18.01369090625,12.021274094140626Q17.93772490625,11.989808594140625,17.86935790625,11.944127094140626Q17.80099090625,11.898446094140624,17.74285090625,11.840305294140624Q17.68470990625,11.782164594140625,17.639029906250002,11.713797594140626Q17.59334790625,11.645430594140624,17.56188290625,11.569465594140624Q17.53041790625,11.493500694140625,17.51437690625,11.412857094140625Q17.49833690625,11.332213394140625,17.49833690625,11.249989494140625Q17.49833690625,11.224962694140626,17.49983590625,11.199980694140624L17.49983590625,7.499989744140625L2.49983727625,7.499989804140625L2.49983721625,11.199971694140626Z" fill-rule="evenodd" fill="#FFFFFF" fill-opacity="1"/><path d="M11.04182939375,9.583323094140624Q11.04182939375,9.634496894140625,11.03681329375,9.685424294140624Q11.03179739375,9.736351694140625,11.02181389375,9.786542194140624Q11.01183029375,9.836732794140625,10.99697539375,9.885702994140624Q10.98212049375,9.934673294140625,10.96253709375,9.981951594140625Q10.94295379375,10.029230094140624,10.91883059375,10.074361294140624Q10.89470739375,10.119492494140625,10.86627659375,10.162041994140624Q10.83784619375,10.204591494140626,10.805381893749999,10.244149494140625Q10.77291759375,10.283707394140626,10.73673229375,10.319892694140625Q10.70054699375,10.356077994140625,10.66098909375,10.388542294140624Q10.621431093750001,10.421006594140625,10.57888149375,10.449436994140624Q10.53633209375,10.477867694140626,10.49120089375,10.501990794140625Q10.44606959375,10.526113994140625,10.39879109375,10.545697194140626Q10.35151279375,10.565280694140625,10.30254269375,10.580135594140625Q10.25357239375,10.594990694140625,10.20338179375,10.604974294140625Q10.15319129375,10.614957794140626,10.10226389375,10.619973894140625Q10.05133649375,10.624989794140625,10.00016269375,10.624989794140625Q9.94898903375,10.624989794140625,9.89806157375,10.619973694140626Q9.84713411375,10.614957794140626,9.79694354375,10.604974294140625Q9.74675309375,10.594990694140625,9.697782813749999,10.580135794140626Q9.64881253375,10.565280894140624,9.60153406375,10.545697494140626Q9.55425572375,10.526114194140625,9.50912439375,10.501990994140625Q9.46399319375,10.477867794140625,9.42144373375,10.449436994140624Q9.37889427375,10.421006594140625,9.33933642375,10.388542294140624Q9.29977852375,10.356077994140625,9.26359316375,10.319892694140625Q9.227407843750001,10.283707394140626,9.19494351375,10.244149494140625Q9.16247920375,10.204591494140626,9.13404855375,10.162041894140625Q9.10561792375,10.119492494140625,9.08149476375,10.074361294140624Q9.05737160175,10.029229994140625,9.03778823475,9.981951494140626Q9.01820487575,9.934673194140625,9.00334990775,9.885703094140625Q8.98849493675,9.836732794140625,8.97851142275,9.786542194140624Q8.96852791175,9.736351694140625,8.96351200295,9.685424294140624Q8.95849609375,9.634496894140625,8.95849609375,9.583323094140624Q8.95849609375,9.532149434140624,8.96351200295,9.481221974140626Q8.96852791175,9.430294514140625,8.97851142275,9.380103944140625Q8.98849493675,9.329913494140625,9.00334990775,9.280943214140624Q9.01820487575,9.231972934140625,9.03778823475,9.184694464140625Q9.05737160175,9.137416124140625,9.08149476375,9.092284794140625Q9.10561792375,9.047153594140624,9.13404855375,9.004604134140624Q9.16247920375,8.962054674140624,9.19494351375,8.922496824140625Q9.227407843750001,8.882938924140625,9.26359316375,8.846753564140625Q9.29977852375,8.810568244140626,9.33933639375,8.778103914140624Q9.37889427375,8.745639604140624,9.42144370375,8.717208954140625Q9.46399319375,8.688778324140625,9.50912445375,8.664655164140624Q9.55425572375,8.640532002140626,9.60153412375,8.620948635140625Q9.64881259375,8.601365276140625,9.697782813749999,8.586510308140625Q9.74675309375,8.571655337140625,9.79694360375,8.561671823140625Q9.84713417375,8.551688312140625,9.89806163375,8.546672403340626Q9.94898903375,8.541656494140625,10.00016269375,8.541656494140625Q10.05133649375,8.541656494140625,10.10226389375,8.546672403340626Q10.15319129375,8.551688312140625,10.20338179375,8.561671823140625Q10.25357239375,8.571655337140625,10.30254259375,8.586510308140625Q10.35151289375,8.601365276140625,10.39879119375,8.620948635140625Q10.44606969375,8.640532002140626,10.49120089375,8.664655164140624Q10.53633209375,8.688778324140625,10.57888159375,8.717208954140625Q10.621431093750001,8.745639604140624,10.66098909375,8.778103914140624Q10.70054699375,8.810568244140626,10.73673229375,8.846753564140625Q10.77291759375,8.882938924140625,10.805381893749999,8.922496794140624Q10.83784619375,8.962054674140624,10.86627659375,9.004604104140626Q10.89470729375,9.047153594140624,10.91883039375,9.092284854140624Q10.94295359375,9.137416124140625,10.962536793750001,9.184694524140625Q10.98212029375,9.231972994140625,10.99697519375,9.280943214140624Q11.01183029375,9.329913494140625,11.02181389375,9.380104004140625Q11.03179739375,9.430294574140625,11.03681349375,9.481222034140625Q11.04182939375,9.532149434140624,11.04182939375,9.583323094140624Z" fill="#FFFFFF" fill-opacity="1"/></g></svg>