<?xml version="1.0" standalone="no"?><!DOCTYPE svg PUBLIC "-//W3C//DTD SVG 1.1//EN" "http://www.w3.org/Graphics/SVG/1.1/DTD/svg11.dtd"><svg class="icon" width="200px" height="200.00px" viewBox="0 0 1024 1024" version="1.1" xmlns="http://www.w3.org/2000/svg"><path d="M664.064 489.472h90.112L936.448 332.8c-8.192-18.944-16.896-36.864-27.136-54.272L667.648 486.4l-3.584 3.072zM533.504 50.688v73.728l74.24-64c-24.064-4.608-48.64-8.192-74.24-9.728z m381.44 438.784l52.736-45.056c-3.072-22.016-8.192-43.52-14.848-64.512l-127.488 109.568h89.6z m-150.528-363.52l-230.912 198.656v77.824l278.528-240.128c-14.848-13.312-30.72-25.088-47.616-36.352z m-102.4-50.688l-128.512 110.592v77.824L721.92 101.376c-19.456-9.728-38.912-18.944-59.904-26.112z m221.696 163.84c-11.264-15.872-24.064-30.72-37.376-44.544l-312.32 268.8v26.112h59.392l290.304-250.368zM489.984 50.688C245.76 62.464 50.688 263.68 50.688 510.976c0 107.008 36.864 205.312 97.792 283.648l341.504-293.888V50.688z m30.208 482.304l-343.04 294.912C261.12 916.48 379.904 972.288 512 972.288c247.296 0 449.024-195.072 460.288-439.808h-452.096v0.512z"  /></svg>