<svg xmlns="http://www.w3.org/2000/svg" xmlns:xlink="http://www.w3.org/1999/xlink" fill="none" version="1.1" width="20" height="20" viewBox="0 0 20 20"><defs><clipPath id="master_svg0_11_0013"><rect x="-0.8333333134651184" y="-0.8333333134651184" width="21.666666626930237" height="21.666666626930237" rx="0"/></clipPath></defs><g clip-path="url(#master_svg0_11_0013)"><path d="M18.33316990625,16.66664598828125Q18.41524490625,16.66664498828125,18.49574290625,16.650632988281252Q18.57624090625,16.63462098828125,18.65207090625,16.60320998828125Q18.72789990625,16.57180198828125,18.79614290625,16.52620298828125Q18.86438790625,16.48060398828125,18.92242390625,16.42256798828125Q18.98046090625,16.36453198828125,19.02605790625,16.29628798828125Q19.07165890625,16.22804298828125,19.10306690625,16.15221398828125Q19.13447590625,16.076385988281253,19.15048990625,15.99588798828125Q19.16650390625,15.91538798828125,19.16650390625,15.83331298828125L19.16650390625,3.33331298828125Q19.16650390625,3.25123682628125,19.15048990625,3.17073772828125Q19.13447590625,3.09023862828125,19.10306690625,3.01441013828125Q19.07165890625,2.93858164828125,19.02605790625,2.87033784828125Q18.98046090625,2.80209397828125,18.92242390625,2.7440573582812497Q18.86438790625,2.68602072828125,18.79614290625,2.64042174828125Q18.72789790625,2.5948226482812498,18.65206890625,2.5634134982812498Q18.57624090625,2.53200423828125,18.49574290625,2.5159919882812503Q18.41524490625,2.49997973828125,18.33316990625,2.49997967828125L1.66650390625,2.49997967828125Q1.58442774425,2.49997973828125,1.50392864625,2.5159919282812497Q1.42342954625,2.53200423828125,1.34760105625,2.5634134982812498Q1.2717725662500001,2.5948226482812498,1.20352876625,2.64042174828125Q1.13528489625,2.68602072828125,1.07724827625,2.7440573582812497Q1.01921164625,2.80209397828125,0.97361266625,2.87033784828125Q0.92801356625,2.93858164828125,0.89660441625,3.01441013828125Q0.86519515625,3.09023862828125,0.84918290625,3.17073772828125Q0.83317065625,3.25123682628125,0.83317059625,3.33331298828125L0.83317059625,15.83331298828125Q0.83317065625,15.91538798828125,0.84918284625,15.99588798828125Q0.86519515625,16.076385988281253,0.89660441625,16.15221398828125Q0.92801356625,16.22804298828125,0.97361266625,16.29628798828125Q1.01921164625,16.36453198828125,1.07724827625,16.42256798828125Q1.13528489625,16.48060398828125,1.20352876625,16.52620298828125Q1.2717725662500001,16.57180198828125,1.34760105625,16.60320998828125Q1.42342954625,16.63462098828125,1.50392864625,16.650632988281252Q1.58442774425,16.66664498828125,1.66650390625,16.66664598828125L7.57132580625,16.66664598828125L9.41058110625,18.50589998828125Q9.52779100625,18.62310998828125,9.68093390625,18.68654398828125Q9.83407690625,18.749977988281252,9.99983790625,18.74997898828125Q10.16559700625,18.74997698828125,10.31873890625,18.68654298828125Q10.47188190625,18.62310998828125,10.58909220625,18.50589998828125L12.42834790625,16.66664598828125L18.33316990625,16.66664598828125ZM17.49983690625,14.99997998828125L12.08316990625,14.99997998828125Q11.91740890625,14.99997998828125,11.76426690625,15.06341398828125Q11.61112400625,15.12684598828125,11.49391460625,15.24405798828125L9.99983690625,16.73813398828125L8.50575970625,15.24405798828125Q8.38854880625,15.12684598828125,8.23540640625,15.06341398828125Q8.082263906249999,14.99997998828125,7.91650390625,14.99997998828125L2.49983721625,14.99997998828125L2.49983721625,4.16664629828125L17.49983690625,4.16664629828125L17.49983690625,14.99997998828125Z" fill-rule="evenodd" fill="#FFFFFF" fill-opacity="1" style="mix-blend-mode:passthrough"/><ellipse cx="9.999837160110474" cy="7.916646242141724" rx="1.6666665971279144" ry="1.6666665971279144" fill-opacity="0" stroke-opacity="1" stroke="#FFFFFF" fill="none" stroke-width="1.6666666269302368" stroke-linecap="ROUND" stroke-linejoin="round" style="mix-blend-mode:passthrough"/><path d="M7.08371311,13.2901053Q7.08483303,13.3117049,7.08483303,13.3333333Q7.08483303,13.4155569,7.06879187,13.4962008Q7.05275083,13.5768447,7.02128506,13.6528096Q6.98981935,13.7287745,6.94413823,13.7971413Q6.89845711,13.8655081,6.84031606,13.9236491Q6.782175,13.9817901,6.71380836,14.0274711Q6.64544168,14.0731521,6.56947672,14.1046181Q6.49351177,14.1360836,6.41286781,14.1521249Q6.33222387,14.1681662,6.25,14.1681662Q6.16777613,14.1681662,6.08713219,14.1521254Q6.00648823,14.1360836,5.93052328,14.1046181Q5.85455832,14.0731521,5.78619164,14.0274711Q5.717825,13.9817901,5.65968394,13.923649300000001Q5.60154289,13.8655081,5.55586171,13.7971416Q5.51018059,13.7287745,5.47871488,13.6528096Q5.44724917,13.5768447,5.43120813,13.4962008Q5.41516697,13.4155569,5.41516697,13.3333333Q5.41516697,13.305181300000001,5.41706347,13.2770932Q5.4288739,12.4413543,5.79220277,11.6777879Q6.14942841,10.92704773,6.79470694,10.353466300000001Q8.1298554,9.16666675,10,9.16666669Q11.870144400000001,9.16666669,13.205292700000001,10.353466300000001Q13.850571200000001,10.92704731,14.2077971,11.6777879Q14.5711241,12.4413517,14.5829363,13.2770853Q14.5848331,13.3051772,14.5848331,13.3333333Q14.5848331,13.4155569,14.5687914,13.4962008Q14.5527496,13.5768447,14.5212841,13.6528096Q14.4898186,13.7287745,14.4441376,13.7971413Q14.3984566,13.8655081,14.3403158,13.9236491Q14.2821741,13.9817901,14.2138071,14.0274711Q14.1454411,14.0731521,14.0694761,14.1046181Q13.9935112,14.1360836,13.9128675,14.1521249Q13.8322234,14.1681662,13.75,14.1681662Q13.667775599999999,14.1681662,13.5871315,14.1521254Q13.506486899999999,14.1360836,13.430522,14.1046181Q13.354557,14.0731521,13.2861905,14.0274711Q13.217824,13.9817901,13.1596832,13.923649300000001Q13.101542,13.8655081,13.0558605,13.7971416Q13.0101795,13.7287745,12.9787135,13.6528096Q12.947248,13.5768447,12.9312072,13.4962008Q12.9151664,13.4155569,12.9151669,13.3333333Q12.9151669,13.311705100000001,12.9162869,13.2901061Q12.899034499999999,12.311162,12.0980196,11.599148Q11.2364783,10.83333331,10,10.83333331Q8.7635214,10.83333331,7.9019804,11.599148Q7.10096592,12.3111615,7.08371311,13.2901053Z" fill-rule="evenodd" fill="#FFFFFF" fill-opacity="1" style="mix-blend-mode:passthrough"/></g></svg>