<svg xmlns="http://www.w3.org/2000/svg" xmlns:xlink="http://www.w3.org/1999/xlink" fill="none" version="1.1" width="20" height="20" viewBox="0 0 20 20"><defs><clipPath id="master_svg0_21_0519"><rect x="-0.8333333134651184" y="-0.8333333134651184" width="21.666666626930237" height="21.666666626930237" rx="0"/></clipPath></defs><g clip-path="url(#master_svg0_21_0519)"><path d="M5.26501533,2.76501524Q4.16666675,3.8633639,4.16666704,5.4166665Q4.16666669,6.9699693,5.26501524,8.0683179Q6.3633641999999995,9.1666665,7.9166665,9.1666665Q9.4699688,9.1666665,10.5683179,8.0683179Q11.6666665,6.9699688,11.6666665,5.4166665Q11.6666665,3.8633642,10.5683179,2.7650153299999998Q9.469969299999999,1.66666675,7.9166663,1.66666704Q6.3633638999999995,1.66666669,5.26501533,2.76501524ZM6.4435265,6.8898063Q5.83333331,6.279613299999999,5.83333331,5.4166665Q5.83333361,4.5537198,6.4435267,3.9435265Q7.0537198,3.33333331,7.9166665,3.33333367Q8.7796133,3.33333361,9.3898063,3.9435267Q10,4.5537202,10,5.4166665Q10,6.279612800000001,9.3898063,6.8898063Q8.7796128,7.5,7.9166665,7.5Q7.05372,7.5,6.4435265,6.8898063Z" fill-rule="evenodd" fill="#FFFFFF" fill-opacity="1" style="mix-blend-mode:passthrough"/><path d="M15.8333335,12.133360202859375Q15.8348331,12.108374336859375,15.8348331,12.083343505859375Q15.8348329,12.001119635859375,15.8187919,11.920475695859375Q15.8027506,11.839831735859375,15.7712848,11.763866785859374Q15.739819,11.687901825859376,15.6941381,11.619535145859375Q15.6484571,11.551168505859374,15.590316099999999,11.493027445859376Q15.5321751,11.434886395859374,15.4638081,11.389205215859375Q15.3954415,11.343524095859376,15.3194766,11.312058385859375Q15.243511699999999,11.280592675859374,15.162868,11.264551635859375Q15.082223899999999,11.248510475859375,15,11.248510475859375Q14.917776100000001,11.248510475859375,14.837132,11.264551635859375Q14.7564878,11.280592675859374,14.6805229,11.312058445859375Q14.604558,11.343524155859376,14.536191500000001,11.389205275859375Q14.4678248,11.434886395859374,14.4096838,11.493027445859376Q14.3515427,11.551168505859374,14.3058615,11.619535145859375Q14.2601804,11.687901825859376,14.2287147,11.763866785859374Q14.1972489,11.839831735859375,14.1812079,11.920475695859375Q14.1651669,12.001119635859375,14.165167,12.083343505859375Q14.165167,12.108373341859375,14.1666665,12.133358221859375L14.1666665,13.750010005859375L12.550014716,13.750010005859375Q12.525029836,13.748510505859375,12.5,13.748510505859375Q12.41777613,13.748510505859375,12.33713219,13.764551605859374Q12.25648823,13.780592605859376,12.18052328,13.812058205859374Q12.10455832,13.843523905859374,12.03619164,13.889205105859375Q11.967825,13.934886205859375,11.90968394,13.993027205859375Q11.85154289,14.051168205859375,11.80586171,14.119535005859376Q11.760180590000001,14.187901505859376,11.72871488,14.263866405859375Q11.69724917,14.339831305859375,11.68120813,14.420475505859375Q11.66516697,14.501119605859376,11.66516697,14.583343505859375Q11.66516697,14.665567405859374,11.68120813,14.746211305859376Q11.69724917,14.826855205859374,11.72871494,14.902820105859375Q11.76018065,14.978785005859375,11.80586177,15.047151805859375Q11.85154289,15.115518305859375,11.90968394,15.173659305859374Q11.967825,15.231800605859375,12.03619164,15.277481605859375Q12.10455832,15.323162805859376,12.18052328,15.354628605859375Q12.25648823,15.386094105859375,12.33713219,15.402135405859376Q12.41777613,15.418176405859375,12.5,15.418176605859376Q12.525030831,15.418176605859376,12.550016697,15.416677005859375L14.1666665,15.416677005859375L14.1666665,17.033329005859375Q14.165167,17.058313805859374,14.165167,17.083343505859375Q14.1651669,17.165567405859374,14.1812079,17.246211005859376Q14.1972489,17.326854705859375,14.2287147,17.402819605859374Q14.2601804,17.478784605859374,14.3058616,17.547151105859374Q14.3515427,17.615518105859376,14.4096837,17.673659305859374Q14.4678247,17.731800105859374,14.536191500000001,17.777481105859376Q14.604558,17.823162105859375,14.6805229,17.854628105859376Q14.7564878,17.886093605859376,14.837132,17.902134905859377Q14.917776100000001,17.918176205859375,15,17.918176605859376Q15.082223899999999,17.918176205859375,15.1628678,17.902134905859377Q15.243511699999999,17.886093605859376,15.3194766,17.854628105859376Q15.3954415,17.823162105859375,15.4638083,17.777481105859376Q15.5321748,17.731800105859374,15.590315799999999,17.673659305859374Q15.6484571,17.615518105859376,15.6941381,17.547151605859376Q15.7398193,17.478784605859374,15.7712851,17.402819605859374Q15.8027506,17.326854705859375,15.8187919,17.246211005859376Q15.8348329,17.165567405859374,15.8348331,17.083343505859375Q15.8348331,17.058312905859374,15.8333335,17.033326605859376L15.8333335,15.416677005859375L17.4499831,15.416677005859375Q17.4749694,15.418176605859376,17.5,15.418176605859376Q17.5822239,15.418176405859375,17.6628675,15.402135405859376Q17.7435112,15.386094105859375,17.8194761,15.354628305859375Q17.8954411,15.323162505859376,17.9638076,15.277481605859375Q18.0321746,15.231800605859375,18.0903158,15.173659605859374Q18.1484566,15.115518605859375,18.1941376,15.047151605859375Q18.2398186,14.978785005859375,18.2712846,14.902820105859375Q18.3027501,14.826855205859374,18.318791400000002,14.746211505859375Q18.3348327,14.665567405859374,18.3348331,14.583343505859375Q18.3348327,14.501119605859376,18.318791400000002,14.420475505859375Q18.3027501,14.339831305859375,18.2712846,14.263866405859375Q18.2398186,14.187901505859376,18.1941376,14.119535005859376Q18.1484566,14.051168305859376,18.0903158,13.993027305859375Q18.0321746,13.934886205859375,17.9638081,13.889205005859376Q17.8954411,13.843523905859374,17.8194761,13.812058205859374Q17.7435112,13.780592605859376,17.6628675,13.764551605859374Q17.5822239,13.748510505859375,17.5,13.748510505859375Q17.4749703,13.748510505859375,17.4499855,13.750010005859375L15.8333335,13.750010005859375L15.8333335,12.133360202859375Z" fill-rule="evenodd" fill="#FFFFFF" fill-opacity="1" style="mix-blend-mode:passthrough"/><path d="M11.25,12.501489524140625Q11.3322239,12.501489524140625,11.4128666,12.485448364140625Q11.4935102,12.469407324140626,11.5694752,12.437941554140625Q11.6454391,12.406475844140624,11.7138062,12.360794724140625Q11.7821732,12.315113604140626,11.8403149,12.256972554140624Q11.8984556,12.198831494140626,11.9441376,12.130464854140625Q11.9898186,12.062098174140624,12.0212841,11.986133214140626Q12.0527496,11.910168264140625,12.0687914,11.829524304140625Q12.0848331,11.748880364140625,12.0848331,11.666656494140625Q12.0848331,11.584432624140625,12.0687923,11.503788684140625Q12.0527496,11.423144724140625,12.0212841,11.347179774140624Q11.9898186,11.271214814140626,11.9441376,11.202848134140625Q11.8984566,11.134481494140624,11.8403158,11.076340434140626Q11.7821741,11.018199384140624,11.7138071,10.972518204140625Q11.6454401,10.926837084140626,11.5694752,10.895371374140625Q11.4935102,10.863905664140624,11.4128666,10.847864624140625Q11.3322239,10.831823464140625,11.25,10.831823464140625Q11.2249689,10.831823464140625,11.1999826,10.833323184140625L7.8333325,10.833323184140625Q6.1658691999999995,10.833323184140625,5.5761588,10.881501974140624Q4.5784867,10.963010844140625,3.9417157,11.287443194140625Q2.7354413,11.902071754140625,2.12080708,13.108373094140624Q1.79636258,13.745131494140626,1.7148484000000002,14.742811194140625Q1.66666669,15.332524494140625,1.66666669,16.999988994140626L1.66666669,17.499989494140625Q1.66666675,17.582065594140623,1.68267894,17.662564294140626Q1.69869125,17.743062994140626,1.73010051,17.818891494140626Q1.76150966,17.894720094140624,1.80710876,17.962964094140624Q1.85270774,18.031207994140626,1.91074437,18.089244794140626Q1.96878099,18.147281694140624,2.03702486,18.192880594140625Q2.10526866,18.238479594140625,2.18109715,18.269888894140625Q2.25692564,18.301298094140627,2.33742474,18.317310294140626Q2.417923838,18.333322494140624,2.5,18.333322994140623L11.1999836,18.333322994140623Q11.2249689,18.334822694140627,11.25,18.334822694140627Q11.3322239,18.334822694140627,11.4128666,18.318780894140623Q11.4935102,18.302740094140624,11.5694752,18.271274094140626Q11.6454391,18.239808594140626,11.7138062,18.194127594140625Q11.7821732,18.148446594140626,11.8403149,18.090305294140624Q11.8984556,18.032164094140626,11.9441376,17.963797594140626Q11.9898186,17.895430594140624,12.0212841,17.819465594140624Q12.0527496,17.743500694140625,12.0687914,17.662857094140627Q12.0848331,17.582212894140625,12.0848331,17.499989494140625Q12.0848331,17.417765594140626,12.0687923,17.337121494140625Q12.0527496,17.256477394140624,12.0212841,17.180512394140624Q11.9898186,17.104547494140625,11.9441376,17.036180494140623Q11.8984566,16.967813494140625,11.8403158,16.909672694140625Q11.7821741,16.851531494140623,11.7138071,16.805849994140626Q11.6454401,16.760168994140624,11.5694752,16.728703494140625Q11.4935102,16.697237994140625,11.4128666,16.681197194140626Q11.3322239,16.665156394140624,11.25,16.665156394140624Q11.2249651,16.665156394140624,11.199975,16.666656494140625L3.33383203,16.666656494140625Q3.33794504,15.344052094140626,3.3759797799999998,14.878531894140625Q3.43070781,14.208696794140625,3.605818,13.865023594140625Q3.9746053999999997,13.141229294140626,4.6983676,12.772453394140625Q5.0420286999999995,12.597359594140626,5.7118721,12.542634014140624Q6.233839,12.499989804140625,7.8333325,12.499989804140625L11.1999826,12.499989804140625Q11.2249689,12.501489524140625,11.25,12.501489524140625Z" fill-rule="evenodd" fill="#FFFFFF" fill-opacity="1" style="mix-blend-mode:passthrough"/></g></svg>