<?xml version="1.0" standalone="no"?><!DOCTYPE svg PUBLIC "-//W3C//DTD SVG 1.1//EN" "http://www.w3.org/Graphics/SVG/1.1/DTD/svg11.dtd"><svg class="icon" width="200px" height="200.00px" viewBox="0 0 1024 1024" version="1.1" xmlns="http://www.w3.org/2000/svg"><path d="M449.1 501c118.4 0 214.8-98.1 214.8-218.6S567.5 63.9 449.1 63.9c-118.5 0-214.9 98.1-214.9 218.6 0 120.4 96.4 218.5 214.9 218.5zM523.6 522.1h-147c-149.6 0-271.3 123.7-271.3 275.8v16.4c0 79.5 119.8 79.5 271.3 79.5h83.3c-26.7-43.5-42.4-94.6-42.4-149.4-0.1-89.8 41.4-169.9 106.1-222.3zM703.5 528.6c-118.9 0-215.2 96.6-215.2 215.8s96.3 215.8 215.2 215.8c118.9 0 215.2-96.6 215.2-215.8s-96.3-215.8-215.2-215.8z m93.9 247.1h-62.6v62.6c0 17.3-14 31.3-31.3 31.3s-31.3-14-31.3-31.3v-62.6h-62.6c-17.3 0-31.3-14-31.3-31.3s14-31.3 31.3-31.3h62.6v-62.6c0-17.3 14-31.3 31.3-31.3s31.3 14 31.3 31.3v62.6h62.6c17.3 0 31.3 14 31.3 31.3s-14.1 31.3-31.3 31.3z" /></svg>