<svg xmlns="http://www.w3.org/2000/svg" xmlns:xlink="http://www.w3.org/1999/xlink" fill="none" version="1.1" width="20" height="20" viewBox="0 0 20 20"><defs><clipPath id="master_svg0_4_4909"><rect x="-0.8333333134651184" y="-0.8333333134651184" width="21.666666626930237" height="21.666666626930237" rx="0"/></clipPath></defs><g clip-path="url(#master_svg0_4_4909)"><path d="M10.27212050625,1.29571783828125Q10.13982010625,1.24997961828125,9.99983690625,1.24997967828125Q9.85985370625,1.24997961828125,9.72755340625,1.29571783828125L1.3942204762500001,4.17667598828125Q1.23755794625,4.23083638828125,1.11354708625,4.34082648828125Q0.98953616625,4.45081658828125,0.91705638625,4.59989118828125Q0.84457671625,4.74896528828125,0.83466255625,4.91442868828125Q0.82474827625,5.07989218828125,0.87890875625,5.236554388281251Q0.90958297625,5.3252811882812505,0.95922869625,5.40495918828125Q1.0088744162499999,5.484637288281251,1.07500314625,5.55127288828125Q1.1411319362499999,5.61790848828125,1.22042876625,5.66816118828125Q1.29972553625,5.71841378828125,1.38821536625,5.74976468828125L9.72154810625,8.70213988828125Q9.85658070625,8.74997998828125,9.99983690625,8.74997998828125Q10.14309310625,8.74997998828125,10.27812580625,8.70213988828125L18.61145790625,5.74976468828125Q18.68881990625,5.72235538828125,18.75935190625,5.68037988828125Q18.82988190625,5.63840438828125,18.89086890625,5.58347578828125Q18.95185490625,5.52854708828125,19.00095390625,5.46277618828125Q19.05005290625,5.39700508828125,19.08537690625,5.32291908828125Q19.12070090625,5.24883318828125,19.14089190625,5.16927928828125Q19.16108290625,5.08972548828125,19.16536690625,5.00776098828125Q19.16965090625,4.92579678828125,19.15785990625,4.84457178828125Q19.14607190625,4.76334688828125,19.11866390625,4.68598268828125Q19.08731290625,4.59749268828125,19.03705990625,4.51819588828125Q18.98680890625,4.43889908828125,18.92017190625,4.3727702882812505Q18.85353490625,4.30664158828125,18.77385690625,4.2569956882812505Q18.69417990625,4.2073499882812495,18.60545390625,4.17667598828125L10.27212050625,1.29571783828125ZM9.99983690625,2.96504068828125L4.18909640625,4.97390098828125L9.99983690625,7.03255888828125L15.81057690625,4.97390098828125L9.99983690625,2.96504068828125Z" fill-rule="evenodd" fill="#FFFFFF" fill-opacity="1"/><path d="M1.98900547625,7.56328773828125L9.99983690625,10.36707858828125L18.01066590625,7.56328904828125Q18.16540490625,7.49847995828125,18.33316990625,7.49847995828125Q18.41539390625,7.49847995828125,18.49603690625,7.51452111828125Q18.57667890625,7.53056215828125,18.65264490625,7.56202792828125Q18.72860890625,7.59349363828125,18.79697590625,7.63917475828125Q18.86534290625,7.68485587828125,18.92348490625,7.74299692828125Q18.98162490625,7.80113798828125,19.02730590625,7.86950462828125Q19.07298690625,7.93787130828125,19.10445190625,8.01383626828125Q19.13591790625,8.08980121828125,19.15195990625,8.17044517828125Q19.16800290625,8.25108911828125,19.16800290625,8.33331298828125Q19.16800290625,8.40098162728125,19.15710490625,8.46776687828125Q19.14620590625,8.53455212828125,19.12469290625,8.59871029828125Q19.10317990625,8.66286843828125,19.07161690625,8.72272443828125Q19.04005290625,8.78258040828125,18.99925990625,8.83657139828125Q18.95846790625,8.89056241828125,18.90951190625,8.93727874828125Q18.86055790625,8.98399507828125,18.80471590625,9.02221709828125Q18.74887890625,9.06043910828125,18.68761090625,9.089168788281249Q18.62634290625,9.11789858828125,18.56124890625,9.13638585828125L10.27512930625,12.03652808828125Q10.14145850625,12.08331278828125,9.99983690625,12.08331248828125Q9.85821530625,12.08331278828125,9.72454450625,12.03652808828125L1.43842147625,9.13638496828125Q1.37332749625,9.11789738828125,1.31206074625,9.08916759828125Q1.25079399625,9.06043773828125,1.19495412625,9.02221572828125Q1.13911425625,8.98399364828125,1.09015917625,8.93727731828125Q1.04120409625,8.89056098828125,1.00041198625,8.83657008828125Q0.95961987625,8.78257915828125,0.92805576625,8.72272330828125Q0.89649164625,8.66286748828125,0.87497955625,8.59870952828125Q0.85346752625,8.53455151828125,0.84256923625,8.46776646828125Q0.83167087625,8.40098141128125,0.83167087625,8.33331298828125Q0.83167087625,8.25108911828125,0.84771203625,8.17044517828125Q0.86375307625,8.08980121828125,0.89521884625,8.01383626828125Q0.92668455625,7.93787130828125,0.97236567625,7.86950462828125Q1.0180467962500002,7.80113798828125,1.0761878462499999,7.74299692828125Q1.13432890625,7.68485587828125,1.20269554625,7.63917469828125Q1.27106222625,7.59349357828125,1.34702718625,7.56202786828125Q1.42299213625,7.53056215828125,1.50363609625,7.51452111828125Q1.58428003625,7.49847995828125,1.66650390625,7.49847995828125Q1.83426636625,7.49847995828125,1.98900547625,7.56328773828125Z" fill-rule="evenodd" fill="#FFFFFF" fill-opacity="1"/><path d="M1.98900547625,10.89666176171875L9.99983690625,13.70045261171875L18.01066590625,10.89666307171875Q18.16540490625,10.83185398171875,18.33316990625,10.83185398171875Q18.41539390625,10.83185398171875,18.49603690625,10.84789514171875Q18.57667890625,10.86393618171875,18.65264490625,10.89540195171875Q18.72860890625,10.92686766171875,18.79697590625,10.97254878171875Q18.86534290625,11.01822990171875,18.92348490625,11.07637095171875Q18.98162490625,11.13451201171875,19.02730590625,11.20287865171875Q19.07298690625,11.27124533171875,19.10445190625,11.34721029171875Q19.13591790625,11.42317524171875,19.15195990625,11.50381920171875Q19.16800290625,11.58446314171875,19.16800290625,11.66668701171875Q19.16800290625,11.73435565071875,19.15710490625,11.80114090171875Q19.14620590625,11.86792615171875,19.12469290625,11.93208432171875Q19.10317990625,11.99624246171875,19.07161690625,12.05609846171875Q19.04005290625,12.11595443171875,18.99925990625,12.16994542171875Q18.95846790625,12.22393644171875,18.90951190625,12.27065277171875Q18.86055790625,12.31736910171875,18.80471590625,12.35559112171875Q18.74887890625,12.39381313171875,18.68761090625,12.422542811718749Q18.62634290625,12.45127261171875,18.56124890625,12.46975988171875L10.27512930625,15.36990211171875Q10.14145850625,15.41668681171875,9.99983690625,15.41668651171875Q9.85821530625,15.41668681171875,9.72454450625,15.36990211171875L1.43842147625,12.46975899171875Q1.37332749625,12.45127141171875,1.31206074625,12.42254162171875Q1.25079399625,12.39381176171875,1.19495412625,12.35558975171875Q1.13911425625,12.31736767171875,1.09015917625,12.27065134171875Q1.04120409625,12.22393501171875,1.00041198625,12.16994411171875Q0.95961987625,12.11595318171875,0.92805576625,12.05609733171875Q0.89649164625,11.99624151171875,0.87497955625,11.93208355171875Q0.85346752625,11.86792554171875,0.84256923625,11.80114049171875Q0.83167087625,11.73435543471875,0.83167087625,11.66668701171875Q0.83167087625,11.58446314171875,0.84771203625,11.50381920171875Q0.86375307625,11.42317524171875,0.89521884625,11.34721029171875Q0.92668455625,11.27124533171875,0.97236567625,11.20287865171875Q1.0180467962500002,11.13451201171875,1.0761878462499999,11.07637095171875Q1.13432890625,11.01822990171875,1.20269554625,10.97254872171875Q1.27106222625,10.926867601718751,1.34702718625,10.89540189171875Q1.42299213625,10.86393618171875,1.50363609625,10.84789514171875Q1.58428003625,10.83185398171875,1.66650390625,10.83185398171875Q1.83426636625,10.83185398171875,1.98900547625,10.89666176171875Z" fill-rule="evenodd" fill="#FFFFFF" fill-opacity="1"/><path d="M1.98900547625,14.22997475L9.99983690625,17.0337656L18.01066590625,14.22997606Q18.16540490625,14.16516697,18.33316990625,14.16516697Q18.41539390625,14.16516697,18.49603690625,14.18120813Q18.57667890625,14.19724917,18.65264490625,14.22871494Q18.72860890625,14.26018065,18.79697590625,14.30586177Q18.86534290625,14.35154289,18.92348490625,14.40968394Q18.98162490625,14.467825,19.02730590625,14.53619164Q19.07298690625,14.60455832,19.10445190625,14.68052328Q19.13591790625,14.75648823,19.15195990625,14.83713219Q19.16800290625,14.91777613,19.16800290625,15Q19.16800290625,15.067668639,19.15710490625,15.13445389Q19.14620590625,15.20123914,19.12469290625,15.26539731Q19.10317990625,15.32955545,19.07161690625,15.38941145Q19.04005290625,15.44926742,18.99925990625,15.50325841Q18.95846790625,15.55724943,18.90951190625,15.60396576Q18.86055790625,15.65068209,18.80471590625,15.68890411Q18.74887890625,15.72712612,18.68761090625,15.755855799999999Q18.62634290625,15.7845856,18.56124890625,15.80307287L10.27512930625,18.7032151Q10.14145850625,18.7499998,9.99983690625,18.7499995Q9.85821530625,18.7499998,9.72454450625,18.7032151L1.43842147625,15.80307198Q1.37332749625,15.7845844,1.31206074625,15.75585461Q1.25079399625,15.72712475,1.19495412625,15.68890274Q1.13911425625,15.65068066,1.09015917625,15.60396433Q1.04120409625,15.557248,1.00041198625,15.5032571Q0.95961987625,15.44926617,0.92805576625,15.38941032Q0.89649164625,15.3295545,0.87497955625,15.26539654Q0.85346752625,15.20123853,0.84256923625,15.13445348Q0.83167087625,15.067668423,0.83167087625,15Q0.83167087625,14.91777613,0.84771203625,14.83713219Q0.86375307625,14.75648823,0.89521884625,14.68052328Q0.92668455625,14.60455832,0.97236567625,14.53619164Q1.0180467962500002,14.467825,1.0761878462499999,14.40968394Q1.13432890625,14.35154289,1.20269554625,14.30586171Q1.27106222625,14.260180590000001,1.34702718625,14.22871488Q1.42299213625,14.19724917,1.50363609625,14.18120813Q1.58428003625,14.16516697,1.66650390625,14.16516697Q1.83426636625,14.16516697,1.98900547625,14.22997475Z" fill-rule="evenodd" fill="#FFFFFF" fill-opacity="1"/></g></svg>