<?xml version="1.0" standalone="no"?><!DOCTYPE svg PUBLIC "-//W3C//DTD SVG 1.1//EN" "http://www.w3.org/Graphics/SVG/1.1/DTD/svg11.dtd"><svg class="icon" width="200px" height="200.00px" viewBox="0 0 1024 1024" version="1.1" xmlns="http://www.w3.org/2000/svg"><path d="M512 32C248 32 32 248 32 512s216 480 480 480 480-216 480-480S776 32 512 32z m-102.54545437 674.18181844s0 10.90909125-13.09090969 10.90909031h-61.09090875s-15.27272719 0-15.27272719-15.27272719l-15.27272719-237.81818156s0-15.27272719 15.27272719-15.27272719h72s17.45454563 0 17.45454563 17.45454563v240z m283.63636312-34.90909125s-13.09090875 43.63636406-30.54545437 43.63636406h-178.90909032c-13.09090875 0-43.63636406-8.72727281-43.63636406-32.72727281V446.54545438s87.27272719-65.45454562 87.27272719-148.36363594c2.18181844-4.36363594-4.36363594-30.54545437 28.36363687-30.54545438 0 0 78.54545438 8.72727281 32.72727188 178.90909031H708.36363594s30.54545437-2.18181844 30.54545531 28.36363688c-2.18181844 2.18181844-2.18181844 45.81818156-45.8181825 196.36363594z" /></svg>