<svg xmlns="http://www.w3.org/2000/svg" xmlns:xlink="http://www.w3.org/1999/xlink" fill="none" version="1.1" width="20" height="20" viewBox="0 0 20 20"><defs><clipPath id="master_svg0_11_0333"><rect x="-0.8333333134651184" y="-0.8333333134651184" width="21.666666626930237" height="21.666666626930237" rx="0"/></clipPath></defs><g clip-path="url(#master_svg0_11_0333)"><path d="M4.58317059625,18.33335301171875L4.58317059625,4.16668701171875Q4.58317065625,4.08461084971875,4.59918284625,4.00411175171875Q4.6151951562499995,3.92361265171875,4.64660441625,3.84778416171875Q4.67801356625,3.77195567171875,4.72361266625,3.70371187171875Q4.76921164625,3.63546800171875,4.82724827625,3.5774313817187497Q4.88528489625,3.51939475171875,4.95352876625,3.47379577171875Q5.02177256625,3.4281966717187498,5.09760105625,3.3967875217187498Q5.17342954625,3.36537826171875,5.25392864625,3.3493660117187503Q5.33442774425,3.33335376171875,5.41650390625,3.33335370171875L17.083168906250002,3.33335370171875Q17.165244906250003,3.33335376171875,17.24574390625,3.3493659517187497Q17.326242906250002,3.36537826171875,17.40207090625,3.3967875217187498Q17.477899906250002,3.4281966717187498,17.546143906250002,3.47379577171875Q17.614387906250002,3.51939475171875,17.67242390625,3.5774313817187497Q17.730460906250002,3.63546800171875,17.776059906249998,3.70371187171875Q17.82165890625,3.77195567171875,17.85306790625,3.84778416171875Q17.884477906249998,3.92361265171875,17.90048990625,4.00411175171875Q17.916501906249998,4.08461084971875,17.916502906250003,4.16668701171875L17.916502906250003,18.33335301171875Q17.916501906249998,18.415428011718753,17.90048990625,18.49592801171875Q17.884477906249998,18.576426011718752,17.85306690625,18.65225401171875Q17.82165890625,18.728083011718752,17.776059906249998,18.79632801171875Q17.730460906250002,18.864571011718752,17.67242390625,18.92260701171875Q17.614387906250002,18.980644011718752,17.546143906250002,19.02624201171875Q17.477899906250002,19.07184101171875,17.40207090625,19.10325001171875Q17.326242906250002,19.134661011718748,17.24574390625,19.15067301171875Q17.165244906250003,19.166685011718748,17.083168906250002,19.166686011718753L5.41650390625,19.166686011718753Q5.33442774425,19.166685011718748,5.25392864625,19.15067301171875Q5.17342954625,19.134661011718748,5.09760105625,19.10325001171875Q5.02177256625,19.07184101171875,4.95352876625,19.026243011718748Q4.88528489625,18.980644011718752,4.82724827625,18.92260701171875Q4.76921164625,18.864571011718752,4.72361266625,18.79632801171875Q4.67801356625,18.728083011718752,4.64660441625,18.65225401171875Q4.6151951562499995,18.576426011718752,4.59918290625,18.49592801171875Q4.58317065625,18.415428011718753,4.58317059625,18.33335301171875ZM6.24983721625,5.00002032171875L6.24983721625,17.50002001171875L16.24983590625,17.50002001171875L16.24983590625,5.00002032171875L6.24983721625,5.00002032171875Z" fill="#FFFFFF" fill-opacity="1" style="mix-blend-mode:passthrough"/><path d="M5.36647920625,15.00002001171875Q5.39146900625,14.99852001171875,5.41650390625,14.99852001171875Q5.49872780625,14.99852001171875,5.57937170625,15.01456101171875Q5.66001560625,15.03060101171875,5.73598050625,15.06206701171875Q5.8119454062500004,15.09353301171875,5.88031220625,15.13921401171875Q5.94867870625,15.18489501171875,6.00681970625,15.24303601171875Q6.06496100625,15.30117601171875,6.11064200625,15.36954301171875Q6.156323206250001,15.43791001171875,6.18778900625,15.51387501171875Q6.2192545062499995,15.58984001171875,6.23529580625,15.67048501171875Q6.25133680625,15.75112901171875,6.25133700625,15.83335301171875Q6.25133680625,15.91557701171875,6.23529580625,15.99622001171875Q6.2192545062499995,16.07686301171875,6.18778870625,16.15282801171875Q6.15632290625,16.228792011718753,6.11064200625,16.297159011718747Q6.06496100625,16.36552601171875,6.00682000625,16.42366801171875Q5.94867900625,16.481808011718748,5.88031200625,16.52748901171875Q5.8119454062500004,16.57317101171875,5.73598050625,16.60463701171875Q5.66001560625,16.636103011718752,5.57937190625,16.65214401171875Q5.49872780625,16.668185011718748,5.41650390625,16.668186011718753Q5.39146900625,16.668186011718753,5.36647920625,16.666686011718753L2.91650390625,16.666686011718753Q2.83442774425,16.666685011718748,2.75392864625,16.65067301171875Q2.67342954625,16.634661011718748,2.59760105625,16.60325001171875Q2.52177256625,16.57184101171875,2.45352876625,16.526243011718748Q2.38528489625,16.480644011718752,2.3272482762499997,16.42260701171875Q2.26921164625,16.364571011718752,2.22361266625,16.29632801171875Q2.1780135662499998,16.228083011718752,2.1466044162499998,16.15225401171875Q2.11519515625,16.076426011718752,2.0991829062500003,15.99592801171875Q2.08317065625,15.91542801171875,2.08317059625,15.83335301171875L2.08317059625,2.08335367171875Q2.08317059625,1.56558823171875,2.44928783625,1.19947094171875Q2.81540503625,0.83335376171875,3.33317047625,0.83335370171875L14.58316990625,0.83335370171875Q14.66524490625,0.83335376171875,14.74574390625,0.84936595171875Q14.82624290625,0.86537826171875,14.90207090625,0.89678752171875Q14.97789990625,0.92819667171875,15.04614390625,0.97379577171875Q15.11438790625,1.01939475171875,15.17242390625,1.07743138171875Q15.23046090625,1.13546800171875,15.27605990625,1.20371187171875Q15.32165890625,1.2719556717187501,15.35306790625,1.34778416171875Q15.38447790625,1.42361265171875,15.40048990625,1.50411175171875Q15.41650190625,1.58461084971875,15.41650290625,1.66668701171875L15.41650290625,4.11666231171875Q15.41800290625,4.14165211171875,15.41800290625,4.16668701171875Q15.41800290625,4.24891091171875,15.40196090625,4.32955481171875Q15.38591990625,4.41019871171875,15.35445390625,4.48616361171875Q15.32298890625,4.5621285117187504,15.27730790625,4.63049531171875Q15.23162690625,4.69886181171875,15.17348490625,4.75700281171875Q15.11534290625,4.81514411171875,15.04697590625,4.86082511171875Q14.97860890625,4.906506311718751,14.90264490625,4.93797211171875Q14.82667990625,4.9694376117187495,14.74603690625,4.98547891171875Q14.66539290625,5.00151991171875,14.58316990625,5.00152011171875Q14.50094590625,5.00151991171875,14.42030190625,4.98547891171875Q14.33965790625,4.9694376117187495,14.26369290625,4.93797181171875Q14.18772690625,4.90650601171875,14.11936090625,4.86082511171875Q14.05099390625,4.81514411171875,13.99285290625,4.75700311171875Q13.93471290625,4.69886211171875,13.88903190625,4.63049511171875Q13.84334990625,4.5621285117187504,13.81188390625,4.48616361171875Q13.78041790625,4.41019871171875,13.76437790625,4.32955501171875Q13.74833690625,4.24891091171875,13.74833690625,4.16668701171875Q13.74833690625,4.14166021171875,13.74983590625,4.1166782117187495L13.74983590625,2.50002032171875L3.74983721625,2.50002032171875L3.74983721625,15.00002001171875L5.36647920625,15.00002001171875Z" fill-rule="evenodd" fill="#FFFFFF" fill-opacity="1" style="mix-blend-mode:passthrough"/><path d="M8.800017696,10.00002032171875Q8.77503133,10.00152004171875,8.75,10.00152004171875Q8.66777613,10.00152004171875,8.58713219,9.98547888171875Q8.50648823,9.96943784171875,8.43052328,9.93797207171875Q8.35455832,9.90650636171875,8.28619164,9.86082524171875Q8.217825,9.81514412171875,8.15968394,9.75700307171875Q8.10154289,9.69886201171875,8.05586171,9.63049537171875Q8.010180590000001,9.56212869171875,7.97871488,9.48616373171875Q7.94724917,9.41019878171875,7.93120813,9.32955482171875Q7.91516697,9.24891088171875,7.91516697,9.16668701171875Q7.91516697,9.08446314171875,7.93120813,9.00381920171875Q7.94724917,8.92317524171875,7.97871494,8.84721029171875Q8.01018065,8.77124533171875,8.05586177,8.70287865171875Q8.10154289,8.63451201171875,8.15968394,8.57637095171875Q8.217825,8.51822990171875,8.28619164,8.47254872171875Q8.35455832,8.426867601718751,8.43052328,8.39540189171875Q8.50648823,8.36393618171875,8.58713219,8.34789514171875Q8.66777613,8.33185398171875,8.75,8.33185398171875Q8.77503133,8.33185398171875,8.800017696,8.33335370171875L13.6999822,8.33335370171875Q13.7249684,8.33185398171875,13.75,8.33185398171875Q13.832223899999999,8.33185398171875,13.9128675,8.34789514171875Q13.9935112,8.36393618171875,14.0694761,8.39540195171875Q14.1454411,8.42686766171875,14.213807599999999,8.47254878171875Q14.282174600000001,8.51822990171875,14.340315799999999,8.57637095171875Q14.3984566,8.63451201171875,14.444137600000001,8.70287865171875Q14.4898186,8.77124533171875,14.521284600000001,8.84721029171875Q14.5527501,8.92317524171875,14.5687914,9.00381920171875Q14.5848327,9.08446314171875,14.5848331,9.16668701171875Q14.5848327,9.24891088171875,14.5687914,9.32955482171875Q14.5527501,9.41019878171875,14.521284600000001,9.48616373171875Q14.4898186,9.56212869171875,14.444137600000001,9.63049537171875Q14.3984566,9.69886201171875,14.340315799999999,9.75700307171875Q14.282174600000001,9.81514412171875,14.2138081,9.86082530171875Q14.1454411,9.906506421718749,14.0694761,9.93797213171875Q13.9935112,9.96943784171875,13.9128675,9.98547888171875Q13.832223899999999,10.00152004171875,13.75,10.00152004171875Q13.7249684,10.00152004171875,13.6999822,10.00002032171875L8.800017696,10.00002032171875Z" fill-rule="evenodd" fill="#FFFFFF" fill-opacity="1" style="mix-blend-mode:passthrough"/><path d="M8.800017696,13.33333331Q8.77503133,13.33483303,8.75,13.33483303Q8.66777613,13.33483303,8.58713219,13.31879187Q8.50648823,13.30275083,8.43052328,13.27128506Q8.35455832,13.23981935,8.28619164,13.19413823Q8.217825,13.14845711,8.15968394,13.09031606Q8.10154289,13.032175,8.05586171,12.96380836Q8.010180590000001,12.89544168,7.97871488,12.81947672Q7.94724917,12.74351177,7.93120813,12.66286781Q7.91516697,12.58222387,7.91516697,12.5Q7.91516697,12.41777613,7.93120813,12.33713219Q7.94724917,12.25648823,7.97871494,12.18052328Q8.01018065,12.10455832,8.05586177,12.03619164Q8.10154289,11.967825,8.15968394,11.90968394Q8.217825,11.85154289,8.28619164,11.80586171Q8.35455832,11.760180590000001,8.43052328,11.72871488Q8.50648823,11.69724917,8.58713219,11.68120813Q8.66777613,11.66516697,8.75,11.66516697Q8.77503133,11.66516697,8.800017696,11.66666669L13.6999822,11.66666669Q13.7249684,11.66516697,13.75,11.66516697Q13.832223899999999,11.66516697,13.9128675,11.68120813Q13.9935112,11.69724917,14.0694761,11.72871494Q14.1454411,11.76018065,14.213807599999999,11.80586177Q14.282174600000001,11.85154289,14.340315799999999,11.90968394Q14.3984566,11.967825,14.444137600000001,12.03619164Q14.4898186,12.10455832,14.521284600000001,12.18052328Q14.5527501,12.25648823,14.5687914,12.33713219Q14.5848327,12.41777613,14.5848331,12.5Q14.5848327,12.58222387,14.5687914,12.66286781Q14.5527501,12.74351177,14.521284600000001,12.81947672Q14.4898186,12.89544168,14.444137600000001,12.96380836Q14.3984566,13.032175,14.340315799999999,13.09031606Q14.282174600000001,13.14845711,14.2138081,13.19413829Q14.1454411,13.239819409999999,14.0694761,13.27128512Q13.9935112,13.30275083,13.9128675,13.31879187Q13.832223899999999,13.33483303,13.75,13.33483303Q13.7249684,13.33483303,13.6999822,13.33333331L8.800017696,13.33333331Z" fill-rule="evenodd" fill="#FFFFFF" fill-opacity="1" style="mix-blend-mode:passthrough"/></g></svg>