<?xml version="1.0" standalone="no"?><!DOCTYPE svg PUBLIC "-//W3C//DTD SVG 1.1//EN" "http://www.w3.org/Graphics/SVG/1.1/DTD/svg11.dtd"><svg class="icon" width="200px" height="200.00px" viewBox="0 0 1024 1024" version="1.1" xmlns="http://www.w3.org/2000/svg"><path d="M681.8 357.56c11.04 0 21.9 0.84 32.82 2.04-29.4-136.92-175.74-238.62-342.84-238.62C185 120.98 32 248.24 32 409.94c0 93.3 50.88 169.92 135.96 229.44L134 741.56l118.8-59.52c42.48 8.34 76.56 16.98 118.98 16.98 10.68 0 21.24-0.48 31.68-1.26-6.6-22.74-10.5-46.5-10.5-71.28 0.06-148.44 127.5-268.92 288.84-268.92z m-182.64-92.1c25.68 0 42.54 16.86 42.54 42.42 0 25.44-16.86 42.48-42.54 42.48-25.38 0-50.94-17.04-50.94-42.48 0-25.62 25.5-42.42 50.94-42.42z m-237.78 84.9c-25.5 0-51.18-17.04-51.18-42.48 0-25.56 25.68-42.42 51.18-42.42s42.42 16.8 42.42 42.42c0 25.44-16.92 42.48-42.42 42.48zM992 622.4c0-135.84-135.96-246.54-288.66-246.54-161.7 0-288.96 110.76-288.96 246.54 0 136.2 127.32 246.54 288.96 246.54 33.84 0 67.98-8.46 101.94-16.98l93.18 51.12-25.56-84.96C941.12 766.88 992 699.02 992 622.4z m-382.38-42.54c-16.86 0-33.96-16.8-33.96-33.96 0-16.92 17.1-33.96 33.96-33.96 25.8 0 42.54 17.04 42.54 33.96 0 17.16-16.74 33.96-42.54 33.96z m186.9 0c-16.74 0-33.78-16.8-33.78-33.96 0-16.92 16.98-33.96 33.78-33.96 25.56 0 42.54 17.04 42.54 33.96 0 17.16-16.98 33.96-42.54 33.96z" /></svg>