<svg xmlns="http://www.w3.org/2000/svg" xmlns:xlink="http://www.w3.org/1999/xlink" fill="none" version="1.1" width="20" height="20" viewBox="0 0 20 20"><defs><clipPath id="master_svg0_4_4708"><rect x="-0.8333333134651184" y="-0.8333333134651184" width="21.666666626930237" height="21.666666626930237" rx="0"/></clipPath></defs><g clip-path="url(#master_svg0_4_4708)"><path d="M7.08543160625,3.087099852890625Q7.14636990625,3.065809902890625,7.20331140625,3.035405332890625Q7.26025200625,3.005000712890625,7.31184290625,2.966204342890625Q7.36343340625,2.927407922890625,7.40844680625,2.881141962890625Q7.45346020625,2.834876062890625,7.49082660625,2.782240392890625Q7.52819250625,2.729604722890625,7.55702350625,2.671850622890625Q7.58585450625,2.614096522890625,7.60546400625,2.552596922890625Q7.62507440625,2.491097312890625,7.63499740625,2.427314192890625Q7.64492030625,2.363531082890625,7.64492030625,2.298980712890625Q7.64491990625,2.216756842890625,7.62887860625,2.136112902890625Q7.61283680625,2.055468942890625,7.58137130625,1.979503992890625Q7.54990580625,1.903539032890625,7.50422480625,1.835172352890625Q7.45854380625,1.766805712890625,7.40040300625,1.7086646528906249Q7.34226230625,1.6505236028906252,7.27389530625,1.6048424228906248Q7.20552830625,1.559161302890625,7.12956330625,1.527695592890625Q7.05359840625,1.496229882890625,6.97295470625,1.480188842890625Q6.89231110625,1.464147682890625,6.81008720625,1.464147682890625Q6.61644120625,1.464147682890625,6.44256970625,1.549396152890625Q4.79150130625,2.244749992890625,3.51801860625,3.518224612890625Q0.83317065625,6.203110712890625,0.83317065625,10.000027612890625Q0.83317065625,13.796988712890625,3.51802380625,16.481842712890625Q6.20287700625,19.166698712890625,9.99983690625,19.166698712890625Q13.79676690625,19.166698712890625,16.48161690625,16.481842712890625Q17.75513090625,15.208400712890626,18.45046790625,13.557285712890625Q18.53571090625,13.383418712890625,18.53571090625,13.189780712890625Q18.53570890625,13.107555712890624,18.51966890625,13.026911712890625Q18.50362590625,12.946267712890625,18.47215990625,12.870301712890624Q18.44069490625,12.794338712890625,18.39501390625,12.725971712890624Q18.34933490625,12.657604712890626,18.29119290625,12.599463712890625Q18.23305090625,12.541322712890626,18.16468390625,12.495640712890625Q18.09631690625,12.449959712890625,18.02035290625,12.418494712890626Q17.94438890625,12.387028712890626,17.86374690625,12.370987712890624Q17.78310190625,12.354946712890625,17.70087790625,12.354946712890625Q17.636326906249998,12.354946712890625,17.57254290625,12.364869712890625Q17.50875990625,12.374792712890626,17.44725990625,12.394403712890625Q17.38575890625,12.414012712890624,17.32800590625,12.442844712890626Q17.27025090625,12.471674712890625,17.21761590625,12.509041712890625Q17.16497990625,12.546407712890625,17.11871390625,12.591421712890625Q17.07244890625,12.636436712890625,17.03365190625,12.688027712890625Q16.994855906250002,12.739618712890625,16.964451906249998,12.796560712890624Q16.93404790625,12.853501712890624,16.91275790625,12.914439712890625Q16.34414090625,14.262356712890625,15.30313890625,15.303298712890625Q13.10640890625,17.500031712890625,9.99983690625,17.500031712890625Q6.89323280625,17.500031712890625,4.69653530625,15.303332712890626Q2.49983715625,13.106632712890624,2.49983715625,10.000027612890625Q2.49983715625,6.893460312890625,4.69653840625,4.696727512890625Q5.73752550625,3.6557468128906248,7.08543160625,3.087099852890625Z" fill-rule="evenodd" fill="#FFFFFF" fill-opacity="1"/><path d="M9.41074497,1.077399914140625Q9.2935344,1.194610064140625,9.23010051,1.347752924140625Q9.16666663,1.500895754140625,9.16666669,1.666656494140625L9.16666669,9.999989494140625Q9.16666675,10.082065594140625,9.18267894,10.162563294140625Q9.19869125,10.243062994140624,9.23010051,10.318891494140624Q9.26150966,10.394720094140625,9.30710876,10.462964094140625Q9.35270774,10.531207994140624,9.41074437,10.589244794140624Q9.468780989999999,10.647280694140624,9.53702486,10.692879694140625Q9.60526866,10.738478694140625,9.68109715,10.769887894140625Q9.75692564,10.801298094140625,9.83742474,10.817310294140626Q9.917923838,10.833322494140624,10,10.833323494140625L18.333333,10.833323494140625Q18.415409099999998,10.833322494140624,18.4959068,10.817310294140626Q18.576406499999997,10.801298094140625,18.652234999999997,10.769887894140625Q18.7280636,10.738478694140625,18.7963076,10.692879694140625Q18.864551499999997,10.647280694140624,18.9225883,10.589244794140624Q18.9806242,10.531207994140624,19.0262232,10.462964094140625Q19.0718222,10.394720094140625,19.1032314,10.318891494140624Q19.134641600000002,10.243062994140624,19.1506538,10.162563294140625Q19.166666,10.082065594140625,19.166667,9.999989494140625Q19.166667,6.203030594140625,16.481811999999998,3.518177194140625Q13.796958,0.833323714140625,9.9999980131786,0.833323654140625Q9.83423856,0.833323594140625,9.6810967,0.896756944140625Q9.52795488,0.960190234140625,9.41074497,1.077399914140625ZM10.83333331,2.541139784140625L10.83333331,9.166655994140626L17.4588504,9.166655994140626Q17.1993461,6.592732394140625,15.303301300000001,4.696688694140625Q13.407256799999999,2.800644594140625,10.83333331,2.541139784140625Z" fill-rule="evenodd" fill="#FFFFFF" fill-opacity="1"/></g></svg>