<svg xmlns="http://www.w3.org/2000/svg" xmlns:xlink="http://www.w3.org/1999/xlink" fill="none" version="1.1" width="18" height="18" viewBox="0 0 18 18"><defs><clipPath id="master_svg0_4_9081"><rect x="0" y="0" width="18" height="18" rx="0"/></clipPath><filter id="master_svg1_4_9084" filterUnits="objectBoundingBox" color-interpolation-filters="sRGB" x="0" y="0" width="1" height="1"><feFlood flood-opacity="0" result="BackgroundImageFix"/><feBlend mode="normal" in="SourceGraphic" in2="BackgroundImageFix" result="shape"/><feColorMatrix in="SourceAlpha" type="matrix" result="hardAlpha" values="0 0 0 0 0 0 0 0 0 0 0 0 0 0 0 0 0 0 127 0"/><feOffset dy="0.4000000059604645" dx="-0.4000000059604645"/><feGaussianBlur stdDeviation="0"/><feComposite in2="hardAlpha" operator="arithmetic" k2="-1" k3="1"/><feColorMatrix type="matrix" values="0 0 0 0 0.7857142686843872 0 0 0 0 0.3797619044780731 0 0 0 0 0 0 0 0 0.30000001192092896 0"/><feBlend mode="normal" in2="shape" result="effect1_innerShadow"/></filter></defs><g clip-path="url(#master_svg0_4_9081)"><path d="M18,9Q18,9.2209377,17.989159,9.4416094Q17.978317,9.662281,17.956663,9.8821554Q17.935007,10.102028,17.902588,10.320575Q17.870171,10.53912,17.827066,10.755813Q17.783962,10.972505,17.73028,11.186821Q17.676598,11.401138,17.612463,11.612562Q17.548328,11.823986,17.473896,12.032008Q17.399464,12.24003,17.314915,12.44415Q17.230364,12.64827,17.1359,12.847996Q17.041439,13.047721,16.93729,13.242571Q16.833141,13.43742,16.719555,13.626925Q16.605972,13.816429,16.483225,14.000132Q16.360477,14.183834,16.228865,14.361293Q16.097254,14.538752,15.957092,14.709539Q15.816931,14.880326,15.668558,15.04403Q15.520185,15.207733,15.36396,15.36396Q15.207733,15.520185,15.04403,15.668559Q14.880326,15.816931,14.709539,15.957093Q14.538752,16.097254,14.361293,16.228867Q14.183834,16.360477,14.000132,16.483225Q13.816429,16.605972,13.626925,16.719555Q13.43742,16.833141,13.24257,16.93729Q13.04772,17.041439,12.847995,17.1359Q12.64827,17.230364,12.444149,17.314915Q12.240029,17.399464,12.032007,17.473896Q11.823986,17.548328,11.612562,17.612463Q11.401138,17.676598,11.186821,17.730282Q10.972504,17.783964,10.755812,17.827068Q10.53912,17.870171,10.320574,17.902588Q10.102028,17.935007,9.8821545,17.956663Q9.662281,17.978317,9.4416094,17.989159Q9.2209377,18,9,18Q8.7790623,18,8.5583916,17.989159Q8.337719,17.978317,8.1178455,17.956663Q7.8979716,17.935007,7.6794257,17.902588Q7.4608793,17.870171,7.2441869,17.827066Q7.0274944,17.783962,6.8131781,17.73028Q6.5988617,17.676598,6.3874383,17.612463Q6.1760139,17.548328,5.9679914,17.473896Q5.7599688,17.399464,5.5558491,17.314915Q5.3517294,17.230364,5.1520038,17.1359Q4.9522791,17.041439,4.7574296,16.93729Q4.5625796,16.833141,4.373075,16.719555Q4.1835704,16.605972,3.9998674,16.483225Q3.8161645,16.360477,3.638706,16.228865Q3.4612472,16.097254,3.2904601,15.957092Q3.1196733,15.816931,2.9559693,15.668558Q2.7922654,15.520185,2.6360388,15.36396Q2.4798124,15.207733,2.3314397,15.04403Q2.1830673,14.880326,2.042906,14.709539Q1.9027445,14.538752,1.7711321,14.361293Q1.6395197,14.183834,1.5167732,14.000132Q1.394027,13.816429,1.2804424,13.626925Q1.1668577,13.43742,1.0627085,13.24257Q0.95855922,13.04772,0.86409616,12.847995Q0.76963323,12.64827,0.6850841,12.444149Q0.60053492,12.240029,0.52610332,12.032007Q0.45167172,11.823986,0.38753694,11.612562Q0.32340217,11.401138,0.26971871,11.186821Q0.21603525,10.972504,0.17293245,10.755812Q0.12982966,10.53912,0.097411394,10.320574Q0.064993128,10.102028,0.043337457,9.8821545Q0.021681786,9.662281,0.010840893,9.4416094Q0,9.2209377,0,9Q0,8.7790623,0.010840893,8.5583916Q0.021681786,8.337719,0.043337457,8.1178455Q0.064993128,7.8979716,0.097411394,7.6794257Q0.12982966,7.4608793,0.17293245,7.2441869Q0.21603525,7.0274944,0.26971871,6.8131781Q0.32340217,6.5988617,0.38753694,6.3874383Q0.45167172,6.1760139,0.52610338,5.9679914Q0.60053492,5.7599688,0.6850841,5.5558491Q0.76963323,5.3517294,0.86409622,5.1520038Q0.95855927,4.9522791,1.0627086,4.7574296Q1.1668578,4.5625796,1.2804425,4.373075Q1.394027,4.1835704,1.5167733,3.9998674Q1.6395197,3.8161645,1.771132,3.638706Q1.9027444,3.4612472,2.0429058,3.2904601Q2.1830671,3.1196733,2.3314397,2.9559693Q2.4798124,2.7922654,2.6360388,2.6360388Q2.7922654,2.4798124,2.9559693,2.3314397Q3.1196733,2.1830673,3.2904601,2.042906Q3.4612472,1.9027445,3.6387057,1.7711321Q3.8161645,1.6395197,3.9998674,1.5167732Q4.1835699,1.394027,4.3730745,1.2804424Q4.5625792,1.1668577,4.7574291,1.0627085Q4.9522781,0.95855922,5.1520033,0.86409616Q5.3517284,0.76963323,5.5558486,0.6850841Q5.7599683,0.60053492,5.9679909,0.52610332Q6.1760139,0.45167172,6.3874383,0.38753694Q6.5988617,0.32340217,6.8131781,0.26971871Q7.0274944,0.21603525,7.2441869,0.17293245Q7.4608793,0.12982966,7.6794257,0.097411394Q7.8979721,0.064993128,8.1178465,0.043337457Q8.3377199,0.021681786,8.5583916,0.010840893Q8.7790623,0,9,0Q9.2209377,0,9.4416094,0.010840893Q9.662281,0.021681786,9.8821554,0.043337457Q10.102028,0.064993128,10.320575,0.097411394Q10.53912,0.12982966,10.755813,0.17293245Q10.972505,0.21603525,11.186821,0.26971871Q11.401138,0.32340217,11.612562,0.38753694Q11.823986,0.45167172,12.032008,0.52610338Q12.24003,0.60053492,12.44415,0.6850841Q12.64827,0.76963323,12.847996,0.86409622Q13.047721,0.95855927,13.242571,1.0627086Q13.43742,1.1668578,13.626925,1.2804425Q13.816429,1.394027,14.000132,1.5167733Q14.183834,1.6395197,14.361293,1.771132Q14.538752,1.9027444,14.709539,2.0429058Q14.880326,2.1830671,15.04403,2.3314397Q15.207733,2.4798124,15.36396,2.6360388Q15.520185,2.7922654,15.668559,2.9559693Q15.816931,3.1196733,15.957093,3.2904601Q16.097254,3.4612472,16.228867,3.6387057Q16.360477,3.8161645,16.483225,3.9998674Q16.605972,4.1835699,16.719555,4.3730745Q16.833141,4.5625792,16.93729,4.7574291Q17.041439,4.9522781,17.1359,5.1520033Q17.230364,5.3517284,17.314915,5.5558486Q17.399464,5.7599683,17.473896,5.9679909Q17.548328,6.1760139,17.612463,6.3874383Q17.676598,6.5988617,17.730282,6.8131781Q17.783964,7.0274944,17.827068,7.2441869Q17.870171,7.4608793,17.902588,7.6794257Q17.935007,7.8979721,17.956663,8.1178465Q17.978317,8.3377199,17.989159,8.5583916Q18,8.7790623,18,9Z" fill="#FFEA92" fill-opacity="1" style="mix-blend-mode:passthrough"/><path d="M18,9Q18,9.2209377,17.989159,9.4416094Q17.978317,9.662281,17.956663,9.8821554Q17.935007,10.102028,17.902588,10.320575Q17.870171,10.53912,17.827066,10.755813Q17.783962,10.972505,17.73028,11.186821Q17.676598,11.401138,17.612463,11.612562Q17.548328,11.823986,17.473896,12.032008Q17.399464,12.24003,17.314915,12.44415Q17.230364,12.64827,17.1359,12.847996Q17.041439,13.047721,16.93729,13.242571Q16.833141,13.43742,16.719555,13.626925Q16.605972,13.816429,16.483225,14.000132Q16.360477,14.183834,16.228865,14.361293Q16.097254,14.538752,15.957092,14.709539Q15.816931,14.880326,15.668558,15.04403Q15.520185,15.207733,15.36396,15.36396Q15.207733,15.520185,15.04403,15.668559Q14.880326,15.816931,14.709539,15.957093Q14.538752,16.097254,14.361293,16.228867Q14.183834,16.360477,14.000132,16.483225Q13.816429,16.605972,13.626925,16.719555Q13.43742,16.833141,13.24257,16.93729Q13.04772,17.041439,12.847995,17.1359Q12.64827,17.230364,12.444149,17.314915Q12.240029,17.399464,12.032007,17.473896Q11.823986,17.548328,11.612562,17.612463Q11.401138,17.676598,11.186821,17.730282Q10.972504,17.783964,10.755812,17.827068Q10.53912,17.870171,10.320574,17.902588Q10.102028,17.935007,9.8821545,17.956663Q9.662281,17.978317,9.4416094,17.989159Q9.2209377,18,9,18Q8.7790623,18,8.5583916,17.989159Q8.337719,17.978317,8.1178455,17.956663Q7.8979716,17.935007,7.6794257,17.902588Q7.4608793,17.870171,7.2441869,17.827066Q7.0274944,17.783962,6.8131781,17.73028Q6.5988617,17.676598,6.3874383,17.612463Q6.1760139,17.548328,5.9679914,17.473896Q5.7599688,17.399464,5.5558491,17.314915Q5.3517294,17.230364,5.1520038,17.1359Q4.9522791,17.041439,4.7574296,16.93729Q4.5625796,16.833141,4.373075,16.719555Q4.1835704,16.605972,3.9998674,16.483225Q3.8161645,16.360477,3.638706,16.228865Q3.4612472,16.097254,3.2904601,15.957092Q3.1196733,15.816931,2.9559693,15.668558Q2.7922654,15.520185,2.6360388,15.36396Q2.4798124,15.207733,2.3314397,15.04403Q2.1830673,14.880326,2.042906,14.709539Q1.9027445,14.538752,1.7711321,14.361293Q1.6395197,14.183834,1.5167732,14.000132Q1.394027,13.816429,1.2804424,13.626925Q1.1668577,13.43742,1.0627085,13.24257Q0.95855922,13.04772,0.86409616,12.847995Q0.76963323,12.64827,0.6850841,12.444149Q0.60053492,12.240029,0.52610332,12.032007Q0.45167172,11.823986,0.38753694,11.612562Q0.32340217,11.401138,0.26971871,11.186821Q0.21603525,10.972504,0.17293245,10.755812Q0.12982966,10.53912,0.097411394,10.320574Q0.064993128,10.102028,0.043337457,9.8821545Q0.021681786,9.662281,0.010840893,9.4416094Q0,9.2209377,0,9Q0,8.7790623,0.010840893,8.5583916Q0.021681786,8.337719,0.043337457,8.1178455Q0.064993128,7.8979716,0.097411394,7.6794257Q0.12982966,7.4608793,0.17293245,7.2441869Q0.21603525,7.0274944,0.26971871,6.8131781Q0.32340217,6.5988617,0.38753694,6.3874383Q0.45167172,6.1760139,0.52610338,5.9679914Q0.60053492,5.7599688,0.6850841,5.5558491Q0.76963323,5.3517294,0.86409622,5.1520038Q0.95855927,4.9522791,1.0627086,4.7574296Q1.1668578,4.5625796,1.2804425,4.373075Q1.394027,4.1835704,1.5167733,3.9998674Q1.6395197,3.8161645,1.771132,3.638706Q1.9027444,3.4612472,2.0429058,3.2904601Q2.1830671,3.1196733,2.3314397,2.9559693Q2.4798124,2.7922654,2.6360388,2.6360388Q2.7922654,2.4798124,2.9559693,2.3314397Q3.1196733,2.1830673,3.2904601,2.042906Q3.4612472,1.9027445,3.6387057,1.7711321Q3.8161645,1.6395197,3.9998674,1.5167732Q4.1835699,1.394027,4.3730745,1.2804424Q4.5625792,1.1668577,4.7574291,1.0627085Q4.9522781,0.95855922,5.1520033,0.86409616Q5.3517284,0.76963323,5.5558486,0.6850841Q5.7599683,0.60053492,5.9679909,0.52610332Q6.1760139,0.45167172,6.3874383,0.38753694Q6.5988617,0.32340217,6.8131781,0.26971871Q7.0274944,0.21603525,7.2441869,0.17293245Q7.4608793,0.12982966,7.6794257,0.097411394Q7.8979721,0.064993128,8.1178465,0.043337457Q8.3377199,0.021681786,8.5583916,0.010840893Q8.7790623,0,9,0Q9.2209377,0,9.4416094,0.010840893Q9.662281,0.021681786,9.8821554,0.043337457Q10.102028,0.064993128,10.320575,0.097411394Q10.53912,0.12982966,10.755813,0.17293245Q10.972505,0.21603525,11.186821,0.26971871Q11.401138,0.32340217,11.612562,0.38753694Q11.823986,0.45167172,12.032008,0.52610338Q12.24003,0.60053492,12.44415,0.6850841Q12.64827,0.76963323,12.847996,0.86409622Q13.047721,0.95855927,13.242571,1.0627086Q13.43742,1.1668578,13.626925,1.2804425Q13.816429,1.394027,14.000132,1.5167733Q14.183834,1.6395197,14.361293,1.771132Q14.538752,1.9027444,14.709539,2.0429058Q14.880326,2.1830671,15.04403,2.3314397Q15.207733,2.4798124,15.36396,2.6360388Q15.520185,2.7922654,15.668559,2.9559693Q15.816931,3.1196733,15.957093,3.2904601Q16.097254,3.4612472,16.228867,3.6387057Q16.360477,3.8161645,16.483225,3.9998674Q16.605972,4.1835699,16.719555,4.3730745Q16.833141,4.5625792,16.93729,4.7574291Q17.041439,4.9522781,17.1359,5.1520033Q17.230364,5.3517284,17.314915,5.5558486Q17.399464,5.7599683,17.473896,5.9679909Q17.548328,6.1760139,17.612463,6.3874383Q17.676598,6.5988617,17.730282,6.8131781Q17.783964,7.0274944,17.827068,7.2441869Q17.870171,7.4608793,17.902588,7.6794257Q17.935007,7.8979721,17.956663,8.1178465Q17.978317,8.3377199,17.989159,8.5583916Q18,8.7790623,18,9ZM16,9Q16,8.8281593,15.991568,8.6565266Q15.983136,8.4848938,15.966293,8.3138809Q15.94945,8.1428671,15.924235,7.9728866Q15.899021,7.802906,15.865496,7.634367Q15.83197,7.4658284,15.790217,7.2991381Q15.748464,7.1324477,15.698582,6.9680071Q15.648699,6.803566,15.590807,6.6417704Q15.532915,6.4799747,15.467155,6.3212152Q15.401394,6.1624556,15.327925,6.0071135Q15.254454,5.8517723,15.173449,5.700223Q15.092443,5.5486732,15.004099,5.4012809Q14.915755,5.2538881,14.820286,5.1110082Q14.724816,4.9681282,14.622452,4.8301048Q14.520086,4.6920815,14.411072,4.559247Q14.302057,4.4264126,14.186657,4.2990875Q14.071255,4.171762,13.949746,4.0502524Q13.828236,3.9287429,13.700912,3.8133421Q13.573586,3.6979408,13.440752,3.5889266Q13.307917,3.4799123,13.169893,3.377547Q13.03187,3.2751818,12.888989,3.1797123Q12.746109,3.0842428,12.598717,2.9958992Q12.451325,2.9075558,12.299776,2.826551Q12.148226,2.7455459,11.992885,2.6720748Q11.837543,2.5986037,11.678782,2.5328431Q11.520023,2.4670827,11.358228,2.4091916Q11.196433,2.3513002,11.031992,2.3014178Q10.86755,2.2515352,10.700859,2.2097812Q10.534169,2.1680274,10.365631,2.1345029Q10.197094,2.1009784,10.027113,2.0757642Q9.8571329,2.0505502,9.68612,2.0337071Q9.5151072,2.0168636,9.3434744,2.0084319Q9.1718407,2,9,2Q8.8281593,2,8.6565266,2.0084319Q8.4848938,2.0168636,8.3138809,2.0337071Q8.1428671,2.0505502,7.9728866,2.0757644Q7.802906,2.1009784,7.634367,2.1345029Q7.4658284,2.1680274,7.2991381,2.2097814Q7.1324477,2.2515352,6.9680071,2.3014178Q6.803566,2.3513002,6.6417704,2.4091916Q6.4799747,2.4670827,6.3212152,2.5328431Q6.1624556,2.5986037,6.0071135,2.6720748Q5.8517723,2.7455461,5.700223,2.8265512Q5.5486732,2.9075561,5.4012809,2.9958994Q5.2538881,3.0842428,5.1110082,3.1797123Q4.9681282,3.2751818,4.8301048,3.3775468Q4.6920815,3.479912,4.559247,3.5889266Q4.4264126,3.6979408,4.2990875,3.8133416Q4.171762,3.9287424,4.0502524,4.050252Q3.9287429,4.1717615,3.8133421,4.299087Q3.6979408,4.4264121,3.5889266,4.5592465Q3.4799123,4.6920805,3.377547,4.8301044Q3.2751818,4.9681273,3.1797123,5.1110077Q3.0842428,5.2538877,2.9958992,5.4012799Q2.9075558,5.5486727,2.826551,5.7002225Q2.7455459,5.8517723,2.6720748,6.0071135Q2.5986037,6.1624556,2.5328431,6.3212156Q2.4670825,6.4799752,2.4091914,6.6417704Q2.3513002,6.803566,2.3014176,6.9680071Q2.2515349,7.1324482,2.2097812,7.2991385Q2.1680274,7.4658289,2.1345029,7.6343675Q2.1009784,7.802906,2.0757642,7.9728866Q2.0505502,8.1428671,2.0337071,8.31388Q2.0168636,8.4848928,2.0084319,8.6565266Q2,8.8281593,2,9Q2,9.1718407,2.0084319,9.3434734Q2.0168636,9.5151072,2.0337071,9.68612Q2.0505502,9.8571329,2.0757644,10.027113Q2.1009784,10.197094,2.1345029,10.365631Q2.1680274,10.534169,2.2097812,10.70086Q2.2515349,10.86755,2.3014176,11.031992Q2.3513,11.196433,2.4091911,11.358229Q2.4670825,11.520023,2.5328429,11.678782Q2.5986032,11.837543,2.6720748,11.992884Q2.7455459,12.148226,2.826551,12.299776Q2.9075556,12.451325,2.9958992,12.598719Q3.0842428,12.74611,3.1797121,12.88899Q3.2751815,13.03187,3.3775468,13.169893Q3.4799118,13.307917,3.5889263,13.440752Q3.6979406,13.573586,3.8133416,13.700912Q3.9287424,13.828237,4.050252,13.949747Q4.1717615,14.071257,4.299087,14.186658Q4.4264121,14.302059,4.5592465,14.411074Q4.6920805,14.520086,4.8301044,14.622452Q4.9681273,14.724816,5.1110077,14.820286Q5.2538877,14.915755,5.4012799,15.004099Q5.5486727,15.092443,5.7002225,15.173449Q5.8517723,15.254454,6.0071135,15.327924Q6.1624556,15.401395,6.3212156,15.467155Q6.4799752,15.532916,6.6417704,15.590808Q6.803566,15.648699,6.9680071,15.698582Q7.1324482,15.748465,7.2991385,15.790217Q7.4658289,15.831971,7.6343675,15.865496Q7.802906,15.899021,7.9728866,15.924235Q8.1428671,15.94945,8.31388,15.966293Q8.4848928,15.983136,8.6565266,15.991568Q8.8281593,16,9,16Q9.1718407,16,9.3434734,15.991568Q9.5151072,15.983136,9.68612,15.966293Q9.8571329,15.94945,10.027113,15.924235Q10.197094,15.899021,10.365631,15.865496Q10.534169,15.83197,10.70086,15.790217Q10.86755,15.748464,11.031992,15.698582Q11.196433,15.648699,11.358229,15.590807Q11.520023,15.532915,11.678782,15.467155Q11.837543,15.401394,11.992884,15.327925Q12.148226,15.254454,12.299776,15.173449Q12.451325,15.092443,12.598719,15.004099Q12.74611,14.915755,12.88899,14.820286Q13.03187,14.724816,13.169893,14.622452Q13.307917,14.520086,13.440752,14.411072Q13.573586,14.302057,13.700912,14.186657Q13.828237,14.071255,13.949747,13.949746Q14.071257,13.828236,14.186658,13.700912Q14.302059,13.573586,14.411074,13.440752Q14.520086,13.307917,14.622452,13.169893Q14.724816,13.03187,14.820286,12.888989Q14.915755,12.746109,15.004099,12.598717Q15.092443,12.451325,15.173449,12.299776Q15.254454,12.148226,15.327924,11.992885Q15.401395,11.837543,15.467155,11.678782Q15.532916,11.520023,15.590808,11.358228Q15.648699,11.196433,15.698582,11.031992Q15.748465,10.86755,15.790217,10.700859Q15.831971,10.534169,15.865496,10.365631Q15.899021,10.197094,15.924235,10.027113Q15.94945,9.8571329,15.966293,9.68612Q15.983136,9.5151072,15.991568,9.3434744Q16,9.1718407,16,9Z" fill-rule="evenodd" fill="#FFD446" fill-opacity="1"/><path d="M16,9Q16,9.1718402,15.991568,9.3434739Q15.983135,9.5151072,15.966292,9.686119999999999Q15.949449,9.8571329,15.924234,10.027113Q15.899019,10.197093,15.865496,10.3656311Q15.83197,10.5341702,15.790217,10.700861Q15.748464,10.8675518,15.698582,11.0319929Q15.648699,11.196434,15.590806,11.3582287Q15.532915,11.5200233,15.467155,11.6787834Q15.401394,11.8375435,15.327923,11.9928856Q15.254452,12.148228,15.173448,12.299777Q15.092443,12.451326,15.004099,12.598719Q14.915755,12.746111,14.820286,12.88899Q14.724816,13.03187,14.622452,13.169893Q14.520086,13.307918,14.411073,13.440753Q14.302058,13.573587,14.186657,13.700912Q14.071257,13.828238,13.949747,13.949747Q13.828238,14.071257,13.700912,14.186658Q13.573587,14.302058,13.440753,14.411073Q13.307918,14.520086,13.169893,14.622451Q13.03187,14.724816,12.88899,14.820286Q12.746111,14.915755,12.598719,15.004099Q12.451326,15.092443,12.299777,15.173449Q12.148228,15.254454,11.9928856,15.327925Q11.8375435,15.401396,11.6787834,15.467155Q11.5200233,15.532916,11.3582287,15.590808Q11.196434,15.648699,11.0319929,15.698583Q10.8675518,15.748465,10.700861,15.790218Q10.5341702,15.831971,10.3656311,15.865496Q10.197093,15.899019,10.027113,15.924234Q9.8571329,15.94945,9.686119999999999,15.966293Q9.5151072,15.983136,9.3434734,15.991568Q9.1718402,16,9,16Q8.8281598,16,8.6565266,15.991568Q8.4848933,15.983135,8.3138804,15.966292Q8.1428671,15.949449,7.9728866,15.924234Q7.802906,15.899019,7.6343675,15.865496Q7.4658289,15.83197,7.2991385,15.790217Q7.1324482,15.748464,6.9680071,15.698582Q6.803566,15.648699,6.6417708,15.590806Q6.4799757,15.532915,6.3212156,15.467155Q6.1624556,15.401394,6.0071144,15.327923Q5.8517723,15.254452,5.700222999999999,15.173448Q5.5486732,15.092443,5.4012804,15.004099Q5.2538881,14.915755,5.111008200000001,14.820286Q4.968128200000001,14.724816,4.8301048,14.622452Q4.6920815000000005,14.520086,4.559247,14.411073Q4.4264126,14.302058,4.299087,14.186657Q4.171762,14.071257,4.0502524,13.949747Q3.9287429,13.828238,3.813342,13.700912Q3.6979411,13.573587,3.5889268000000003,13.440753Q3.4799124,13.307918,3.3775473,13.169893Q3.275182,13.03187,3.1797127,12.88899Q3.0842432,12.746111,2.99589968,12.598719Q2.90755606,12.451326,2.8265510799999998,12.299777Q2.74554604,12.148228,2.67207485,11.9928856Q2.59860361,11.8375435,2.53284317,11.6787834Q2.46708274,11.5200233,2.40919149,11.3582287Q2.35130021,11.196434,2.30141759,11.0319929Q2.25153497,10.8675518,2.2097811800000002,10.700861Q2.1680273899999998,10.5341702,2.13450301,10.3656311Q2.10097862,10.197093,2.075764418,10.027113Q2.0505502,9.8571329,2.033706907,9.686119999999999Q2.016863609,9.5151072,2.0084318044,9.3434734Q2,9.1718402,2,9Q2,8.8281598,2.0084318044,8.6565266Q2.016863609,8.4848933,2.033706907,8.3138804Q2.0505502,8.1428671,2.07576441,7.9728866Q2.10097862,7.802906,2.13450301,7.6343675Q2.1680273899999998,7.4658289,2.20978117,7.2991385Q2.25153497,7.1324482,2.30141759,6.9680071Q2.35130021,6.803566,2.40919146,6.6417708Q2.46708274,6.4799757,2.53284317,6.3212156Q2.59860361,6.1624556,2.67207479,6.0071144Q2.74554598,5.8517723,2.82655102,5.700222999999999Q2.90755594,5.5486732,2.99589956,5.4012804Q3.0842431,5.2538881,3.1797125,5.111008200000001Q3.2751818999999998,4.968128200000001,3.3775471,4.8301048Q3.4799123,4.6920815000000005,3.5889268000000003,4.5592475Q3.6979411,4.4264130999999995,3.8133421,4.299087500000001Q3.9287429,4.1717622,4.0502524,4.0502527Q4.171762,3.9287432,4.299087,3.8133423Q4.4264126,3.6979414,4.559247,3.588927Q4.6920815000000005,3.4799126,4.8301048,3.3775475Q4.968128200000001,3.2751821999999997,5.111008200000001,3.179713Q5.2538881,3.0842435,5.4012806,2.99589998Q5.5486729,2.9075564099999998,5.700222699999999,2.8265515Q5.8517723,2.74554646,6.0071139,2.67207527Q6.1624556,2.59860408,6.3212156,2.53284359Q6.4799757,2.46708313,6.6417708,2.40919188Q6.803566,2.3513006,6.9680071,2.30141801Q7.1324482,2.25153539,7.2991385,2.20978159Q7.4658289,2.16802779,7.6343675,2.1345034099999998Q7.802906,2.10097902,7.9728866,2.075764813Q8.1428671,2.050550595,8.313880000000001,2.033707298Q8.4848928,2.016864,8.6565266,2.0084321946Q8.8281598,2.00000039027293,9,2.0000003902729Q9.1718402,2.00000039027293,9.3434739,2.0084321955Q9.5151072,2.016864002,9.686119999999999,2.033707302Q9.8571329,2.050550595,10.027113,2.075764805Q10.197093,2.10097902,10.3656311,2.1345034099999998Q10.5341702,2.16802779,10.700861,2.20978159Q10.8675518,2.25153539,11.0319929,2.30141801Q11.196434,2.3513006,11.3582287,2.40919185Q11.5200233,2.46708313,11.6787834,2.53284359Q11.8375435,2.59860408,11.9928856,2.67207527Q12.148228,2.74554646,12.299777,2.8265515Q12.451326,2.9075564099999998,12.598719,2.99590003Q12.746111,3.0842435,12.88899,3.179713Q13.03187,3.2751821999999997,13.169893,3.3775475Q13.307918,3.4799128,13.440753,3.5889271000000003Q13.573587,3.6979414999999998,13.700912,3.8133423Q13.828238,3.9287432,13.949747,4.0502527Q14.071257,4.1717622,14.186658,4.299087500000001Q14.302058,4.4264128,14.411073,4.5592473Q14.520086,4.6920815000000005,14.622451,4.8301048Q14.724816,4.968128200000001,14.820286,5.111008200000001Q14.915755,5.2538881,15.004099,5.4012806Q15.092443,5.5486732,15.173449,5.700222999999999Q15.254454,5.8517723,15.327925,6.0071139Q15.401396,6.1624556,15.467155,6.3212156Q15.532916,6.4799757,15.590808,6.6417708Q15.648699,6.803566,15.698583,6.9680071Q15.748465,7.1324482,15.790218,7.2991385Q15.831971,7.4658289,15.865496,7.6343675Q15.899019,7.802906,15.924234,7.9728866Q15.94945,8.1428671,15.966293,8.313880000000001Q15.983136,8.4848928,15.991568,8.6565266Q16,8.8281598,16,9Z" fill="#FFB405" fill-opacity="1" style="mix-blend-mode:passthrough" filter="url(#master_svg1_4_9084)"/><path d="M8.9816417859375,5.3291715428125C9.476641185937499,5.0266715428125,10.063308285937499,4.880004882812501,10.750808285937499,4.880004882812501C11.438308285937499,4.880004882812501,12.1074742859375,5.0541715428125,12.6208076859375,5.4025048028125C13.1433086859375,5.7508381028125,13.3999747859375,6.1633381828125,13.3999747859375,6.6491713828125L13.3999747859375,12.5433368828125C13.3999747859375,12.7083387828125,13.3083076859375,12.845838582812501,13.1433086859375,12.9558372828125C12.9691419859375,13.0750045828125,12.7583074859375,13.1300038828125,12.5199756859375,13.1300038828125C12.281641985937501,13.1300038828125,12.0708074859375,13.0750045828125,11.8966416859375,12.9558372828125C11.722474085937499,12.8366708828125,11.6399755859375,12.6991710828125,11.6399755859375,12.5433368828125L11.6399755859375,6.5758380828125C11.6399755859375,6.2733381828125,11.5483088859375,6.0075047828125,11.3833083859375,5.7966713328125C11.2091416859375,5.5766715428125,10.9983086859375,5.4758381828125,10.7599749859375,5.4758381828125C10.5216416859375,5.4758381828125,10.3108081859375,5.5858380828125,10.1366419859375,5.7966713328125C9.9624747859375,6.0166715828125,9.8799748859375,6.2733381828125,9.8799748859375,6.5758380828125L9.8799748859375,12.5433368828125C9.8799748859375,12.7083387828125,9.788308185937499,12.845838582812501,9.6233086859375,12.9558372828125C9.4491419859375,13.0750045828125,9.2383083859375,13.1300038828125,8.999975185937501,13.1300038828125C8.7616419859375,13.1300038828125,8.5508081859375,13.0750045828125,8.376641785937501,12.9558372828125C8.2024750859375,12.8366708828125,8.1199755859375,12.6991710828125,8.1199755859375,12.5433368828125L8.1199755859375,6.5758380828125C8.1199755859375,6.2733381828125,8.0283088859375,6.0075047828125,7.863308385937501,5.7966713328125C7.6891421859375,5.5766715428125,7.4783086859375,5.4758381828125,7.2399751859374994,5.4758381828125L6.3599755859375,5.4758381828125L6.3599755859375,12.5433368828125C6.3599755859375,12.7083387828125,6.2683086859375,12.845838582812501,6.1033086859375,12.9558372828125C5.9291420859374995,13.0750045828125,5.7183086859375,13.1300038828125,5.4799755859375,13.1300038828125C5.2416422959375,13.1300038828125,5.0308088659375,13.0750045828125,4.8566422159375,12.9558372828125C4.6824755739375,12.8366708828125,4.5999755859375,12.6991710828125,4.5999755859375,12.5433368828125L4.5999755859375,5.1733382028125C4.5999755859375,5.0908381928125,4.6458089169375,5.0175048728125,4.7283089059375,4.9625048708125C4.8108088959375,4.9075048808125,4.9208089459375,4.8800048828125,5.0399755859375,4.8800048828125L7.2491421859375,4.8800048828125C7.9366416859375,4.8800048828125,8.5233084859375,5.0358382128125,9.0183095859375,5.3291715428125L8.9816417859375,5.3291715428125Z" fill="#FFFFFF" fill-opacity="1"/></g></svg>