<svg xmlns="http://www.w3.org/2000/svg" xmlns:xlink="http://www.w3.org/1999/xlink" fill="none" version="1.1" width="20" height="20" viewBox="0 0 20 20"><defs><clipPath id="master_svg0_4_5525"><rect x="0" y="0" width="20" height="20" rx="0"/></clipPath></defs><g clip-path="url(#master_svg0_4_5525)"><path d="M10,20C4.4771523,20,0,15.52285,0,10C0,4.4771523,4.4771523,0,10,0C15.52285,0,20,4.4771523,20,10C20,15.52285,15.52285,20,10,20ZM7.8022733,3.6613634C4.9704547,3.6613634,2.675,5.6249995,2.675,8.045455C2.675,9.4909086,3.4977272,10.772727,4.7590914,11.568182L4.3772731,13.097727L6.0727282,12.168181C6.6337304,12.34121,7.2174683,12.429307,7.8045464,12.429545L7.8477287,12.429545C7.8019633,12.20513,7.7783647,11.976759,7.7772737,11.747726C7.7772737,9.499999,9.9159107,7.6772728,12.550002,7.6772728C12.670456,7.6772728,12.777274,7.6772728,12.904546,7.693181C12.697727,5.4340897,10.493182,3.6545446,7.7977281,3.6545446L7.8022733,3.6613634ZM12.620455,8.0840902C10.184092,8.0840902,8.2090912,9.7659092,8.2090912,11.843182C8.2090912,13.920453,10.181819,15.599999,12.620455,15.599999C13.289255,15.60073,13.951459,15.467826,14.568184,15.209091L16.077274,16.002272L15.681818,14.545455C16.515642,13.895076,17.010962,12.902768,17.029547,11.845454C17.029547,9.7704544,15.054545,8.0863638,12.618182,8.0863638L12.620455,8.0840902ZM14.211364,11.054545C13.870247,11.048297,13.598173,10.767804,13.60232,10.426654C13.606465,10.085504,13.885277,9.8117065,14.226446,9.8137512C14.567615,9.8157959,14.843125,10.092915,14.843181,10.434091C14.840684,10.780169,14.557428,11.058329,14.211364,11.054545ZM11.006819,11.054545C10.6657,11.048297,10.393627,10.767804,10.397774,10.426654C10.40192,10.085504,10.680732,9.8117065,11.021901,9.8137512C11.36307,9.8157959,11.63858,10.092915,11.638638,10.434091C11.636139,10.780169,11.352884,11.05833,11.006819,11.054545ZM9.8113642,7.295455C9.4348059,7.2954535,9.1295462,6.9901943,9.1295462,6.6136365C9.1295462,6.2370782,9.4348059,5.9318175,9.8113642,5.9318175C10.187922,5.9318175,10.493182,6.2370782,10.493182,6.6136365C10.493182,6.9901943,10.187922,7.2954535,9.8113642,7.295455ZM5.7840915,7.295455C5.4075332,7.2954535,5.1022735,6.9901943,5.1022735,6.6136365C5.1022735,6.2370782,5.4075341,5.9318175,5.7840915,5.9318175C6.1606493,5.9318175,6.46591,6.2370782,6.46591,6.6136365C6.46591,6.9901943,6.1606498,7.2954535,5.7840915,7.295455Z" fill="#1FBE2A" fill-opacity="1" style="mix-blend-mode:passthrough"/></g></svg>